<?xml version="1.0" standalone="no"?>
<!DOCTYPE svg PUBLIC "-//W3C//DTD SVG 1.1//EN" "http://www.w3.org/Graphics/SVG/1.1/DTD/svg11.dtd" >
<svg xmlns="http://www.w3.org/2000/svg" xmlns:xlink="http://www.w3.org/1999/xlink" version="1.1">
<metadata>
Created by FontForge 20170731 at Sun Jan 26 09:28:04 2020
 By Aleksey,,,
Copyright (C) 2015 Dimitar Toshkov Zhekov; Copyright (C) 2016 Tilman Blumenbach; Licensed under the SIL Open Font License, Version 1.1
</metadata>
<defs>
<font id="TerminessTTFNerdFontCompleteM-Medium" horiz-adv-x="500" >
  <font-face 
    font-family="TerminessTTF Nerd Font Mono"
    font-weight="500"
    font-stretch="normal"
    units-per-em="1000"
    panose-1="2 0 6 9 0 0 0 0 0 0"
    ascent="833"
    descent="-167"
    x-height="458"
    cap-height="646"
    bbox="-16 -193 615 859"
    underline-thickness="50"
    underline-position="-200"
    unicode-range="U+0020-FFFD"
  />
<missing-glyph 
d="M33 0v666h265v-666h-265zM66 33h199v600h-199v-600z" />
    <glyph glyph-name="map-marker-plus" unicode="&#x671;" arabic-form="isolated" 
d="M166 345q26 0 43 17t17 42.5t-17 42.5t-42.5 17t-42.5 -17t-17 -42.5t17 -42.5t42 -17zM166 571q71 -1 118 -48t49 -119q-11 -101 -83.5 -201t-83.5 -108q-10 8 -83 108t-83 201q1 72 48 119t118 48zM309 214h72v71h48v-71h71v-47h-71v-72h-48v72h-72v47z" />
    <glyph glyph-name="marker" unicode="&#x671;" arabic-form="final" 
d="M394 552q-18 1 -32 -12l-128 -129l125 -125l129 128q12 13 12 31t-12 33l-64 62q-13 13 -30 12zM214 390l-132 -131q-13 -15 -13.5 -32.5t13.5 -30.5l-82 -82h126l18 19q13 -13 31 -13t31 14l132 131z" />
    <glyph glyph-name="message-plus" unicode="&#x67b;" arabic-form="isolated" 
d="M451 583q21 0 35 -14t14 -35v-301q0 -21 -14 -35.5t-35 -14.5h-351l-100 -100v451q0 21 14 35t35 14h402zM225 483v-75h-75v-50h75v-75h50v75h75v50h-75v75h-50z" />
    <glyph glyph-name="microscope" unicode="&#x67b;" arabic-form="final" 
d="M166 492l44 -75q-55 -7 -90 -45t-37 -94q2 -59 41 -98t98 -40q44 0 77.5 22.5t49.5 60.5h-72v55h223v-55h-62q-18 -67 -69 -112h75v-55h-444v55h75q-34 31 -54.5 74t-20.5 93q1 78 46.5 136t119.5 78zM257 610l20 -37l24 15l98 -170l-96 -54l-98 168l24 14l-20 36z" />
    <glyph glyph-name="move-resize" unicode="&#x67b;" arabic-form="initial" 
d="M182 583v-23h22v-69h-22v-22h68v22h-22v69h22v23h-68zM182 447q-19 -1 -32 -14t-14 -32v-272q1 -19 14 -32t32 -14h272q19 1 32 14t14 32v272q-1 19 -14 32t-32 14h-272zM0 401v-68h23v22h69v-22h22v68h-22v-22h-69v22h-23zM182 401h272v-272h-272v272zM296 379v-24h22
v-112h-90v22h-24v-68h24v22h90v-44h-22v-24h68v24h-24v44h68v-22h24v68h-24v-22h-68v112h24v24h-68z" />
    <glyph glyph-name="move-resize-variant" unicode="&#x67b;" arabic-form="medial" 
d="M31 583l-31 -31l113 -113h-79v-45h155v155h-45v-79zM234 439v-45h221v-133h45v133q-1 19 -13.5 31.5t-31.5 13.5h-221zM144 349v-221q1 -19 13.5 -31.5t31.5 -13.5h133v45h-133v221h-45zM342 273l-32 -32l114 -113h-57v-45h133v133h-45v-57z" />
    <glyph glyph-name="paw-off" unicode="&#x67e;" arabic-form="isolated" 
d="M1 544l32 31l454 -454l-32 -31l-50 50q-6 -4 -10 -7q-34 -12 -72 3.5t-75 18.5q-39 -3 -76 -19t-71 -3q-19 11 -30 31.5t-9 41.5q5 27 29.5 45.5t45.5 37.5q14 14 27 32t25 35zM159 575q23 3 42.5 -17.5t26.5 -54t-2 -57.5l-100 99q11 26 33 30zM337 575q22 -4 33 -28.5
t3.5 -59t-27 -54t-42 -16.5t-32.5 27.5t-3 58.5t26 54.5t42 17.5zM26 461q22 9 46.5 -5t40 -44t10.5 -56.5t-26.5 -35.5t-45.5 5t-39 43.5t-11 56t25 36.5zM474 461q21 -10 25 -36.5t-11 -56t-39 -43.5t-45.5 -5t-26.5 35.5t10.5 56.5t40 44t46.5 5z" />
    <glyph glyph-name="phone-minus" unicode="&#x67e;" arabic-form="final" 
d="M27 583q-12 0 -19.5 -7.5t-7.5 -19.5q5 -201 138.5 -334.5t334.5 -138.5q12 0 19.5 7.5t7.5 19.5v98q0 12 -7.5 20t-19.5 8q-52 0 -99 15q-15 5 -29 -7l-61 -61q-60 31 -106.5 77.5t-77.5 106.5l61 61q12 12 7 29q-15 47 -15 99q0 12 -8 19.5t-20 7.5h-98zM277 500v-56
h223v56h-223z" />
    <glyph glyph-name="phone-plus" unicode="&#x67e;" arabic-form="initial" 
d="M27 583q-12 0 -19.5 -7.5t-7.5 -19.5q5 -201 138.5 -334.5t334.5 -138.5q12 0 19.5 7.5t7.5 19.5v98q0 12 -7.5 20t-19.5 8q-52 0 -99 15q-15 5 -29 -7l-61 -61q-60 31 -106.5 77.5t-77.5 106.5l61 61q12 12 7 29q-15 47 -15 99q0 12 -8 19.5t-20 7.5h-98zM361 583v-83
h-84v-56h84v-84h56v84h83v56h-83v83h-56z" />
    <glyph glyph-name="pot" unicode="&#x67e;" arabic-form="medial" 
d="M444 139q0 -23 -15.5 -39.5t-39.5 -16.5h-278q-24 0 -39.5 16.5t-15.5 39.5v167h-56v83h500v-83h-56v-167zM83 500h56v-56h-56v56zM223 500h54v-56h-54v56zM361 500h56v-56h-56v56zM417 583h56v-56h-56v56zM277 583h56v-56h-56v56zM139 583h55v-56h-55v56z" />
    <glyph glyph-name="pot-mix" unicode="&#x680;" arabic-form="isolated" 
d="M444 140q0 -24 -15.5 -40t-39.5 -16h-278q-24 0 -39.5 16t-15.5 40v166h-56v84h306l111 192l48 -28l-95 -164h130v-84h-56v-166z" />
    <glyph glyph-name="serial-port" unicode="&#x680;" arabic-form="final" 
d="M70 673h360v-72h70v-108h-107v-215h-286v215h-107v108h70v72zM430 458h70v-180h-70v180zM215 243h70v-250h-70v250zM0 458h70v-180h-70v180z" />
    <glyph glyph-name="shape-circle-plus" unicode="&#x680;" arabic-form="initial" 
d="M211 136q66 1 111 45.5t47 112.5h52q-1 -90 -61 -149t-149 -62q-90 3 -149 62t-62 149q3 89 62 149t149 61v-52q-68 -2 -112.5 -47t-45.5 -111q1 -68 45.5 -112.5t112.5 -45.5zM421 504h79v-52h-79v-79h-52v79h-79v52h79v79h52v-79z" />
    <glyph glyph-name="shape-polygon-plus" unicode="&#x680;" arabic-form="medial" 
d="M369 223v71h52v-106l-237 -105l-184 184l105 237h106v-52h-71l-77 -174l132 -132zM500 504v-52h-79v-79h-52v79h-79v52h79v79h52v-79h79z" />
    <glyph glyph-name="shape-rectangle-plus" unicode="&#x67a;" arabic-form="isolated" 
d="M421 464h79v-53h-79v-79h-52v79h-79v53h79v79h52v-79zM369 174v79h52v-130h-421v341h211v-53h-158v-237h316z" />
    <glyph glyph-name="shape-square-plus" unicode="&#x67a;" arabic-form="final" 
d="M421 504h79v-52h-79v-79h-52v79h-79v52h79v79h52v-79zM369 136v158h52v-211h-421v421h211v-52h-158v-316h316z" />
    <glyph glyph-name="skip-next-circle" unicode="&#x67a;" arabic-form="initial" 
d="M250 583q-107 -2 -177.5 -72.5t-72.5 -177.5q2 -107 72.5 -177.5t177.5 -72.5q107 2 177.5 72.5t72.5 177.5q-2 107 -72.5 177.5t-177.5 72.5zM150 433l125 -100l-125 -100v200zM300 433h50v-200h-50v200z" />
    <glyph glyph-name="skip-next-circle-outline" unicode="&#x67a;" arabic-form="medial" 
d="M250 583q-107 -2 -177.5 -72.5t-72.5 -177.5q2 -107 72.5 -177.5t177.5 -72.5q107 2 177.5 72.5t72.5 177.5q-2 107 -72.5 177.5t-177.5 72.5zM250 534q85 -3 141.5 -59.5t59.5 -141.5q-3 -85 -59.5 -141.5t-141.5 -59.5q-85 3 -141.5 59.5t-59.5 141.5q3 85 59.5 141.5
t141.5 59.5zM150 433v-200l125 100zM300 433v-200h50v200h-50z" />
    <glyph glyph-name="skip-previous-circle" unicode="&#x67f;" arabic-form="isolated" 
d="M250 583q-107 -2 -177.5 -72.5t-72.5 -177.5q2 -107 72.5 -177.5t177.5 -72.5q107 2 177.5 72.5t72.5 177.5q-2 107 -72.5 177.5t-177.5 72.5zM150 433h50v-200h-50v200zM350 433v-200l-125 100z" />
    <glyph glyph-name="skip-previous-circle-outline" unicode="&#x67f;" arabic-form="final" 
d="M250 583q107 -2 177.5 -72.5t72.5 -177.5q-2 -107 -72.5 -177.5t-177.5 -72.5q-107 2 -177.5 72.5t-72.5 177.5q2 107 72.5 177.5t177.5 72.5zM250 534q-85 -3 -141.5 -59.5t-59.5 -141.5q3 -85 59.5 -141.5t141.5 -59.5q85 3 141.5 59.5t59.5 141.5q-3 85 -59.5 141.5
t-141.5 59.5zM350 433v-200l-125 100zM200 433v-200h-50v200h50z" />
    <glyph glyph-name="spray" unicode="&#x67f;" arabic-form="initial" 
d="M187 583h63v-63h-63v63zM94 614h62v-63h-62v63zM94 520h62v-63h-62v63zM63 457v-61h-63v61h63zM63 551v-62h-63v62h63zM63 644v-61h-63v61h63zM281 22q-27 0 -44.5 17.5t-17.5 43.5v313q0 26 17.5 43.5t44.5 17.5v32h32v94h93v-94h31v-32q26 0 44 -17.5t19 -43.5v-313
q-1 -26 -19 -43.5t-44 -17.5h-156zM281 396v-313h156v313h-156z" />
    <glyph glyph-name="stop-circle" unicode="&#x67f;" arabic-form="medial" 
d="M250 583q-107 -2 -177.5 -72.5t-72.5 -177.5q2 -107 72.5 -177.5t177.5 -72.5q107 2 177.5 72.5t72.5 177.5q-2 107 -72.5 177.5t-177.5 72.5zM175 408h150v-150h-150v150z" />
    <glyph glyph-name="stop-circle-outline" unicode="&#x679;" arabic-form="isolated" 
d="M250 583q-107 -2 -177.5 -72.5t-72.5 -177.5q2 -107 72.5 -177.5t177.5 -72.5q107 2 177.5 72.5t72.5 177.5q-2 107 -72.5 177.5t-177.5 72.5zM250 534q85 -3 141.5 -59.5t59.5 -141.5q-3 -85 -59.5 -141.5t-141.5 -59.5q-85 3 -141.5 59.5t-59.5 141.5q3 85 59.5 141.5
t141.5 59.5zM175 408v-150h150v150h-150z" />
    <glyph glyph-name="test-tube" unicode="&#x679;" arabic-form="final" 
d="M0 829v-98h51v-698q3 -84 59 -140t140 -56t140 56t59 140v698h51v98h-500zM201 133q-24 0 -37.5 12.5t-13.5 36.5t13.5 36.5t36 12.5t36.5 -12.5t14 -36.5t-14 -36.5t-35 -12.5zM299 332q-21 0 -35 13.5t-14 36.5t14 36.5t36.5 13.5t36 -13.5t13.5 -36.5t-13.5 -36.5
t-37.5 -13.5zM350 582h-200v149h200v-149z" />
    <glyph glyph-name="text-shadow" unicode="&#x679;" arabic-form="initial" 
d="M0 597h382v-88h-146v-352h-89v352h-147v88zM264 480h60v-59h-60v59zM353 480h59v-59h-59v59zM441 480h59v-59h-59v59zM264 392h60v-59h-60v59zM264 304h60v-59h-60v59zM264 216h60v-59h-60v59zM264 128h60v-59h-60v59z" />
    <glyph glyph-name="tune-vertical" unicode="&#x679;" arabic-form="medial" 
d="M56 583v-250h-56v-56h56v-194h55v194h56v56h-56v250h-55zM223 583v-139h-56v-55h56v-306h54v306h56v55h-56v139h-54zM389 583v-306h-56v-55h56v-139h55v139h56v55h-56v306h-55z" />
    <glyph glyph-name="cart-off" unicode="&#x6a4;" arabic-form="isolated" 
d="M500 111l-472 472l-28 -27l97 -98l48 -102l-29 -54q-6 -10 -6 -21q0 -18 12.5 -30.5t31.5 -13.5h164l30 -30q-17 -13 -18 -36q0 -19 13 -31.5t31 -12.5q23 0 35 19l64 -63zM163 281q-5 0 -5 5l1 3l19 36h52l45 -44h-112zM342 325q12 0 22 6t17 17l78 142q3 5 3 11
q0 9 -6 15t-16 7h-296zM154 215q-19 0 -31.5 -13t-12.5 -31.5t12.5 -31t31 -12.5t31.5 12.5t13 31t-13 31.5t-31 13z" />
    <glyph glyph-name="chart-gantt" unicode="&#x6a4;" arabic-form="final" 
d="M0 508h200v75h50v-500h-50v100h-100v75h100v50h-151v75h151v50h-200v75zM300 508h76v-75h-76v75zM300 383h125v-75h-125v75zM300 258h200v-75h-200v75z" />
    <glyph glyph-name="chart-scatterplot-hexbin" unicode="&#x6a4;" arabic-form="initial" 
d="M0 583h49v-451h451v-49h-500v500zM300 270l-50 -87h-102l-51 87l51 88h102zM302 471l-51 -88h-101l-50 88l50 87h101zM481 371l-50 -88h-101l-51 88l51 88h101z" />
    <glyph glyph-name="chart-timeline" unicode="&#x6a4;" arabic-form="medial" 
d="M0 583h49v-451h451v-49h-500v500zM124 383h252v-75h-252v75zM225 258h250v-75h-250v75zM100 534h400v-101h-49v50h-301v-50h-50v101z" />
    <glyph glyph-name="discord" unicode="&#x6a6;" arabic-form="isolated" 
d="M500 45l-132 125l17 -50h-323q-27 1 -44.5 19t-17.5 43v376q0 27 18 45q18 17 44 18h376q27 -1 44.5 -18.5t17.5 -44.5v-513zM250 476q-52 -3 -83 -15t-31 -15q21 18 44.5 27.5t26.5 9.5l-5 4q-32 -2 -55.5 -15t-24.5 -15q-31 -69 -36.5 -117.5t-4.5 -49.5
q30 -33 57.5 -38.5t30.5 -3.5l18 22q-24 7 -37.5 20t-14.5 14q1 -1 32 -15t83 -16q52 2 83 16t32 15q-1 -1 -14.5 -14t-37.5 -20l18 -22q3 -2 30.5 4t57.5 38q1 1 -4.5 49t-36.5 118q-1 3 -24.5 15.5t-55.5 14.5l-5 -4q3 0 26.5 -9.5t44.5 -27.5q0 3 -31 15t-83 15zM198 381
q13 0 21.5 -9.5t8.5 -22.5t-8 -22.5t-21 -9.5t-21.5 9.5t-8.5 22.5t8.5 22.5t20.5 9.5zM303 381q12 0 20.5 -9.5t8.5 -22.5t-9 -22.5t-21 -9.5t-20.5 9.5t-8.5 22.5t8.5 22.5t21.5 9.5z" />
    <glyph glyph-name="file-restore" unicode="&#x6a6;" arabic-form="final" 
d="M313 644h-250q-26 0 -44 -17.5t-19 -43.5v-500q1 -26 19 -43.5t44 -17.5h374q26 0 44 17.5t19 43.5v374zM250 146q-48 0 -86 25.5t-57 67.5h54q15 -21 38 -33.5t51 -12.5q46 2 77.5 32t31.5 76.5t-31.5 78t-77.5 31.5q-32 0 -57 -16t-40 -43l51 -50h-125v125l39 -42
q22 34 55.5 53t76.5 19q66 -1 110.5 -45t45.5 -110q-1 -67 -45.5 -111t-110.5 -45z" />
    <glyph glyph-name="language-c" unicode="&#x6a6;" arabic-form="initial" 
d="M473 135l20 -121q-22 -10 -63.5 -18.5t-99.5 -8.5q-163 2 -246.5 96t-83.5 240q2 171 100 263.5t244 92.5q56 0 96.5 -9.5t59.5 -17.5l-30 -124l-51 17q-30 7 -70 7q-86 0 -142 -54.5t-58 -166.5q0 -100 53.5 -158.5t148.5 -58.5l66 5q32 7 56 16z" />
    <glyph glyph-name="language-cpp" unicode="&#x6a6;" arabic-form="medial" 
d="M207 246l9 -53q-10 -4 -28 -8t-44 -4q-71 1 -107.5 42.5t-36.5 105.5q2 74 44.5 115t106.5 41q24 0 42 -4.5t26 -7.5l-12 -54l-23 7q-12 3 -30 3q-38 0 -63 -24t-26 -73q0 -44 23.5 -69.5t65.5 -25.5l30 2q13 3 23 7zM218 354h43v44h43v-44h44v-42h-44v-44h-43v44h-43v42
zM370 354h43v44h43v-44h44v-42h-44v-44h-43v44h-43v42z" />
    <glyph glyph-name="xaml" unicode="&#x684;" arabic-form="isolated" 
d="M397 333l-73 -128h-148l-73 128l73 128h148zM500 333l-86 -148l-36 20l74 128l-74 128l36 20zM0 333l86 148l36 -20l-74 -128l74 -128l-36 -20z" />
    <glyph glyph-name="bandcamp" unicode="&#x684;" arabic-form="final" 
d="M500 483l-162 -300h-338l162 300h338z" />
    <glyph glyph-name="credit-card-plus" unicode="&#x684;" arabic-form="initial" 
d="M435 235h65v-44h-65v-65h-44v65h-65v44h65v65h44v-65zM391 452v44h-347v-44h347zM391 366h-347v-131h239v-44h-239q-18 1 -30.5 13.5t-13.5 30.5v261q1 18 13.5 30.5t30.5 13.5h347q18 -1 31 -13.5t13 -30.5v-152h-44v22z" />
    <glyph glyph-name="itunes" unicode="&#x684;" arabic-form="medial" 
d="M118 174q-25 -1 -75 -21t-42 -79q23 -70 97 -57.5t83 97.5v307q-1 1 1 11t19 14l242 50q1 2 10 0.5t10 -16.5v-216q0 -2 -3 -11t-19 -14q-24 0 -74 -17.5t-49 -76.5q17 -72 94 -63.5t88 92.5v453q0 3 -4.5 15.5t-30.5 7.5l-294 -60q-2 2 -13.5 -5t-12.5 -26v-355
q0 -2 -4 -13.5t-23 -16.5z" />
    <glyph glyph-name="bow-tie" unicode="&#x683;" arabic-form="isolated" 
d="M333 277l167 -83v278l-167 -83v-112zM167 277l-167 -83v278l167 -83v-112zM194 389h112v-112h-112v112z" />
    <glyph glyph-name="calendar-range" unicode="&#x683;" arabic-form="final" 
d="M167 361h-56v-56h56v56zM277 361h-54v-56h54v56zM389 361h-56v-56h56v56zM444 555h-27v56h-56v-56h-222v56h-56v-56h-27q-25 0 -40.5 -16.5t-15.5 -39.5v-388q0 -23 16.5 -39.5t39.5 -16.5h388q23 0 39.5 16.5t16.5 39.5v388q0 23 -16.5 39.5t-39.5 16.5zM444 111h-388
v305h388v-305z" />
    <glyph glyph-name="currency-usd-off" unicode="&#x683;" arabic-form="initial" 
d="M266 494q42 0 59.5 -18.5t19.5 -47.5h69q-1 41 -26.5 74.5t-73.5 44.5v70h-95v-68q-25 -6 -48 -18l48 -46q17 9 47 9zM40 583l-40 -40l108 -108q1 -48 33.5 -78t89.5 -46l111 -110q-8 -12 -26.5 -20.5t-49.5 -8.5q-49 1 -71 19.5t-24 46.5h-69q5 -51 37 -80.5t80 -40.5
v-68h95v68q46 9 77 36l69 -72l40 41z" />
    <glyph glyph-name="flash-red-eye" unicode="&#x683;" arabic-form="medial" 
d="M342 531q-11 0 -18.5 -7.5t-7.5 -19t7.5 -18.5t19.5 -7t18.5 7t6.5 18.5t-6.5 19t-19.5 7.5zM342 610q-54 0 -96 -29.5t-62 -75.5q20 -47 62 -76t97 -29t97 29t60 76q-18 46 -60 75.5t-98 29.5zM342 570q28 0 47 -18.5t19 -47t-19 -47t-46.5 -18.5t-46.5 18.5t-19 47
t19 47t46 18.5zM0 610v-317h79v-237l184 317h-105l30 66q-27 28 -43 66q14 34 38 60.5t57 44.5h-240z" />
    <glyph glyph-name="oar" unicode="&#x686;" arabic-form="isolated" 
d="M478 246q-34 35 -96.5 80t-111.5 29l-228 228l-42 -41l230 -230q-15 -49 31 -109t81.5 -94t62.5 -24.5t54 40.5q33 30 39.5 60.5t-20.5 60.5z" />
    <glyph glyph-name="piano" unicode="&#x686;" arabic-form="final" 
d="M49 558h402q21 0 35 -14.5t14 -35.5v-350q0 -21 -14 -35.5t-35 -14.5h-402q-21 0 -35 14.5t-14 35.5v350q0 21 14 35.5t35 14.5zM49 508v-350h101v150h-32v200h-69zM175 158h150v150h-32v200h-86v-200h-32v-150zM350 158h101v350h-69v-200h-32v-150z" />
    <glyph glyph-name="weather-lightning-rainy" unicode="&#x686;" arabic-form="initial" 
d="M80 297q9 -5 11 -13.5t-3 -17.5t-13.5 -11t-17.5 2q-26 15 -41 40.5t-16 57.5q1 50 33.5 81.5t80.5 32.5q18 41 54 66t83 25q59 -1 100 -39.5t47 -96.5h11q40 -1 65.5 -27t25.5 -64t-25.5 -64t-65.5 -27q-9 0 -15.5 6.5t-6.5 16.5t6.5 16t15.5 6q19 1 32.5 14t13.5 32
t-13.5 32t-32.5 14h-44v22q-1 48 -33.5 80.5t-80.5 33.5q-44 -1 -74.5 -27.5t-37.5 -68.5q-12 5 -25 5q-29 0 -48 -19.5t-20 -49.5q0 -19 9 -34.5t25 -23.5v0zM194 355h68l-45 -90h45l-85 -159l17 113h-58zM376 182q0 -23 -14.5 -38t-36.5 -15t-36.5 15t-15.5 38
q3 29 25.5 60.5t25.5 33.5q4 -3 26 -34t26 -60z" />
    <glyph glyph-name="weather-snowy-rainy" unicode="&#x686;" arabic-form="medial" 
d="M398 171q-1 -22 -15 -37.5t-36 -15.5t-36.5 15.5t-14.5 37.5q4 29 26 60.5t26 33.5q3 -3 25 -34t25 -60zM68 200q-2 10 3 18t14 10l51 14l-37 38q-7 7 -7 16.5t6.5 16.5t16.5 7t17 -8l38 -37l13 51q3 10 11.5 15t18 2t13.5 -11t2 -18l-13 -50l50 12q10 4 18.5 -1
t10.5 -14.5t-2 -17.5t-14 -10l-51 -14l37 -38q7 -7 7 -16.5t-7 -16.5t-16.5 -7t-16.5 6l-37 39l-14 -52q-3 -11 -11 -15t-17.5 -1t-14.5 10.5t-3 17.5l14 51l-51 -14q-10 -2 -17.5 3t-11.5 14zM0 344q1 50 33.5 81.5t80.5 33.5q18 40 54 65t83 25q59 -1 100 -39.5t47 -96.5
h11q40 -1 65.5 -27t25.5 -64t-25.5 -63.5t-65.5 -27.5q-9 0 -15.5 6.5t-6.5 16.5t6.5 16t15.5 6q19 1 32.5 14t13.5 32t-13.5 32t-32.5 14h-44v22q-1 48 -33.5 80.5t-80.5 33.5q-44 -1 -74.5 -27.5t-37.5 -68.5q-12 5 -25 5q-29 0 -48 -19.5t-19 -49.5t19 -49q7 -6 7 -15
t-7.5 -15.5t-16.5 -6.5t-15 7q-15 16 -24.5 36t-9.5 43z" />
    <glyph glyph-name="yin-yang" unicode="&#x687;" arabic-form="isolated" 
d="M250 583q107 -2 177.5 -72.5t72.5 -177.5q-2 -107 -72.5 -177.5t-177.5 -72.5q-107 2 -177.5 72.5t-72.5 177.5q2 107 72.5 177.5t177.5 72.5zM250 534q-86 -3 -142 -59t-59 -142q3 -86 59 -142t142 -59q-42 1 -70.5 29.5t-28.5 71t28.5 71t70.5 29.5t70.5 29.5t28.5 71
t-28.5 71t-70.5 29.5zM250 471q16 0 26.5 -11t10.5 -26.5t-10.5 -26.5t-26.5 -11t-26.5 11t-10.5 26.5t10.5 26.5t26.5 11zM250 270q-16 -1 -26.5 -11.5t-10.5 -26t10.5 -26.5t26.5 -11t26.5 11t10.5 26.5t-10.5 26t-26.5 11.5z" />
    <glyph glyph-name="tower-beach" unicode="&#x687;" arabic-form="final" 
d="M389 556v-112h28v-55h-11l94 -362h-57l-16 61l-177 102l-177 -102l-16 -61h-57l94 362h-11v55h28v112h-28v27l334 56v-83h-28zM119 265l-26 -103l101 60zM349 389h-198l-18 -68l117 -67l117 67zM407 162l-26 103l-75 -43z" />
    <glyph glyph-name="tower-fire" unicode="&#x687;" arabic-form="initial" 
d="M389 556v-112h28v-55h-11l94 -362h-57l-16 61l-177 102l-177 -102l-16 -61h-57l94 362h-11v55h28v112h-28v27l167 56l167 -56v-27h-28zM119 265l-26 -103l101 60zM349 389h-198l-18 -68l117 -67l117 67zM407 162l-26 103l-75 -43z" />
    <glyph glyph-name="delete-circle" unicode="&#x687;" arabic-form="medial" 
d="M250 583q107 -2 177.5 -72.5t72.5 -177.5q-2 -107 -72.5 -177.5t-177.5 -72.5q-107 2 -177.5 72.5t-72.5 177.5q2 107 72.5 177.5t177.5 72.5zM376 459h-64l-25 24h-74l-25 -24h-64v-51h252v51zM175 183h150q11 0 18 7t7 17v176h-200v-176q0 -10 7 -17t18 -7z" />
    <glyph glyph-name="dna" unicode="&#x68d;" arabic-form="isolated" 
d="M0 644h63v-61q0 -34 15.5 -62.5t42.5 -55.5q43 -38 101 -77l-57 -36q-47 30 -86 69q-36 32 -57 72.5t-22 89.5v61zM437 644h63v-61q-1 -49 -22.5 -89.5t-55.5 -73t-74 -60t-81.5 -53.5t-79 -52t-65.5 -53.5t-43.5 -56t-15.5 -62.5v-61h-63v61q1 49 22.5 89.5t55.5 73
t74 60t81.5 53.5t79 52t65.5 53.5t43.5 56t15.5 62.5v61zM335 314q47 -30 86 -69q36 -32 57 -72.5t22 -89.5v-61h-63v61q0 34 -15.5 62.5t-42.5 55.5q-43 38 -101 77zM94 614h312v-31l-3 -16h-306l-3 16v31zM115 520h270q-11 -16 -28 -34l-16 -13h-183l-15 13q-17 18 -28 34
zM159 193h183l15 -13q17 -18 28 -34h-270q11 16 28 34zM97 99h306l3 -16v-31h-312v31z" />
    <glyph glyph-name="hamburger" unicode="&#x68d;" arabic-form="final" 
d="M0 233h500v-50q0 -21 -14 -35.5t-35 -15.5h-402q-21 1 -35 15.5t-14 35.5v50zM100 534h300q42 -1 70.5 -29.5t29.5 -71.5v-50h-500v50q1 43 29.5 71.5t70.5 29.5zM49 358h276l51 -50l49 50h26q21 0 35 -14.5t14 -36t-14 -35.5t-35 -14h-402q-21 0 -35 14t-14 35.5t14 36
t35 14.5z" />
    <glyph glyph-name="gondola" unicode="&#x68c;" arabic-form="isolated" 
d="M398 377h-124v59l226 38l-6 36l-135 -22q2 6 2 11q0 16 -10.5 27t-26.5 11t-26.5 -11t-10.5 -25t8 -25l-21 -2v25h-48v-34l-15 -2q2 6 2 12q0 16 -10.5 27t-26.5 11t-26.5 -11t-10.5 -25.5t8 -24.5l-147 -24l6 -38l220 38v-51h-124q-21 -1 -35 -15t-15 -35v-148
q1 -21 15 -35t35 -15h296q21 1 35 15t15 35v148q-1 21 -15 35t-35 15zM102 327h56v-98h-56v98zM194 229v98h112v-98h-112zM398 229h-56v98h56v-98z" />
    <glyph glyph-name="inbox" unicode="&#x68c;" arabic-form="final" 
d="M444 250h-111q-1 -36 -24.5 -59t-58.5 -23t-58.5 23t-24.5 59h-111v277h388v-277zM444 583h-388q-25 0 -40.5 -16.5t-15.5 -39.5v-388q0 -23 16.5 -39.5t39.5 -16.5h388q23 0 39.5 16.5t16.5 39.5v388q0 23 -16.5 39.5t-39.5 16.5z" />
    <glyph glyph-name="reorder-horizontal" unicode="&#x68e;" arabic-form="isolated" 
d="M0 250h500v56h-500v-56zM0 139h500v55h-500v-55zM0 360h500v56h-500v-56zM0 527v-55h500v55h-500z" />
    <glyph glyph-name="reorder-vertical" unicode="&#x68e;" arabic-form="final" 
d="M143 655v-644h72v644h-72zM0 655v-644h70v644h-70zM285 655v-644h72v644h-72zM500 655h-70v-644h70v644z" />
    <glyph glyph-name="security-home" unicode="&#x688;" arabic-form="isolated" 
d="M223 306h54v-84h84v138h56l-167 140l-167 -140h56v-138h84v84zM250 639l250 -112v-167q-3 -118 -72 -210.5t-178 -122.5q-109 30 -178 122.5t-72 210.5v167z" />
    <glyph glyph-name="tag-heart" unicode="&#x688;" arabic-form="final" 
d="M486 344l-225 225q-14 14 -36 14h-176q-21 0 -35 -14t-14 -35v-176q0 -21 14 -36l225 -225q14 -14 35.5 -14t35.5 14l176 176q14 14 14 35.5t-14 35.5zM87 459q-15 0 -26 10.5t-11 26t11 26.5t26.5 11t26 -11t10.5 -26.5t-10.5 -26t-26.5 -10.5zM382 251l-107 -107
l-107 107q-18 17 -18 44t18 45t44.5 18t44.5 -18l18 -19l18 19q18 18 44.5 18t44 -18t17.5 -45t-17 -44z" />
    <glyph glyph-name="skull" unicode="&#x698;" arabic-form="isolated" 
d="M250 610q-107 -2 -177 -72.5t-73 -177.5q0 -64 29.5 -118t81.5 -89v-97h56v83h56v-83h54v83h56v-83h56v97q52 35 81.5 90t29.5 117q-3 107 -73 177.5t-177 72.5zM139 360q24 0 39.5 -15.5t15.5 -39t-15.5 -39.5t-39 -16t-40 16t-16.5 39.5t16.5 39t39.5 15.5zM361 360
q23 0 39.5 -15.5t16.5 -39t-16.5 -39.5t-40 -16t-39 16t-15.5 39.5t15.5 39t39.5 15.5zM250 277l41 -83h-82z" />
    <glyph glyph-name="solid" unicode="&#x698;" arabic-form="final" 
d="M0 583h500v-500h-500v500z" />
    <glyph glyph-name="alarm-snooze" unicode="&#x691;" arabic-form="isolated" 
d="M147 547l-32 38l-115 -96l32 -38zM500 489l-115 96l-32 -38l115 -97zM250 532q-96 -2 -159.5 -66t-65.5 -159q2 -97 65.5 -160t159.5 -66q96 3 159.5 66t65.5 160q-2 95 -65.5 159t-159.5 66zM250 130q-75 3 -124.5 52t-50.5 125q1 73 50.5 122.5t124.5 51.5
q75 -2 124.5 -51.5t50.5 -122.5q-1 -76 -50.5 -125t-124.5 -52zM175 356h90l-90 -105v-45h150v50h-90l90 106v44h-150v-50z" />
    <glyph glyph-name="baby-buggy" unicode="&#x691;" arabic-form="final" 
d="M289 596v-210h211q-3 89 -62 149t-149 61zM456 231q21 27 32.5 59.5t11.5 68.5h-384l-24 53h-92v-53h58l26 -54q22 -48 30 -62q-22 -13 -35 -34t-13 -47q1 -39 26.5 -65.5t65.5 -26.5q35 0 60 22t30 57h55q5 -35 30.5 -57t61.5 -22q39 0 65.5 26.5t26.5 65.5
q-2 43 -31 69zM158 122q-17 1 -28.5 12t-11.5 28t11.5 28t28 11t28 -11t11.5 -28t-11.5 -28t-27.5 -12zM395 122q-17 1 -28.5 12t-11.5 28t11.5 28t28 11t28 -11t11.5 -28t-11.5 -28t-27.5 -12z" />
    <glyph glyph-name="beaker" unicode="&#x6a9;" arabic-form="isolated" 
d="M0 583h500v-56q-23 0 -39 -15.5t-17 -39.5v-333q0 -23 -15.5 -39.5t-39.5 -16.5h-278q-24 0 -39.5 16.5t-15.5 39.5v333q-1 24 -17 39.5t-39 15.5v56zM111 527v-55h139v-28h-139v-28h83v-27h-83v-29h83v-27h-83v-27h139v-29h-139v-27h83v-28h-83v-83h278v388h-278z" />
    <glyph glyph-name="bomb" unicode="&#x6a9;" arabic-form="final" 
d="M164 478q2 36 26 60.5t60 24.5t60 -24.5t26 -60.5q0 -9 5.5 -14.5t14 -5.5t14 5.5t5.5 14.5v20h40v-20q-2 -25 -18 -41.5t-42 -16.5t-42.5 16.5t-16.5 41.5q-1 20 -14 33t-33 13t-32.5 -13t-12.5 -33h33v-35q58 -17 94 -64.5t37 -111.5q-1 -78 -53 -129.5t-131 -54.5
q-79 3 -131 54.5t-53 129.5q1 64 37 111.5t94 64.5v35h33zM447 478h53v-26h-53v26zM368 531v52h27v-52h-27zM418 521l38 37l19 -18l-38 -39z" />
    <glyph glyph-name="calendar-question" unicode="&#x6a9;" arabic-form="initial" 
d="M83 611v-56h-27q-25 0 -40.5 -16.5t-15.5 -39.5v-388q0 -23 16.5 -39.5t39.5 -16.5h388q23 0 39.5 16.5t16.5 39.5v388q0 23 -16.5 39.5t-39.5 16.5h-27v56h-56v-56h-222v56h-56zM56 416h388v-305h-388v305zM255 388q-36 0 -58 -16t-21 -49v-1h53q0 13 8 19.5t19.5 6.5
t19.5 -8.5t8 -21.5t-6.5 -22t-16.5 -16q-22 -14 -30 -26t-8 -32h54q0 13 4 20.5t14 14.5q18 9 31 25t13 37q0 31 -22 50t-62 19zM223 194v-56h54v56h-54z" />
    <glyph glyph-name="camera-burst" unicode="&#x6a9;" arabic-form="medial" 
d="M0 491h46v-316h-46v316zM92 491h44v-316h-44v316zM477 491h-273q-10 0 -16 -6t-6 -16v-272q0 -10 6 -16t16 -6h273q9 0 15.5 6t7.5 16v272q-1 10 -7.5 16t-15.5 6zM228 219l56 73l41 -49l57 72l72 -96h-226z" />
    <glyph glyph-name="code-tags-check" unicode="&#x6af;" arabic-form="isolated" 
d="M109 560l-109 -109l109 -109l34 33l-76 76l76 76zM248 560l-34 -33l76 -76l-76 -76l34 -33l109 109zM466 366l-193 -193l-87 88l-33 -34l120 -121l227 226z" />
    <glyph glyph-name="coins" unicode="&#x6af;" arabic-form="final" 
d="M318 515q78 -2 129 -53t53 -129q-2 -78 -53 -129t-129 -53q-78 2 -129 53t-54 129q3 78 54 129t129 53zM318 197q57 1 96 40t40 96q-1 57 -40 96t-96 40q-58 -1 -97 -40t-40 -96q1 -57 40 -96t97 -40zM45 333q1 -45 25.5 -79.5t64.5 -49.5v-47q-59 16 -97 63.5t-38 112.5
t38 112.5t97 63.5v-47q-40 -15 -64.5 -49.5t-25.5 -79.5z" />
    <glyph glyph-name="crop-rotate" unicode="&#x6af;" arabic-form="initial" 
d="M156 135q-52 25 -85.5 71.5t-39.5 105.5h-31q10 -98 79 -162.5t170 -66.5q7 0 13 1l-78 79zM251 583q-7 0 -13 -1l78 -79l28 28q52 -25 85.5 -71.5t39.5 -105.5h31q-10 98 -79 162.5t-170 66.5zM333 291h42v125q0 18 -12.5 30t-29.5 12h-125v-42h125v-125zM167 250v250
h-42v-42h-42v-42h42v-166q0 -18 12.5 -30t29.5 -12h166v-42h42v42h42v42h-250z" />
    <glyph glyph-name="developer-board" unicode="&#x6af;" arabic-form="medial" 
d="M500 408v51h-49v49q-1 21 -15.5 35.5t-35.5 14.5h-351q-21 0 -35 -14.5t-14 -35.5v-350q0 -21 14 -35.5t35 -14.5h351q21 0 35.5 14.5t15.5 35.5v49h49v51h-49v50h49v50h-49v50h49zM400 158h-351v350h351v-350zM100 308h125v-101h-125v101zM250 459h100v-76h-100v76z
M100 459h125v-126h-125v126zM250 358h100v-151h-100v151z" />
    <glyph glyph-name="do-not-disturb" unicode="&#x6b3;" arabic-form="isolated" 
d="M250 583q-107 -2 -177.5 -72.5t-72.5 -177.5q2 -107 72.5 -177.5t177.5 -72.5q107 2 177.5 72.5t72.5 177.5q-2 107 -72.5 177.5t-177.5 72.5zM376 308h-252v50h252v-50z" />
    <glyph glyph-name="do-not-disturb-off" unicode="&#x6b3;" arabic-form="final" 
d="M382 369v-47h-35l111 -112q20 30 31 64t11 71q-2 102 -69 169t-169 69q-37 0 -71.5 -11t-63.5 -31l172 -172h83zM30 577l-30 -31l67 -66q-20 -29 -31 -63t-11 -72q2 -101 69 -168t168 -69q38 0 72.5 11t62.5 31l66 -67l31 30zM143 322v47h35l48 -47h-83z" />
    <glyph glyph-name="douban" unicode="&#x6b3;" arabic-form="initial" 
d="M500 520h-500v63h500v-63zM500 146v-63h-500v63h104l-32 124h-40v187h436v-187h-40l-32 -124h104zM94 333h312v63h-312v-63zM170 146h160l34 124h-228z" />
    <glyph glyph-name="emoticon-dead" unicode="&#x6b3;" arabic-form="medial" 
d="M250 583q-107 -2 -177.5 -72.5t-72.5 -177.5q2 -107 72.5 -177.5t177.5 -72.5q107 2 177.5 72.5t72.5 177.5q-2 107 -73 177.5t-177 72.5zM250 132q-86 3 -142 59t-59 142q3 86 59 142t142 59q86 -3 142 -59t59 -142q-3 -86 -59 -142t-142 -59zM355 439l-26 -26l-27 26
l-27 -26l27 -27l-27 -26l27 -27l27 27l26 -27l27 27l-27 26l27 27zM145 333l26 27l27 -27l27 27l-27 26l27 27l-27 26l-27 -26l-26 26l-27 -26l27 -27l-27 -26zM250 283q-44 0 -78.5 -24.5t-49.5 -63.5h256q-15 39 -49.5 63.5t-78.5 24.5z" />
    <glyph glyph-name="emoticon-excited" unicode="&#x6b1;" arabic-form="isolated" 
d="M250 583q-107 -2 -177.5 -72.5t-72.5 -177.5q2 -107 72.5 -177.5t177.5 -72.5q107 2 177.5 72.5t72.5 177.5q-2 107 -73 177.5t-177 72.5zM250 132q-86 3 -142 59t-59 142q3 86 59 142t142 59q86 -3 142 -59t59 -142q-3 -86 -59 -142t-142 -59zM275 385l27 -27l27 27
l26 -27l27 27l-53 53zM171 385l27 -27l27 27l-54 53l-53 -53l27 -27zM250 195q44 0 78.5 24.5t49.5 63.5h-256q15 -39 49.5 -63.5t78.5 -24.5z" />
    <glyph glyph-name="folder-star" unicode="&#x6b1;" arabic-form="final" 
d="M451 483h-201l-50 51h-151q-21 -1 -35 -15.5t-14 -35.5v-300q0 -21 14 -35.5t35 -15.5h402q21 1 35 15.5t14 35.5v250q0 21 -14 35.5t-35 14.5zM399 207l-74 44l-74 -44l20 84l-64 56l84 7l34 79l34 -79l85 -7l-65 -56z" />
    <glyph glyph-name="format-color-text" unicode="&#x6b1;" arabic-form="initial" 
d="M158 256l92 244l92 -244h-184zM212 602l-212 -538h86l43 115h242l43 -115h86l-212 538h-76z" />
    <glyph glyph-name="format-section" unicode="&#x6b1;" arabic-form="medial" 
d="M419 684q-68 39 -147 40q-56 0 -92.5 -25t-38.5 -68q2 -46 44 -72t111 -48q88 -26 145 -69t59 -127q-2 -45 -24 -84t-59 -65q45 -45 45 -109q-4 -97 -74 -141.5t-161 -44.5q-103 -2 -191 52l30 69q73 -50 162 -50q61 0 99.5 26t39.5 76q2 41 -32.5 70.5t-118.5 57.5
q-98 32 -156 76t-60 122q2 45 27 84.5t64 60.5q-43 41 -45 105q2 82 66.5 128.5t160.5 46.5q91 0 173 -41zM220 267q73 -23 141 -60q48 37 48 96q0 34 -26 65t-87 52q-76 25 -153 63q-25 -16 -40 -42t-15 -58t30.5 -62t101.5 -54z" />
    <glyph glyph-name="gradient" unicode="&#x6ba;" arabic-form="isolated" 
d="M223 416h54v-56h-54v56zM167 360h56v-54h-56v54zM277 360h56v-54h-56v54zM333 416h56v-56h-56v56zM111 416h56v-56h-56v56zM444 583h-388q-23 0 -39.5 -16.5t-16.5 -39.5v-388q0 -23 16.5 -39.5t39.5 -16.5h388q23 0 39.5 16.5t16.5 39.5v388q0 23 -16.5 39.5t-39.5 16.5
zM167 166h-56v56h56v-56zM277 166h-54v56h54v-56zM389 166h-56v56h56v-56zM444 360h-55v-54h55v-56h-55v56h-56v-56h-56v56h-54v-56h-56v56h-56v-56h-55v56h55v54h-55v167h388v-167z" />
    <glyph glyph-name="home-outline" unicode="&#x6ba;" arabic-form="final" 
d="M174 145v152h152v-152h76v204l-152 152l-152 -152v-204h76zM250 572l250 -250h-47v-228h-178v152h-50v-152h-178v228h-47z" />
    <glyph glyph-name="message-bulleted" unicode="&#x6bb;" arabic-form="isolated" 
d="M451 583h-402q-21 0 -35 -14t-14 -35v-451l100 100h351q21 0 35 14.5t14 35.5v301q0 21 -14 35t-35 14zM150 283h-50v50h50v-50zM150 358h-50v50h50v-50zM150 433h-50v50h50v-50zM325 283h-125v50h125v-50zM400 358h-200v50h200v-50zM400 433h-200v50h200v-50z" />
    <glyph glyph-name="message-bulleted-off" unicode="&#x6bb;" arabic-form="final" 
d="M29 583l-29 -29l46 -46v-386l90 91h205l130 -130l29 28zM182 304h-46v45h46v-45zM136 372v46l46 -46h-46zM455 576h-362l134 -134v44h182v-46h-180l23 -22h157v-46h-112l159 -159q19 1 31.5 14t12.5 32v273q0 19 -13 31.5t-32 12.5z" />
    <glyph glyph-name="nuke" unicode="&#x6bb;" arabic-form="initial" 
d="M302 333h-102v25h-113q-37 1 -62 25.5t-25 62t25 62.5t62 26q40 -1 66 -30q8 36 34 57.5t63 21.5t63 -21.5t34 -57.5q26 29 66 30q37 -1 62 -26t25 -62.5t-25 -62t-62 -25.5h-111v-25zM200 210v29h-125v50h350v-50h-123v-29l149 -54q11 -5 17.5 -14.5t6.5 -21.5
q0 -16 -10.5 -26.5t-26.5 -10.5h-376q-16 0 -26.5 10.5t-10.5 26.5q0 12 6.5 21.5t17.5 14.5z" />
    <glyph glyph-name="power-plug" unicode="&#x6bb;" arabic-form="medial" 
d="M416 542v166h-82v-166h-168v166h-82v-166q-33 -2 -57.5 -26.5t-26.5 -57.5v-229l146 -146v-125h208v125l146 146v229q-2 33 -26.5 57.5t-57.5 26.5z" />
    <glyph glyph-name="power-plug-off" unicode="&#x6c0;" arabic-form="isolated" 
d="M167 598v-89q128 -128 256 -253q4 5 11 11t11 14v155q-1 24 -20 36t-36 19v107h-55v-111h-112v111h-55zM35 571q-18 -18 -35 -36l111 -112v-145l98 -98v-83h139v83q5 4 9.5 -2.5t9.5 -9.5l96 -100q21 18 37 37q-235 232 -465 464v2z" />
    <glyph glyph-name="publish" unicode="&#x6c0;" arabic-form="final" 
d="M0 620v-72h500v72h-500zM0 261h143v-215h214v215h143l-250 252z" />
    <glyph glyph-name="restore" unicode="&#x6c1;" arabic-form="isolated" 
d="M286 547q-91 -2 -151.5 -62.5t-63.5 -151.5h-71l93 -93l2 -3l96 96h-72q3 71 49.5 118t117.5 48q71 -1 118 -48t49 -118q-2 -71 -49 -118t-118 -48q-35 0 -65 12.5t-52 36.5l-34 -35q29 -29 67.5 -45.5t83.5 -16.5q91 2 151.5 62.5t62.5 151.5q-2 91 -62.5 151.5
t-151.5 62.5zM262 428v-118l102 -62l18 29l-84 50v101h-36z" />
    <glyph glyph-name="robot" unicode="&#x6c1;" arabic-form="final" 
d="M250 560q19 0 32 -13t14 -32q0 -13 -6.5 -23.5t-17.5 -15.5v-29h24q67 -2 111.5 -47t46.5 -113h23q9 0 15.5 -6t7.5 -16v-68q-1 -10 -7.5 -16t-15.5 -6h-23v-24q0 -19 -13 -32t-33 -13h-316q-20 0 -33 13t-13 32v24h-23q-9 0 -15.5 6t-7.5 16v68q1 10 7.5 16t15.5 6h23
q2 68 46.5 113t111.5 47h24v29q-11 5 -17.5 15.5t-6.5 23.5q1 19 14 32t32 13zM148 311q-25 -1 -40.5 -17.5t-15.5 -40t16 -39.5t40 -16t40 16t16 39.5t-16 40t-40 17.5zM352 311q-24 -1 -40 -17.5t-16 -40t16 -39.5t40 -16t40 16t16 39.5t-15.5 40t-40.5 17.5z" />
    <glyph glyph-name="format-rotate-90" unicode="&#x6c1;" arabic-form="initial" 
d="M154 450l-154 -153l154 -153l153 153zM68 297l86 86l87 -86l-87 -86zM438 445q-31 32 -70 47.5t-81 15.5v76l-100 -101l100 -100v77q33 0 63 -12.5t55 -36.5q48 -51 48 -117t-48 -117q-25 -24 -55 -36.5t-63 -12.5q-34 0 -66 15l-36 -34q48 -27 102 -27q42 0 81 15.5
t70 46.5q62 65 62 150t-62 151z" />
    <glyph glyph-name="scanner" unicode="&#x6c1;" arabic-form="medial" 
d="M466 384l-432 157l-20 -52l391 -142h-349q-23 0 -39.5 -16t-16.5 -40v-110q0 -24 16.5 -39.5t39.5 -16.5h388q23 1 39.5 16.5t16.5 39.5v152q0 18 -9.5 32t-24.5 19zM111 208h-55v56h55v-56zM444 208h-277v56h277v-56z" />
    <glyph glyph-name="subway" unicode="&#x6be;" arabic-form="isolated" 
d="M162 257q11 0 18 -7t7 -17.5t-7.5 -17.5t-18 -7t-17.5 7t-7 17.5t7 17.5t18 7zM124 408h252v-126h-252v126zM338 257q11 0 18 -7t7 -17.5t-7 -17.5t-17.5 -7t-18 7t-7.5 17.5t7 17.5t18 7zM400 235v173q-1 48 -44 62t-106 13q-59 1 -103.5 -13t-46.5 -62v-173
q1 -28 19 -46.5t46 -18.5l-28 -29v-9h43l37 38h70l38 -38h38v9l-28 29q28 1 46 19t19 46zM395 563q51 -20 78 -59.5t27 -92.5v-329h-500v329q0 53 27 92.5t78 59.5q34 12 72 16.5t73 4.5t73 -4.5t72 -16.5z" />
    <glyph glyph-name="timer-sand-empty" unicode="&#x6be;" arabic-form="final" 
d="M0 749v-250l166 -166l-166 -166v-250h500v250l-166 166l166 166v250h-500zM416 146v-147h-332v147l166 166zM250 354l-166 166v147h332v-147z" />
    <glyph glyph-name="transit-transfer" unicode="&#x6be;" arabic-form="initial" 
d="M363 252h137v-38h-137v-43l-63 62l63 63v-44zM438 146v43l62 -62l-62 -63v44h-138v38h138zM188 502q-22 0 -36.5 14.5t-14.5 35.5t14.5 35.5t36 14.5t35.5 -14.5t14 -35.5t-14 -35.5t-35 -14.5zM94 417l-45 -18v-84h-49v117l132 54q9 4 18 4q27 -1 42 -24l24 -39
q17 -28 45.5 -45t63.5 -18v-49q-41 0 -76.5 17t-59.5 47l-15 -75l51 -52v-188h-50v150l-54 50l-43 -200h-53z" />
    <glyph glyph-name="unity" unicode="&#x6be;" arabic-form="medial" 
d="M215 190h-74l-141 143l141 143h74l37 65l195 49l53 -193l-38 -64l38 -64l-53 -193l-195 49zM219 198l147 -41l-84 148h-170zM416 187l39 146l-39 146l-85 -146zM219 468l-107 -107h170l84 148z" />
    <glyph glyph-name="update" unicode="&#x6d2;" arabic-form="isolated" 
d="M500 385h-189l77 78q-60 57 -137.5 58t-137.5 -55q-57 -59 -57 -135.5t57 -136.5q60 -56 137.5 -56t137.5 56q56 56 56 136h56q0 -42 -18.5 -90t-54.5 -84q-76 -73 -176.5 -73t-177.5 73q-73 75 -73 174.5t73 174.5q76 73 175 73t177 -73l75 78v-198zM264 444v-118
l97 -58l-20 -34l-118 72v138h41z" />
    <glyph glyph-name="watch-vibrate" unicode="&#x6d2;" arabic-form="final" 
d="M62 228v209h42v-209h-42zM396 228v209h42v-209h-42zM458 395h42v-125h-42v125zM0 270v125h42v-125h-42zM374 334q0 -31 -13 -56.5t-34 -42.5l-15 -89h-124l-16 89q-22 17 -34.5 42.5t-12.5 55.5t12.5 55.5t34.5 42.5l16 89h124l15 -89q21 -17 34 -42.5t13 -54.5zM156 334
q1 -40 27.5 -67t66 -27t66 27t26.5 66t-26.5 66t-66 27t-66 -27t-27.5 -65z" />
    <glyph glyph-name="angular" unicode="&#x6d3;" arabic-form="isolated" 
d="M250 601l250 -89l-39 -330l-211 -117l-211 117l-39 330zM250 542l-156 -351h58l32 80h132l32 -80h57zM296 319h-91l45 110z" />
    <glyph glyph-name="dolby" unicode="&#x6d3;" arabic-form="final" 
d="M0 508v-350h500v350h-500zM100 207h-51v252h51q55 -4 90 -39t35 -87t-35 -87t-90 -39zM451 207h-51q-55 4 -90 39t-35 87t35 87t90 39h51v-252z" />
    <glyph glyph-name="flash-outline" unicode="&#x6ad;" arabic-form="isolated" 
d="M0 831h500l-176 -348h176l-350 -648v398h-150v598zM100 733v-400h150v-133l100 182h-189l178 351h-239z" />
    <glyph glyph-name="format-font" unicode="&#x6ad;" arabic-form="final" 
d="M389 444h84v-334h27v-27h-111v27h28v84h-111l-42 -84h42v-27h-112v27h29zM417 416l-98 -194h98v194zM56 583h138q25 0 40.5 -15.5t15.5 -40.5v-305h-83v138h-84v-138h-83v305q0 25 15.5 40.5t40.5 15.5zM83 527v-111h84v111h-84z" />
    <glyph glyph-name="format-page-break" unicode="&#x6ad;" arabic-form="initial" 
d="M111 360h56v-54h-56v54zM223 360h54v-54h-54v54zM444 194h-111v162l167 -166v-134h-500v250h56v-196h388v84zM0 610h500v-250h-56v196h-388v-196h-56v250z" />
    <glyph glyph-name="format-pilcrow" unicode="&#x6ad;" arabic-form="medial" 
d="M165 374q-71 2 -118 49.5t-47 118.5t47 118t118 50h335v-85h-84v-669h-83v669h-84v-669h-84v418z" />
    <glyph glyph-name="garage" unicode="&#x6c7;" arabic-form="isolated" 
d="M500 65h-70v322h-360v-322h-70v394l250 142l250 -142v-394zM107 351h286v-72h-286v72zM107 244h286v-72h-286v72zM393 137v-72h-286v72h286z" />
    <glyph glyph-name="garage-open" unicode="&#x6c7;" arabic-form="final" 
d="M500 65h-70v322h-360v-322h-70v394l250 142l250 -142v-394zM107 351h286v-72h-286v72z" />
    <glyph glyph-name="github-face" unicode="&#x6c6;" arabic-form="isolated" 
d="M460 433q4 8 7.5 35.5t-11.5 66.5q0 3 -26 -0.5t-83 -38.5q-47 10 -97 9q-50 1 -97 -9q-57 36 -83 39t-26 0q-15 -39 -11 -67t7 -35q-39 -41 -40 -105q1 -118 69.5 -159.5t180.5 -38.5q111 -3 180 38t70 160q-1 64 -40 105zM250 161q-80 -4 -133 14t-54 90q0 37 32 65
q26 21 66 19t89 -5q49 3 89 5t66 -19q31 -28 33 -65q-3 -71 -55.5 -89.5t-132.5 -14.5zM171 317q-15 0 -26 -16t-11 -39.5t11 -39.5t27 -16t26.5 15.5t10.5 39.5t-10.5 40t-27.5 16zM329 317q-17 0 -27.5 -16t-10.5 -40t10.5 -39.5t26.5 -15.5t27 15.5t11 39.5t-10.5 40
t-26.5 16z" />
    <glyph glyph-name="google-keep" unicode="&#x6c6;" arabic-form="final" 
d="M49 583h402q21 0 35 -14t14 -35v-335l-116 -116h-335q-21 0 -35 14t-14 35v402q0 21 14 35t35 14zM376 207v-81l81 81h-81zM200 158h100v25h25v125q24 17 36.5 43t14.5 57q-2 53 -37.5 89t-88.5 37q-53 -1 -88.5 -37t-37.5 -89q2 -31 14.5 -57t36.5 -43v-125h25v-25z
M300 207h-100v26h100v-26zM300 258h-100v25h100v-25zM250 508q42 -1 70.5 -29.5t29.5 -70.5q0 -28 -13.5 -51t-36.5 -36v-13h-100v13q-23 13 -36.5 36t-13.5 51q1 42 29.5 70.5t70.5 29.5z" />
    <glyph glyph-name="google-photos" unicode="&#x6c8;" arabic-form="isolated" 
d="M376 333v126l-126 124v-124h-126l-124 -126h124v-126l126 -124v124h126l124 126h-124zM272 311l-22 -66l-22 66l-66 22l66 22l22 67l22 -67l66 -22z" />
    <glyph glyph-name="heart-half-full" unicode="&#x6c8;" arabic-form="final" 
d="M363 512q-29 0 -52.5 -15.5t-35.5 -39.5v-263q81 72 128 126.5t48 104.5q-1 37 -25.5 62t-62.5 25zM363 563q59 -2 97.5 -40.5t39.5 -97.5q-1 -69 -58.5 -136t-154.5 -153l-37 -33l-37 33q-97 86 -154.5 153t-58.5 136q1 59 40 98q38 38 97 40q33 0 62.5 -14.5
t50.5 -37.5q21 23 50.5 37.5t62.5 14.5z" />
    <glyph glyph-name="heart-half" unicode="&#x677;" arabic-form="isolated" 
d="M500 558v-602l-45 -41l-67 60q-177 157 -281.5 278.5t-106.5 246.5q2 108 73 178q69 71 176 73q90 -2 168.5 -58t82.5 -135z" />
    <glyph glyph-name="heart-half-outline" unicode="&#x6cb;" arabic-form="isolated" 
d="M90 500q2 -92 87.5 -191t232.5 -229v478q-22 45 -64 73q-44 28 -97 28q-70 0 -113.5 -45.5t-45.5 -113.5zM500 558v-602l-45 -41l-67 60q-177 157 -281.5 278.5t-106.5 246.5q2 108 73 178q69 71 176 73q90 -2 168.5 -58t82.5 -135z" />
    <glyph glyph-name="hexagon-multiple" unicode="&#x6cb;" arabic-form="final" 
d="M189 592q7 0 10 -6l58 -104l2 -6l-2 -8l-58 -102q-3 -6 -10 -7h-117q-9 1 -12 7l-58 102l-2 8l2 6l58 104q4 6 12 6h117zM189 307q7 -1 10 -7l58 -102l2 -8l-2 -6l-58 -104q-3 -6 -10 -6h-117q-9 0 -12 6l-58 104l-2 6l2 8l58 102q4 6 12 7h117zM428 449q7 0 11 -6
l59 -103l2 -7l-2 -7l-59 -103q-4 -6 -11 -6h-117q-7 0 -11 6l-58 103l-2 7l2 7l58 103q4 6 11 6h117z" />
    <glyph glyph-name="hook" unicode="&#x6c5;" arabic-form="isolated" 
d="M500 565q0 -55 -31.5 -95t-84.5 -53v-276q-1 -82 -55.5 -136t-137.5 -56q-81 2 -135 56t-56 136v193l191 -193h-115q2 -49 34 -81.5t82 -32.5t82.5 32.5t32.5 81.5v276q-51 15 -82.5 55t-33.5 95q2 65 46.5 107.5t109 42.5t108 -43.5t45.5 -108.5zM347 487q32 2 53.5 24
t21.5 54t-21.5 54t-54 22t-55 -22t-22.5 -54t22.5 -54t55.5 -24z" />
    <glyph glyph-name="hook-off" unicode="&#x6c5;" arabic-form="final" 
d="M305 393v-38l56 -55v93q45 13 68 51t10.5 83t-50.5 68t-84 11.5t-68 -50t-12 -84.5q8 -30 29.5 -50.5t50.5 -28.5zM333 556q24 -2 39.5 -17.5t15.5 -39t-15.5 -39t-39 -15.5t-40 15.5t-16.5 39t16.5 39t39.5 17.5zM465 56l-108 106q-16 -56 -63.5 -85t-104.5 -16
q-47 12 -76.5 48.5t-29.5 84.5v139l138 -139h-83q1 -36 24.5 -59t59.5 -23t59.5 23t23.5 59v20l-305 306l35 36l465 -465z" />
    <glyph glyph-name="infinity" unicode="&#x6c9;" arabic-form="isolated" 
d="M388 446q48 -2 79.5 -33.5t32.5 -79.5q-1 -48 -32.5 -79.5t-79.5 -33.5q-48 2 -80 34l-58 50l-58 -51q-16 -15 -36.5 -24t-43.5 -9q-48 2 -79.5 33.5t-32.5 79.5q1 48 32.5 79.5t79.5 33.5q48 -2 80 -34l58 -50l58 51q16 15 36.5 24t43.5 9zM162 283l57 50l-56 49
q-21 22 -51 21t-50 -20t-20 -50t20 -50t50 -20t50 20zM338 383l-57 -50l56 -49q21 -22 51 -21t50 20t20 50t-20 50t-50 20t-50 -20z" />
    <glyph glyph-name="language-swift" unicode="&#x6c9;" arabic-form="final" 
d="M378 139q-46 -25 -103.5 -26.5t-118.5 24.5q-50 21 -90 55.5t-66 77.5q25 -21 58 -34q63 -30 122 -29.5t105 29.5q-63 49 -116 107t-94 111q-15 17 -28 38q154 -119 160 -125.5t-99 149.5q95 -92 163.5 -142.5t72.5 -51.5l9 -4q4 10 6 19q14 54 0 111t-51 109
q87 -54 129.5 -138.5t22.5 -167.5q-1 -4 -1 -9q40 -57 41 -98t-7 -34q-25 42 -59 42t-56 -13z" />
    <glyph glyph-name="language-typescript" unicode="&#x6d0;" arabic-form="isolated" 
d="M0 583h500v-500h-500v500zM297 170q10 -20 31.5 -34t55.5 -14t55.5 17t21.5 48q0 29 -16 46t-46 29l-12 4q-14 7 -21.5 13t-7.5 16q1 18 21.5 19.5t31.5 -19.5l36 24q-22 39 -67 37q-31 -1 -49 -18t-18 -45t15 -43.5t41 -25.5l11 -6q15 -6 24.5 -12.5t9.5 -17.5
t-8.5 -17.5t-24.5 -6.5t-26.5 8t-18.5 20zM277 354h-138v-42h42v-202h48v202h48v42z" />
    <glyph glyph-name="laptop-off" unicode="&#x6d0;" arabic-form="final" 
d="M20 504l28 27l369 -369l-27 -27l-42 41h-348v42h83q-17 0 -29 12.5t-12 29.5v208q0 7 2 13zM83 260h183l-183 182v-182zM417 260v208h-254l-42 42h296q17 -1 29 -12.5t12 -29.5v-208q0 -17 -12 -29.5t-29 -12.5h83v-42h-46l-83 84h46z" />
    <glyph glyph-name="lightbulb-on" unicode="&#x6d0;" arabic-form="initial" 
d="M250 469q57 -1 96 -40t40 -96q0 -38 -18.5 -69t-49.5 -49v-40q0 -10 -6 -16.5t-16 -7.5h-92q-10 1 -16 7.5t-6 16.5v40q-31 18 -49.5 49t-18.5 69q1 57 40 96t96 40zM296 129v-23q-1 -9 -7.5 -15.5t-16.5 -7.5h-44q-10 1 -16.5 7.5t-7.5 15.5v23h92zM432 355h68v-44h-68
v44zM0 355h68v-44h-68v44zM272 583v-68h-44v68h44zM89 526l48 -48l-32 -32l-48 48zM363 478l48 48l32 -32l-48 -48z" />
    <glyph glyph-name="lightbulb-on-outline" unicode="&#x6d0;" arabic-form="medial" 
d="M432 355h68v-44h-68v44zM0 355h68v-44h-68v44zM272 583v-68h-44v68h44zM89 526l48 -48l-32 -32l-48 48zM363 478l48 48l32 -32l-48 -48zM250 469q57 -1 96 -40t40 -96q0 -38 -18.5 -69t-49.5 -49v-40q0 -10 -6 -16.5t-16 -7.5h-92q-10 1 -16 7.5t-6 16.5v40
q-31 18 -49.5 49t-18.5 69q1 57 40 96t96 40zM296 129v-23q-1 -9 -7.5 -15.5t-16.5 -7.5h-44q-10 1 -16.5 7.5t-7.5 15.5v23h92zM228 197h44v48q31 8 49.5 32t18.5 56q-1 38 -26.5 63.5t-63.5 25.5t-63.5 -25.5t-26.5 -63.5q0 -32 18.5 -56t49.5 -32v-48z" />
    <glyph glyph-name="lock-pattern" unicode="&#x649;" arabic-form="initial" 
d="M111 583q48 -1 79.5 -32.5t32.5 -78.5q-1 -41 -24 -69.5t-59 -38.5v-63q15 -4 28 -11l125 125q-14 26 -15 57q1 47 32.5 78.5t79 31.5t79 -31.5t31.5 -79t-31.5 -79t-78.5 -32.5q-31 1 -56 15l-126 -126q14 -25 15 -56q-1 -47 -32.5 -78.5t-79 -31.5t-79 31.5t-32.5 78.5
q1 40 24 68.5t60 39.5v63q-37 10 -60 38.5t-24 69.5q1 47 32.5 78.5t78.5 32.5zM390 305q47 -1 78.5 -32.5t31.5 -79t-31.5 -79t-79 -31.5t-79 31.5t-31.5 79t31.5 79t79.5 32.5zM390 249q-23 0 -39.5 -16.5t-16.5 -40t16.5 -39t40 -15.5t39 15.5t15.5 39t-15.5 40
t-39.5 16.5z" />
    <glyph glyph-name="loop" unicode="&#x649;" arabic-form="medial" 
d="M175 295v-175h-175v50h89q-31 32 -47.5 73.5t-16.5 89.5q2 102 69.5 168.5t168.5 69.5q101 -3 168 -70t69 -168q-2 -101 -69 -168t-168 -70h-13v50h13q80 2 132.5 55t55.5 133q-3 80 -55.5 133t-132.5 54q-80 -1 -133.5 -54.5t-54.5 -132.5q0 -37 13 -69.5t36 -57.5v89
h51z" />
    <glyph glyph-name="magnify-minus-outline" unicode="&#xfbea;" arabic-form="isolated" 
d="M357 268h-22l-8 8q21 24 32.5 55t11.5 66q-1 79 -53.5 132t-131.5 54q-79 -1 -132 -54t-54 -132q1 -79 54 -131.5t132 -53.5q35 0 66 11.5t55 32.5l8 -8v-22l142 -143l43 43zM186 268q-55 2 -91 38t-36 91t36 91t91 36t91 -36t36 -91t-36 -91t-91 -38zM114 412h143v-29
h-143v29z" />
    <glyph glyph-name="magnify-plus-outline" unicode="&#xfbeb;" arabic-form="final" 
d="M357 268l143 -142l-43 -43l-142 143v22l-8 8q-24 -21 -55 -32.5t-66 -11.5q-79 1 -132 53.5t-54 131.5q1 79 54 132t132 54q79 -1 131.5 -54t53.5 -132q0 -35 -11.5 -66t-32.5 -55l8 -8h22zM186 268q55 2 91 38t36 91t-36 91t-91 36t-91 -36t-36 -91t36 -91t91 -38z
M257 383h-57v-57h-29v57h-57v29h57v57h29v-57h57v-29z" />
    <glyph glyph-name="mailbox" unicode="&#xfbec;" arabic-form="isolated" 
d="M451 458h-251v-150h-50v200h150v100h-200v-150h-51q-21 0 -35 -14.5t-14 -35.5v-301q0 -21 14 -35t35 -14h402q21 0 35 14t14 35v301q0 21 -14 35.5t-35 14.5z" />
    <glyph glyph-name="medical-bag" unicode="&#xfbed;" arabic-form="final" 
d="M200 558l-50 -50v-50h-75q-22 -1 -35 -15.5t-15 -34.5l-25 -250q-2 -19 10.5 -34t39.5 -16h400q27 1 39.5 16t10.5 34l-25 250q-2 20 -15.5 34.5t-34.5 15.5h-75v50l-50 50h-100zM200 508h100v-50h-100v50zM225 383h50v-75h75v-50h-75v-75h-50v75h-75v50h75v75z" />
    <glyph glyph-name="message-settings" unicode="&#xfbee;" arabic-form="isolated" 
d="M451 608h-402q-21 0 -35 -14t-14 -35v-451l100 100h351q21 0 35 14.5t14 35.5v301q0 21 -14 35t-35 14zM225 58h50v50h-50v-50zM124 58h51v50h-51v-50zM325 58h51v50h-51v-50z" />
    <glyph glyph-name="message-settings-variant" unicode="&#xfbef;" arabic-form="final" 
d="M287 383q0 -16 -10.5 -26.5t-26.5 -10.5t-26.5 10.5t-10.5 26.5t10.5 26.5t26.5 10.5t26.5 -10.5t10.5 -26.5zM500 534v-301q0 -21 -14 -35.5t-35 -14.5h-351l-100 -100v451q0 21 14 35t35 14h402q21 0 35 -14t14 -35zM370 350l-27 21q0 6 0.5 12t-0.5 13l27 21q3 3 1 7
l-26 44q-2 5 -7 3l-32 -12q-9 7 -21 12l-4 32q-2 5 -6 5h-50q-6 0 -7 -5l-5 -32q-10 -5 -21 -12l-31 12q-5 2 -7 -3l-25 -44q-2 -4 1 -7l26 -21q-1 -12 0 -25l-26 -21q-3 -3 -1 -7l25 -44q2 -5 7 -4l31 13q10 -8 21 -13l5 -32q1 -5 7 -5h50q6 0 7 5l5 33q10 5 21 12l30 -13
q6 -1 8 4l25 44q2 4 -1 7z" />
    <glyph glyph-name="minus-box-outline" unicode="&#xfbf0;" arabic-form="isolated" 
d="M444 139v388h-388v-388h388zM444 583q23 0 39.5 -16.5t16.5 -39.5v-388q0 -23 -16.5 -39.5t-39.5 -16.5h-388q-23 0 -39.5 16.5t-16.5 39.5v388q0 25 16.5 40.5t39.5 15.5h388zM389 360v-54h-278v54h278z" />
    <glyph glyph-name="network" unicode="&#xfbf1;" arabic-form="final" 
d="M376 584q21 0 35 -15t14 -36v-250q0 -21 -14 -35t-35 -15h-101v-50h25q11 -1 18 -8t7 -17h175v-50h-175q0 -11 -7 -17.5t-18 -8.5h-100q-11 2 -18 8.5t-7 17.5h-175v50h175q0 10 7 17t18 8h25v50h-101q-21 1 -35 15t-14 35v250q0 21 14 36t35 15h252z" />
    <glyph glyph-name="download-network" unicode="&#xfbf2;" arabic-form="isolated" 
d="M376 584q21 0 35 -15t14 -36v-250q0 -21 -14 -35t-35 -15h-101v-50h25q11 -1 18 -8t7 -17h175v-50h-175q0 -11 -7 -17.5t-18 -8.5h-100q-11 2 -18 8.5t-7 17.5h-175v50h175q0 10 7 17t18 8h25v50h-101q-21 1 -35 15t-14 35v250q0 21 14 36t35 15h252zM250 296l113 113
h-88v99h-50v-99h-88z" />
    <glyph glyph-name="help-network" unicode="&#xfbf3;" arabic-form="final" 
d="M376 584q21 0 35 -15t14 -36v-250q0 -21 -14 -35t-35 -15h-101v-50h25q11 -1 18 -8t7 -17h175v-50h-175q0 -11 -7 -17.5t-18 -8.5h-100q-11 2 -18 8.5t-7 17.5h-175v50h175q0 10 7 17t18 8h25v50h-101q-21 1 -35 15t-14 35v250q0 21 14 36t35 15h252zM255 533
q-33 0 -53 -14.5t-19 -44.5v-1h48q0 12 7 17.5t17.5 5.5t18 -6.5t7.5 -18.5t-6 -20.5t-15 -14.5q-20 -13 -27.5 -23t-7.5 -30h50q0 12 3.5 19t12.5 13q16 9 28 23q11 13 11 33q0 28 -20 45t-55 17zM225 358v-50h50v50h-50z" />
    <glyph glyph-name="upload-network" unicode="&#xfbf4;" arabic-form="isolated" 
d="M376 584q21 0 35 -15t14 -36v-250q0 -21 -14 -35t-35 -15h-101v-50h25q11 -1 18 -8t7 -17h175v-50h-175q0 -11 -7 -17.5t-18 -8.5h-100q-11 2 -18 8.5t-7 17.5h-175v50h175q0 10 7 17t18 8h25v50h-101q-21 1 -35 15t-14 35v250q0 21 14 36t35 15h252zM250 521l-113 -112
h88v-101h50v101h88z" />
    <glyph glyph-name="npm" unicode="&#xfbf5;" arabic-form="final" 
d="M27 403v-112h56v83h28v-83h28v112h-112zM167 403v-140h56v28h54v112h-110zM250 374v-55h-27v55h27zM306 403v-112h55v83h28v-83h28v83h27v-83h29v112h-167zM0 430h500v-167h-250v-27h-111v27h-139v167z" />
    <glyph glyph-name="nut" unicode="&#xfbf6;" arabic-form="isolated" 
d="M500 208q-1 -16 -14 -25l-221 -122q-6 -5 -15 -5t-15 5l-221 122q-13 8 -14 25v250q1 16 14 25l221 122q6 5 15 5t15 -5l221 -122q13 -8 14 -25v-250zM250 472q-59 -1 -98.5 -40.5t-40.5 -98.5q1 -59 40.5 -98.5t98.5 -40.5q59 1 98.5 40.5t40.5 98.5q-1 59 -40.5 98.5
t-98.5 40.5z" />
    <glyph glyph-name="octagram" unicode="&#xfbf7;" arabic-form="final" 
d="M0 229l43 104l-43 104l104 42l42 104l104 -43l104 43l42 -104l104 -42l-43 -104l43 -104l-104 -42l-42 -104l-104 43l-104 -43l-42 104z" />
    <glyph glyph-name="page-layout-body" unicode="&#xfbf8;" arabic-form="initial" 
d="M63 644h374q26 0 44 -17.5t19 -43.5v-500q-1 -26 -19 -43.5t-44 -17.5h-374q-26 0 -44 17.5t-19 43.5v500q1 26 19 43.5t44 17.5zM63 457v-248h374v248h-374z" />
    <glyph glyph-name="page-layout-footer" unicode="&#xfbf9;" arabic-form="isolated" 
d="M63 644h374q26 0 44 -17.5t19 -43.5v-500q-1 -26 -19 -43.5t-44 -17.5h-374q-26 0 -44 17.5t-19 43.5v500q1 26 19 43.5t44 17.5zM63 209v-126h374v126h-374z" />
    <glyph glyph-name="page-layout-header" unicode="&#xfbfa;" arabic-form="final" 
d="M63 644h374q26 0 44 -17.5t19 -43.5v-500q-1 -26 -19 -43.5t-44 -17.5h-374q-26 0 -44 17.5t-19 43.5v500q1 26 19 43.5t44 17.5zM63 583v-126h374v126h-374z" />
    <glyph glyph-name="page-layout-sidebar-left" unicode="&#xfbfb;" arabic-form="initial" 
d="M63 644h374q26 0 44 -17.5t19 -43.5v-500q-1 -26 -19 -43.5t-44 -17.5h-374q-26 0 -44 17.5t-19 43.5v500q1 26 19 43.5t44 17.5zM63 457v-248h124v248h-124z" />
    <glyph glyph-name="page-layout-sidebar-right" unicode="&#x6cc;" arabic-form="isolated" 
d="M63 644h374q26 0 44 -17.5t19 -43.5v-500q-1 -26 -19 -43.5t-44 -17.5h-374q-26 0 -44 17.5t-19 43.5v500q1 26 19 43.5t44 17.5zM313 457v-248h124v248h-124z" />
    <glyph glyph-name="pencil-circle" unicode="&#x6cc;" arabic-form="final" 
d="M250 583q-107 -2 -177.5 -72.5t-72.5 -177.5q2 -107 72.5 -177.5t177.5 -72.5q107 2 177.5 72.5t72.5 177.5q-2 107 -72.5 177.5t-177.5 72.5zM328 456q6 0 10 -3l32 -32q8 -11 0 -20l-26 -25l-51 51l25 26q4 3 10 3zM278 413l52 -52l-152 -151h-51v51z" />
    <glyph glyph-name="pentagon" unicode="&#x6cc;" arabic-form="initial" 
d="M250 571l-250 -183l95 -293h310l95 293z" />
    <glyph glyph-name="pentagon-outline" unicode="&#x6cc;" arabic-form="medial" 
d="M250 508l190 -137l-73 -224h-234l-73 224zM250 571l-250 -183l95 -293h308l97 293z" />
    <glyph glyph-name="pillar" unicode="&#xfc00;" arabic-form="isolated" 
d="M83 527h334q12 0 19.5 -7.5t7.5 -19.5t-7.5 -20t-19.5 -8h-334q-12 0 -19.5 8t-7.5 20t7.5 19.5t19.5 7.5zM500 610v-54h-500v54h500zM333 444h56v-388h-56v388zM111 444h56v-388h-56v388zM223 444h54v-388h-54v388z" />
    <glyph glyph-name="pistol" unicode="&#xfc01;" arabic-form="isolated" 
d="M138 491h362v-90h-23v-22h-136q-10 -1 -16 -7.5t-6 -15.5v-23q0 -19 -13.5 -31.5t-32.5 -13.5h-76q-13 0 -20 -13l-55 -110q-6 -12 -20 -13h-76q-8 -4 -23 17t45 119q8 6 23 45t-45 46v112h22l11 23h68zM297 333v23q-1 9 -7.5 15.5t-16.5 7.5h-22q-2 -1 -8 -14.5t8 -31.5
q-19 0 -31.5 13.5t-13.5 32.5q-10 -1 -16 -7.5t-6 -15.5v-23q0 -9 6 -15.5t16 -6.5h67q10 0 16.5 6.5t7.5 15.5z" />
    <glyph glyph-name="plus-box-outline" unicode="&#xfc02;" arabic-form="isolated" 
d="M444 139v388h-388v-388h388zM444 583q23 0 39.5 -16.5t16.5 -39.5v-388q0 -23 -16.5 -39.5t-39.5 -16.5h-388q-23 0 -39.5 16.5t-16.5 39.5v388q0 25 16.5 40.5t39.5 15.5h388zM223 472h54v-112h112v-54h-112v-112h-54v112h-112v54h112v112z" />
    <glyph glyph-name="plus-outline" unicode="&#xfc03;" arabic-form="isolated" 
d="M0 427h156v156h188v-156h156v-188h-156v-156h-188v156h-156v188zM219 302v-156h62v156h156v62h-156v156h-62v-156h-156v-62h156z" />
    <glyph glyph-name="prescription" unicode="&#xfc04;" arabic-form="isolated" 
d="M0 592v-317h64v128h63l171 -172l-113 -112l45 -45l112 113l114 -113l44 45l-114 112l114 114l-44 44l-114 -114l-126 128h6q40 0 66.5 26.5t26.5 67.5t-26.5 67.5t-66.5 27.5h-222zM64 528h158q14 0 22.5 -8.5t8.5 -22t-8.5 -22.5t-22.5 -10h-158v63z" />
    <glyph glyph-name="printer-settings" unicode="&#xfc05;" arabic-form="isolated" 
d="M400 608v-100h-300v100h300zM425 383q11 1 18 8t7 18t-7 17.5t-18 6.5t-18 -6.5t-7 -17.5t7 -18t18 -8zM350 208v126h-200v-126h200zM425 484q33 -1 54 -22t21 -53v-151h-100v-100h-300v100h-100v151q0 32 21 53t54 22h350zM325 58v50h51v-50h-51zM225 58v50h50v-50h-50z
M124 58v50h51v-50h-51z" />
    <glyph glyph-name="react" unicode="&#xfc06;" arabic-form="isolated" 
d="M250 376q18 0 30.5 -12.5t12.5 -30.5t-12.5 -30.5t-30.5 -12.5t-30.5 12.5t-12.5 30.5t12.5 30.5t30.5 12.5zM142 146q12 -7 33.5 3.5t50.5 36.5q-19 21 -35 44q-29 3 -56 9q-9 -38 -6.5 -62t13.5 -31zM158 280l-6 13q-5 -12 -7 -21l21 -3zM311 298l19 35l-19 35
q-11 19 -22 34q-18 1 -39 1t-39 -1q-11 -15 -22 -34l-19 -35l19 -35q11 -19 22 -34q18 -1 39 -1t39 1q11 15 22 34zM250 454q-7 -8 -14 -17h28q-7 9 -14 17zM250 211q7 8 14 17h-28q7 -9 14 -17zM358 520q-12 6 -33.5 -4t-50.5 -37q19 -20 35 -43q29 -4 56 -9q9 38 6.5 62
t-13.5 31zM342 385l6 -12q5 11 7 21l-21 3zM376 550q25 -15 29 -50.5t-6 -80.5q45 -14 73 -35.5t28 -51t-28 -50.5t-73 -35q11 -45 6.5 -80.5t-30 -50t-58.5 -1t-67 45.5q-34 -33 -67 -46t-58.5 1.5t-29.5 50t6 80.5q-45 14 -73 35t-28 50.5t28 51t73 35.5q-11 45 -6.5 80.5
t30 49.5t58.5 1t67 -45q34 33 67 45.5t59 -0.5zM368 333q12 -26 21 -53q37 11 56.5 25.5t19.5 27.5t-19.5 27t-56.5 25q-9 -26 -21 -52zM132 333q-12 26 -21 52q-37 -11 -56.5 -25t-19.5 -27t19.5 -27.5t56.5 -25.5q9 27 21 53zM342 280l-8 -11l21 3q-2 10 -7 21zM274 186
q29 -26 50.5 -36.5t33 -3.5t14 31t-6.5 62q-27 -6 -56 -9q-16 -23 -35 -44zM158 385l8 12l-21 -3q2 -10 7 -21zM226 479q-29 27 -50.5 37t-33 3.5t-14 -30.5t6.5 -62q27 5 56 9q16 23 35 43z" />
    <glyph glyph-name="restart" unicode="&#xfc07;" arabic-form="isolated" 
d="M251 532q48 0 93.5 -18.5t81.5 -55.5q74 -78 74 -177.5t-74 -175.5q-44 -44 -99 -61.5t-112 -10.5l18 62q40 -5 79.5 9t70.5 45q55 57 55 132t-55 134q-28 28 -62.5 41t-69.5 13v-144l-156 156l156 154v-103zM73 104q-61 64 -71 147t33 158l45 -47q-25 -53 -15 -111
t52 -102q25 -25 55 -38l-15 -62q-47 19 -84 55z" />
    <glyph glyph-name="rewind-outline" unicode="&#xfc08;" arabic-form="isolated" 
d="M185 393l-86 -60l86 -60v120zM442 393l-85 -60l85 -60v120zM243 504v-342l-243 171zM500 504v-342l-243 171z" />
    <glyph glyph-name="rhombus" unicode="&#xfc09;" arabic-form="isolated" 
d="M489 364l-207 207q-14 13 -30.5 13t-31.5 -13l-207 -207q-13 -14 -13 -30.5t13 -31.5l207 -207q14 -13 30.5 -13t31.5 13l207 207q11 14 11 31t-11 31z" />
    <glyph glyph-name="rhombus-outline" unicode="&#xfc0a;" arabic-form="isolated" 
d="M489 364l-207 207q-14 13 -30.5 13t-31.5 -13l-207 -207q-13 -14 -13 -30.5t13 -31.5l207 -207q14 -13 30.5 -13t31.5 13l207 207q11 14 11 31t-11 31zM459 333l-208 -208l-208 208l208 208z" />
    <glyph glyph-name="roomba" unicode="&#xfc0b;" arabic-form="isolated" 
d="M250 583q50 0 95.5 -18.5t81.5 -54.5l-35 -35q-30 28 -66 43.5t-76 15.5t-76.5 -15.5t-65.5 -43.5l-35 35q36 36 81.5 54.5t95.5 18.5zM41 471l37 -36q-28 -47 -29 -102q3 -86 59 -142t142 -59q86 3 142 59t59 142q-1 55 -29 102l37 36q41 -63 41 -138
q-2 -107 -72.5 -177.5t-177.5 -72.5q-107 2 -177.5 72.5t-72.5 177.5q0 75 41 138zM250 483q63 -1 106 -44t44 -106q0 -31 -11 -58t-33 -48l-36 36q-29 -30 -70 -30t-70 30l-36 -36q-22 21 -33 48t-11 58q1 63 44 106t106 44zM250 433q-11 0 -18 -7t-7 -18t7 -18t18 -7t18 7
t7 18t-7 18t-18 7z" />
    <glyph glyph-name="run" unicode="&#xfc0c;" arabic-form="isolated" 
d="M329 543q26 0 44 18.5t18 45t-17.5 43.5t-44 17t-44 -17t-17.5 -43.5t17.5 -45t43.5 -18.5zM217 112l31 136l65 -63v-186h63v233l-66 62l19 94q31 -35 75.5 -56t95.5 -21v61q-46 1 -79.5 21.5t-54.5 54.5l-31 49q-19 29 -52 31q-8 0 -12.5 -1.5t-12.5 -1.5l-162 -69v-145
h63v106l55 22l-49 -254l-153 32l-12 -62z" />
    <glyph glyph-name="search-web" unicode="&#xfc0d;" arabic-form="isolated" 
d="M357 268l143 -142l-43 -43l-142 143v22l-8 8q-24 -21 -55 -32.5t-66 -11.5q-79 1 -132 53.5t-54 131.5q1 79 54 132t132 54q79 -1 131.5 -54t53.5 -132q0 -35 -11.5 -66t-32.5 -55l8 -8h22zM186 540l-16 -1q-5 -11 -11.5 -29t-13.5 -41h81q-5 23 -12.5 41t-12.5 29
q-7 1 -15 1zM309 469q-26 45 -76 63q11 -22 23 -63h53zM62 469h55q11 41 21 63q-50 -18 -76 -63zM43 397q0 -21 6 -43h62l-4 43l4 43h-62q-6 -20 -6 -43zM322 354q7 21 7 43.5t-7 42.5h-61q3 -22 3 -43.5t-3 -42.5h61zM139 440l-4 -43l4 -43h93q4 21 4 42.5t-4 43.5h-93z
M186 254h15q5 13 12.5 31t12.5 41h-81q7 -23 13.5 -41t11.5 -31h16zM309 326h-53q-13 -41 -23 -63q50 18 76 63zM62 326q26 -45 76 -63q-11 22 -21 63h-55z" />
    <glyph glyph-name="shovel" unicode="&#xfc0e;" arabic-form="isolated" 
d="M322 582l-70 -70q-15 -15 -15 -35t15 -36l35 -34l-113 -115l-70 72l-37 -36q-83 -94 -63 -152.5t29 -59.5q1 -9 59 -28.5t153 64.5l35 35l-70 70l113 112l35 -34q15 -15 35 -15t36 15l71 70zM393 371l-35 34l-71 72l36 35l106 -105z" />
    <glyph glyph-name="shovel-off" unicode="&#xfc0f;" arabic-form="isolated" 
d="M322 582l-70 -70q-15 -15 -15 -35t15 -36l35 -36l-17 -17l36 -37l19 19l33 -35q15 -15 35.5 -15t36.5 15l70 72zM393 371l-106 106l35 35l107 -105zM462 122l-34 -35l-196 194l-24 -24l70 -70l-33 -35q-95 -84 -153 -64.5t-59 28.5q-9 1 -29 59.5t63 152.5l37 35l70 -71
l24 25l-194 194l35 34z" />
    <glyph glyph-name="signal-2g" unicode="&#xfc10;" arabic-form="isolated" 
d="M225 145h-225v150q0 32 21 53.5t54 22.5h75v74h-150v76h150q32 -1 53 -22q21 -22 22 -54v-74q-1 -32 -22 -53.5t-53 -22.5h-75v-74h150v-76zM500 371h-112v-76h37v-74h-75v224h150v76h-150q-32 -1 -53 -22q-21 -22 -22 -54v-224q1 -32 22 -53.5t53 -22.5h75q33 1 54 22
q21 22 21 54v150z" />
    <glyph glyph-name="signal-3g" unicode="&#xfc11;" arabic-form="isolated" 
d="M225 221v56q-1 24 -17 40t-39 16q23 1 39 17t17 39v56q-1 32 -22 53.5t-53 22.5h-150v-76h150v-74h-75v-76h75v-74h-150v-76h150q32 1 53 22.5t22 53.5zM500 221v150h-112v-76h37v-74h-75v224h150v76h-150q-32 -1 -53 -22q-21 -22 -22 -54v-224q1 -32 22 -53.5t53 -22.5
h75q33 1 54 22.5t21 53.5z" />
    <glyph glyph-name="signal-4g" unicode="&#xfc12;" arabic-form="isolated" 
d="M500 221v150h-112v-76h37v-74h-75v224h150v76h-150q-32 -1 -53 -22q-21 -22 -22 -54v-224q1 -32 22 -53.5t53 -22.5h75q33 1 54 22.5t21 53.5zM150 145h75v376h-75v-150h-75v150h-75v-226h150v-150z" />
    <glyph glyph-name="signal-hspa" unicode="&#xfc13;" arabic-form="isolated" 
d="M168 417h164v332h168v-832h-168v332h-164v-332h-168v832h168v-332z" />
    <glyph glyph-name="signal-hspa-plus" unicode="&#xfc14;" arabic-form="isolated" 
d="M425 433v-75h75v-75h-75v-76h-75v76h-75v75h75v75h75zM75 371h75v150h75v-376h-75v150h-75v-150h-75v376h75v-150z" />
    <glyph glyph-name="snowflake" unicode="&#xfc15;" arabic-form="isolated" 
d="M486 280l-63 -16l-54 30v78l54 30l63 -16l14 51l-48 13l13 48l-53 13l-16 -62l-53 -30l-67 38v61l46 45l-37 38l-36 -34l-35 34l-37 -38l46 -45v-61l-68 -38l-53 30l-16 62l-52 -13l13 -48l-47 -13l14 -51l61 16l55 -30v-78l-55 -30l-61 16l-14 -51l47 -13l-13 -48
l53 -13l16 62l53 30l67 -38v-61l-46 -45l37 -38l35 34l36 -34l37 38l-46 45v61l67 38l54 -30l17 -61l51 12l-13 48l47 13zM182 372l67 39l67 -39v-78l-67 -39l-67 39v78z" />
    <glyph glyph-name="source-commit" unicode="&#xfc16;" arabic-form="isolated" 
d="M500 333q-2 -91 -57.5 -158t-144.5 -88v-205h-98v205q-89 21 -144.5 88t-55.5 158t55.5 158t144.5 88v205h98v-205q89 -21 144.5 -88t57.5 -158zM249 483q-64 -2 -106 -44t-42 -106t42 -106t105.5 -42t106 42t42.5 106t-42.5 106t-105.5 44z" />
    <glyph glyph-name="source-commit-end" unicode="&#xfc17;" arabic-form="isolated" 
d="M500 234q-2 -106 -73.5 -177t-176.5 -73q-105 2 -176.5 73t-73.5 177q2 91 57 157t144 88v203h98v-203q89 -22 144 -88t57 -157zM250 383q-63 -2 -105 -44t-42 -105.5t42 -105t105 -41.5t105 41.5t42 105t-42 105.5t-105 44z" />
    <glyph glyph-name="source-commit-end-local" unicode="&#xfc18;" arabic-form="isolated" 
d="M250 484q105 -3 176.5 -74t73.5 -176q-2 -106 -73.5 -177t-176.5 -73q-105 2 -176.5 73t-73.5 177q2 105 73.5 176t176.5 74zM250 383q-63 -2 -105 -44t-42 -105.5t42 -105t105 -41.5t105 41.5t42 105t-42 105.5t-105 44zM201 582v100h98v-100h-98z" />
    <glyph glyph-name="source-commit-local" unicode="&#xfc19;" arabic-form="isolated" 
d="M250 583q105 -2 176.5 -73.5t73.5 -176.5q-2 -105 -73.5 -176.5t-176.5 -73.5q-105 2 -176.5 73.5t-73.5 176.5q2 105 73.5 176.5t176.5 73.5zM250 483q-63 -3 -105 -45t-42 -105t42 -105t105 -42t105 42t42 105t-42 105t-105 45zM201 681v101h98v-101h-98zM201 -116v101
h98v-101h-98z" />
    <glyph glyph-name="source-commit-next-local" unicode="&#xfc1a;" arabic-form="isolated" 
d="M500 333q-2 -105 -73.5 -176.5t-176.5 -73.5q-105 2 -176.5 73.5t-73.5 176.5q2 91 57 157.5t144 87.5v204h98v-204q89 -21 144 -87.5t57 -157.5zM250 483q-63 -3 -105 -45t-42 -105t42 -105t105 -42t105 42t42 105t-42 105t-105 45zM201 -116v101h98v-101h-98z" />
    <glyph glyph-name="source-commit-start" unicode="&#xfc1b;" arabic-form="isolated" 
d="M250 682q105 -2 176.5 -73t73.5 -177q-2 -91 -57 -157t-144 -88v-203h-98v203q-89 22 -144 88t-57 157q2 106 73.5 177t176.5 73zM250 582q-63 -3 -105 -44.5t-42 -105t42 -105.5t105 -42t105 42t42 105.5t-42 105t-105 44.5z" />
    <glyph glyph-name="source-commit-start-next-local" unicode="&#xfc1c;" arabic-form="isolated" 
d="M250 682q105 -2 176.5 -73t73.5 -177q-2 -105 -73.5 -176t-176.5 -74q-105 3 -176.5 74t-73.5 176q2 106 73.5 177t176.5 73zM250 582q-63 -3 -105 -44.5t-42 -105t42 -105.5t105 -42t105 42t42 105.5t-42 105t-105 44.5zM201 -16v100h98v-100h-98z" />
    <glyph glyph-name="speaker-wireless" unicode="&#xfc1d;" arabic-form="isolated" 
d="M431 164l-34 34q27 27 41.5 61t14.5 74t-14.5 74t-41.5 61l34 34q32 -33 50.5 -76.5t18.5 -92.5t-18.5 -92.5t-50.5 -76.5zM364 232l-34 34q27 27 27 67t-27 67l34 34q19 -19 30 -45t11 -56t-11 -56t-30 -45zM47 548h191q20 0 33.5 -14t14.5 -34v-334q-1 -20 -14.5 -34
t-33.5 -14h-191q-20 0 -33.5 14t-13.5 34v334q0 20 13.5 34t33.5 14zM143 500q-20 0 -34 -13.5t-14 -33.5t14 -34t34 -14t33.5 14t13.5 34t-13.5 33.5t-33.5 13.5zM143 356q-41 -1 -68 -27.5t-27 -67t27 -67.5t67.5 -27t67.5 27t27 67.5t-27 67t-67 27.5zM143 310
q20 -2 33.5 -15.5t13.5 -33.5t-13.5 -33.5t-33.5 -13.5t-34 13.5t-14 33.5t14 33.5t34 15.5z" />
    <glyph glyph-name="stadium" unicode="&#xfc1e;" arabic-form="isolated" 
d="M75 558h49l76 -50l-76 -49v-35q57 9 126 9t126 -9v134h49l75 -50l-75 -49v-44q35 -8 55 -20q20 -11 20 -24q-2 -27 -73 -45t-177 -18t-177 18t-73 45q0 12 20 24t55 20v143zM250 396q-62 1 -94 -4.5t-32 -21t32 -20.5t94 -5t94 5t32 20.5t-32 21t-94 4.5zM250 264
q72 1 133 12t103 31l-35 -199h-126v50q0 21 -14.5 35t-35.5 14h-50q-21 0 -35.5 -14t-14.5 -35v-50h-126l-35 199q42 -20 103 -31t133 -12z" />
    <glyph glyph-name="svg" unicode="&#xfc1f;" arabic-form="isolated" 
d="M78 366h93l-65 66q-20 0 -33 13.5t-13 32.5t13 32t32 13t32.5 -13t13.5 -33l66 -65v93q-13 14 -13 32.5t13.5 32t32.5 13.5t32.5 -13.5t13.5 -31.5t-13 -33v-93l66 65q1 20 14 33t32 13t32 -13t13 -32t-13 -32.5t-33 -13.5l-65 -66h93q14 13 32.5 13t32 -13.5t13.5 -32.5
t-13.5 -32.5t-31.5 -13.5t-33 13h-93l65 -66q20 -1 33 -14t13 -32t-13 -32t-32 -13t-32 13t-14 33l-66 65v-93q13 -14 13 -32.5t-13.5 -32t-32.5 -13.5t-32.5 13.5t-13.5 31.5t13 33v93l-66 -65q0 -20 -13.5 -33t-32.5 -13t-32 13t-13 32t13 32t33 14l65 66h-93
q-14 -13 -32.5 -13t-32 13.5t-13.5 32.5t13.5 32.5t32 13.5t32.5 -13z" />
    <glyph glyph-name="tag-plus" unicode="&#xfc20;" arabic-form="isolated" 
d="M486 344l-225 225q-15 14 -36 14h-176q-21 0 -35 -14t-14 -35v-176q0 -20 14 -36l11 -9q34 20 75 20q63 -1 106 -44t44 -106q0 -40 -20 -75l9 -11q15 -14 36 -14t35 14l176 176q14 14 14 35t-14 36zM87 459q-15 0 -26 10.5t-11 26t11 26.5t26.5 11t26 -11t10.5 -26.5
t-10.5 -26t-26.5 -10.5zM200 158h-76v-75h-49v75h-75v49h75v76h49v-76h76v-49z" />
    <glyph glyph-name="tag-remove" unicode="&#xfc21;" arabic-form="isolated" 
d="M486 344l-225 225q-15 14 -36 14h-176q-21 0 -35 -14t-14 -35v-176q0 -20 14 -36l11 -9q34 20 75 20q63 -1 106 -44t44 -106q0 -40 -20 -75l9 -11q15 -14 36 -14t35 14l176 176q14 14 14 35t-14 36zM87 459q-15 0 -26 10.5t-11 26t11 26.5t26.5 11t26 -11t10.5 -26.5
t-10.5 -26t-26.5 -10.5zM153 94l-53 53l-53 -53l-36 36l53 53l-53 53l36 34l53 -52l53 52l35 -34l-53 -53l53 -53z" />
    <glyph glyph-name="ticket-percent" unicode="&#xfc22;" arabic-form="isolated" 
d="M49 534q-21 -1 -35 -15.5t-14 -35.5v-100q21 -1 35 -15t14 -35t-14 -35t-35 -15v-100q0 -21 14 -35.5t35 -15.5h402q21 1 35 15.5t14 35.5v100q-21 1 -35 15t-14 35t14 35t35 15v100q0 21 -14 35.5t-35 15.5h-402zM338 459l38 -38l-214 -214l-38 38zM170 457
q19 -1 31 -13t12 -31t-12 -31t-31 -12t-31 12t-12 31t12 31t31 13zM330 298q19 -2 31 -14t12 -31t-12 -31t-31 -12t-31 12t-12 31t12 31t31 14z" />
    <glyph glyph-name="tilde" unicode="&#xfc23;" arabic-form="isolated" 
d="M1 258q-5 10 18.5 75t131.5 75q70 -6 103 -44t83 -44q72 6 87.5 44t12.5 44h62q5 -10 -18.5 -75t-131.5 -75q-72 6 -112 44t-74 44q-72 -6 -87.5 -44t-12.5 -44h-62z" />
    <glyph glyph-name="treasure-chest" unicode="&#xfc24;" arabic-form="isolated" 
d="M75 534h350q33 -1 54 -22.5t21 -52.5v-101h-175v25h-150v-25h-175v101q0 31 21 52.5t54 22.5zM225 358h50v-50h-50v50zM0 333h175v-25l50 -50h50l50 50v25h175v-201h-500v201z" />
    <glyph glyph-name="truck-trailer" unicode="&#xfc25;" arabic-form="isolated" 
d="M500 257v-50h-300q0 -32 -21.5 -53t-53.5 -21t-53.5 21t-22.5 53h-49v276q0 21 14 35t35 15h327q21 -1 35 -15t14 -35v-226h75zM124 233q-10 -2 -17 -8.5t-7 -17.5t7 -18t17.5 -7t17.5 7t7 18t-7 17.5t-18 8.5z" />
    <glyph glyph-name="view-parallel" unicode="&#xfc26;" arabic-form="isolated" 
d="M0 52v562h126v-562h-126zM187 52v562h126v-562h-126zM374 52v562h126v-562h-126z" />
    <glyph glyph-name="view-sequential" unicode="&#xfc27;" arabic-form="isolated" 
d="M0 556h500v-112h-500v112zM0 389h500v-112h-500v112zM0 222h500v-112h-500v112z" />
    <glyph glyph-name="washing-machine" unicode="&#xfc28;" arabic-form="isolated" 
d="M338 359q36 -39 36 -88.5t-37.5 -87t-86.5 -37.5t-88 37zM63 644h374q26 0 44 -17.5t19 -43.5v-500q-1 -26 -19 -43.5t-44 -17.5h-374q-26 0 -44 17.5t-19 43.5v500q1 26 19 43.5t44 17.5zM94 583q-14 -1 -22.5 -10t-8.5 -22.5t8.5 -22t22 -8.5t22 8.5t8.5 22t-8.5 22.5
t-21.5 10zM187 583q-13 -1 -22 -10t-9 -22.5t9 -22t22.5 -8.5t22 8.5t8.5 22t-8.5 22.5t-22.5 10zM250 457q-79 -1 -132.5 -54t-54.5 -133q1 -78 54.5 -131t132.5 -56q79 3 132.5 56t54.5 131q-1 80 -54.5 133t-132.5 54z" />
    <glyph glyph-name="webpack" unicode="&#xfc29;" arabic-form="isolated" 
d="M500 208q-1 -16 -14 -25l-221 -122q-6 -5 -15 -5t-15 5l-221 122q-13 8 -14 25v250q1 16 14 25l221 122q6 5 15 5t15 -5l221 -122q13 -8 14 -25v-250zM250 550l-194 -109v-216l194 -109l194 109v216zM250 493l137 -78l-137 -79l-137 79zM389 252l-112 -64v100l112 64
v-100zM223 188l-112 64v100l112 -64v-100z" />
    <glyph glyph-name="widgets" unicode="&#xfc2a;" arabic-form="isolated" 
d="M0 549h207v-113l146 147l147 -147l-147 -146h113v-207h-208v207h95l-146 146v-95h-207v208zM0 290h207v-207h-207v207z" />
    <glyph glyph-name="wiiu" unicode="&#xfc2b;" arabic-form="isolated" 
d="M0 234q0 -42 26 -65.5t69 -23.5h319q37 0 61.5 22t24.5 58v234q0 22 -13.5 40t-33.5 20h-74v-193q-16 -111 -128 -110.5t-127 106.5v199h-56q-28 0 -48 -16t-20 -43v-228zM183 352q9 -83 67.5 -81t66.5 63v187h-134v-169z" />
    <glyph glyph-name="arrow-down-bold" unicode="&#xfc2c;" arabic-form="isolated" 
d="M154 586h192v-256h154l-250 -250l-250 250h154v256z" />
    <glyph glyph-name="arrow-down-bold-box" unicode="&#xfc2d;" arabic-form="isolated" 
d="M56 583h388q23 0 39.5 -16.5t16.5 -39.5v-388q0 -23 -16.5 -39.5t-39.5 -16.5h-388q-23 0 -39.5 16.5t-16.5 39.5v388q0 23 16.5 39.5t39.5 16.5zM250 194l139 139h-83v111h-112v-111h-83z" />
    <glyph glyph-name="arrow-down-bold-box-outline" unicode="&#xfc2e;" arabic-form="isolated" 
d="M250 194l-139 139h83v111h112v-111h83zM56 583h388q23 0 39.5 -16.5t16.5 -39.5v-388q0 -23 -16.5 -39.5t-39.5 -16.5h-388q-23 0 -39.5 16.5t-16.5 39.5v388q0 23 16.5 39.5t39.5 16.5zM56 527v-388h388v388h-388z" />
    <glyph glyph-name="arrow-left-bold" unicode="&#xfc2f;" arabic-form="isolated" 
d="M500 428v-190h-253v-152l-247 247l247 247v-152h253z" />
    <glyph glyph-name="arrow-left-bold-box" unicode="&#xfc30;" arabic-form="isolated" 
d="M500 527v-388q0 -23 -16.5 -39.5t-39.5 -16.5h-388q-23 0 -39.5 16.5t-16.5 39.5v388q0 23 16.5 39.5t39.5 16.5h388q23 0 39.5 -16.5t16.5 -39.5zM111 333l139 -139v83h111v112h-111v83z" />
    <glyph glyph-name="arrow-left-bold-box-outline" unicode="&#xfc31;" arabic-form="isolated" 
d="M111 333l139 139v-83h111v-112h-111v-83zM500 527v-388q0 -23 -16.5 -39.5t-39.5 -16.5h-388q-23 0 -39.5 16.5t-16.5 39.5v388q0 23 16.5 39.5t39.5 16.5h388q23 0 39.5 -16.5t16.5 -39.5zM444 527h-388v-388h388v388z" />
    <glyph glyph-name="arrow-right-bold" unicode="&#xfc32;" arabic-form="isolated" 
d="M0 238v190h253v152l247 -247l-247 -247v152h-253z" />
    <glyph glyph-name="arrow-right-bold-box" unicode="&#xfc33;" arabic-form="isolated" 
d="M0 139v388q0 23 16.5 39.5t39.5 16.5h388q23 0 39.5 -16.5t16.5 -39.5v-388q0 -23 -16.5 -39.5t-39.5 -16.5h-388q-23 0 -39.5 16.5t-16.5 39.5zM389 333l-139 139v-83h-111v-112h111v-83z" />
    <glyph glyph-name="arrow-right-bold-box-outline" unicode="&#xfc34;" arabic-form="isolated" 
d="M389 333l-139 -139v83h-111v112h111v83zM0 139v388q0 23 16.5 39.5t39.5 16.5h388q23 0 39.5 -16.5t16.5 -39.5v-388q0 -23 -16.5 -39.5t-39.5 -16.5h-388q-23 0 -39.5 16.5t-16.5 39.5zM56 139h388v388h-388v-388z" />
    <glyph glyph-name="arrow-up-bold" unicode="&#xfc35;" arabic-form="isolated" 
d="M346 80h-192v256h-154l250 250l250 -250h-154v-256z" />
    <glyph glyph-name="arrow-up-bold-box" unicode="&#xfc36;" arabic-form="isolated" 
d="M444 83h-388q-23 0 -39.5 16.5t-16.5 39.5v388q0 23 16.5 39.5t39.5 16.5h388q23 0 39.5 -16.5t16.5 -39.5v-388q0 -23 -16.5 -39.5t-39.5 -16.5zM250 472l-139 -139h83v-111h112v111h83z" />
    <glyph glyph-name="arrow-up-bold-box-outline" unicode="&#xfc37;" arabic-form="isolated" 
d="M250 472l139 -139h-83v-111h-112v111h-83zM444 83h-388q-23 0 -39.5 16.5t-16.5 39.5v388q0 23 16.5 39.5t39.5 16.5h388q23 0 39.5 -16.5t16.5 -39.5v-388q0 -23 -16.5 -39.5t-39.5 -16.5zM444 139v388h-388v-388h388z" />
    <glyph glyph-name="cancel" unicode="&#xfc38;" arabic-form="isolated" 
d="M250 583q107 -2 177.5 -72.5t72.5 -177.5q-2 -107 -72.5 -177.5t-177.5 -72.5q-107 2 -177.5 72.5t-72.5 177.5q2 107 72.5 177.5t177.5 72.5zM250 534q-86 -3 -142 -59t-59 -142q0 -35 11.5 -66t30.5 -57l282 282q-26 19 -57 30.5t-66 11.5zM250 132q86 3 142 59t59 142
q0 35 -11.5 66t-30.5 57l-282 -282q26 -19 57 -30.5t66 -11.5z" />
    <glyph glyph-name="file-account" unicode="&#xfc39;" arabic-form="isolated" 
d="M281 427h172l-172 171v-171zM63 644h250l187 -187v-374q-1 -26 -19 -43.5t-44 -17.5h-374q-26 0 -44 17.5t-19 43.5v500q1 26 19 43.5t44 17.5zM313 83v32q-5 31 -48 46.5t-78 15.5t-77.5 -15.5t-46.5 -46.5v-32h250zM187 333q-26 0 -43.5 -18.5t-17.5 -44.5t17.5 -43.5
t43.5 -17.5t44.5 17.5t18.5 43.5t-18.5 44.5t-44.5 18.5z" />
    <glyph glyph-name="gesture-double-tap" unicode="&#xfc3a;" arabic-form="isolated" 
d="M178 476q2 16 11.5 26t25 10t25.5 -10t10 -26v-159l44 -5l176 -79q30 -15 30 -49v-155q0 -22 -15 -37.5t-38 -16.5h-232q-22 0 -37 17l-175 149l27 29q10 10 25 9h9l114 -60v357zM215 619q60 -2 100.5 -42t41.5 -101q0 -40 -19 -72.5t-53 -51.5v44q35 32 37 80
q-2 46 -32 76t-76 30t-76.5 -30t-30.5 -76q2 -48 36 -80v-44q-32 18 -51.5 51t-21.5 73q2 61 42.5 101t102.5 42zM215 691q90 -1 150.5 -62.5t64.5 -152.5q-2 -45 -19 -85t-48 -69l-36 15q30 25 48 61t18 78q-2 76 -52.5 127t-125.5 53q-78 -2 -128 -53t-52 -127
q0 -55 29.5 -98.5t78.5 -65.5v-38q-64 23 -103.5 77.5t-39.5 124.5q2 91 62.5 152.5t152.5 62.5z" />
    <glyph glyph-name="gesture-swipe-down" unicode="&#xfc3b;" arabic-form="isolated" 
d="M250 444q1 12 9 20t20 8t19.5 -8t7.5 -20v-124l34 -3l137 -61q23 -12 23 -38v-121q0 -17 -11.5 -29t-29.5 -13h-180q-17 0 -29 13l-135 116l20 22q8 8 20 8h6l89 -47v277zM0 444l83 -83l84 83h-55v167h-56v-167h-56z" />
    <glyph glyph-name="gesture-swipe-left" unicode="&#xfc3c;" arabic-form="isolated" 
d="M218 427q2 13 10.5 22t22 9t22.5 -9t9 -22v-140l38 -4l154 -69q26 -13 26 -42v-136q0 -19 -13 -32.5t-34 -15.5h-202q-19 0 -33 15l-152 130l23 26q9 9 22 8h8l99 -52v312zM0 584l94 -94v61h188v64h-188v63z" />
    <glyph glyph-name="gesture-swipe-right" unicode="&#xfc3d;" arabic-form="isolated" 
d="M218 427q2 13 10.5 22t22 9t22.5 -9t9 -22v-140l38 -4l154 -69q26 -13 26 -42v-136q0 -19 -13 -32.5t-34 -15.5h-202q-19 0 -33 15l-152 130l23 26q9 9 22 8h8l99 -52v312zM282 584l-94 94v-63h-188v-64h188v-61z" />
    <glyph glyph-name="gesture-swipe-up" unicode="&#xfc3e;" arabic-form="isolated" 
d="M250 444q1 12 9 20t20 8t19.5 -8t7.5 -20v-124l34 -3l137 -61q23 -12 23 -38v-121q0 -17 -11.5 -29t-29.5 -13h-180q-17 0 -29 13l-135 116l20 22q8 8 20 8h6l89 -47v277zM167 528l-84 83l-83 -83h56v-167h56v167h55z" />
    <glyph glyph-name="gesture-tap" unicode="&#xfc3f;" arabic-form="isolated" 
d="M176 514q1 15 11 25t25.5 10t25.5 -10t10 -25v-161l44 -4l178 -80q30 -16 30 -49v-157q0 -22 -15 -37.5t-39 -16.5h-233q-22 0 -37 17l-176 150l27 29q10 10 25 9h9l115 -60v360zM213 657q60 -1 101 -42t42 -101q0 -41 -19.5 -74t-52.5 -52v44q35 32 37 82q-2 46 -32 76
t-77 30t-77 -30t-30 -76q1 -50 35 -82v-44q-32 19 -51.5 52t-21.5 74q2 60 43 101t103 42z" />
    <glyph glyph-name="gesture-two-double-tap" unicode="&#xfc40;" arabic-form="isolated" 
d="M500 220v-227q0 -22 -15 -37.5t-38 -16.5h-232q-22 0 -37 17l-175 148l27 30q10 10 25 9h9l114 -60v357q2 16 11.5 26t25 10t25.5 -10t10 -26v73q0 15 10 25t25.5 10t25 -10t11.5 -25v-180l148 -65q14 -7 22 -19.5t8 -28.5zM285 655q62 -2 102.5 -42t42.5 -100
q-2 -43 -21.5 -74.5t-51.5 -50.5v44q34 30 36 81q0 45 -30.5 75t-77.5 32q-37 -2 -64.5 -23t-37.5 -54q-34 -11 -55 -38.5t-21 -64.5q2 -49 36 -80v-44q-32 18 -51.5 51t-19.5 75t23 76.5t60 52.5q18 37 52 60.5t78 23.5zM285 727q92 -3 152.5 -63.5t62.5 -150.5
q0 -57 -25.5 -103.5t-68.5 -74.5l-38 18q44 21 70.5 63t26.5 97q-2 75 -52 125.5t-128 51.5q-50 0 -91 -25t-65 -67q-44 -23 -69 -64t-25 -94q0 -55 29.5 -98.5t78.5 -65.5v-38q-64 23 -103.5 77.5t-39.5 124.5q0 59 27.5 107t74.5 76q29 48 77 75.5t106 28.5z" />
    <glyph glyph-name="gesture-two-tap" unicode="&#xfc41;" arabic-form="isolated" 
d="M500 256v-229q0 -22 -15 -37.5t-39 -17.5h-233q-22 0 -37 18l-176 149l27 30q10 10 25 9h9l115 -60v359q1 16 11 26t25.5 10t25.5 -10t10 -26v73q0 16 10 26t25.5 10t25.5 -10t12 -26v-181l149 -65q14 -7 22 -19.5t8 -28.5zM356 425v44q13 12 20 26q16 23 16 55
q0 46 -30.5 76.5t-75.5 30.5t-75 -29l-5 -5q-9 -7 -13.5 -15.5t-8.5 -18.5l-3 -9q-34 -10 -55 -37.5t-21 -65.5t21 -65q7 -9 14 -16v-44q-32 18 -51.5 51.5t-19.5 76t23 77t60 52.5q18 37 53 61t79 24q62 -2 102.5 -42.5t42.5 -101.5q-2 -42 -21.5 -74t-51.5 -51v0z" />
    <glyph glyph-name="humble-bundle" unicode="&#xfc42;" arabic-form="isolated" 
d="M373 179q-44 26 -7 201t45 201h-73q-1 -4 -17 -61.5t-33 -138.5h-61q2 33 1 64q-7 124 -58.5 131t-89.5 -30q-34 -29 -56.5 -74.5t-23.5 -88.5h33q0 6 20.5 51.5t73.5 52.5q43 -26 6.5 -201t-45.5 -201h73q2 4 21.5 70t34.5 158h60q-5 -48 -4 -97q8 -122 59 -127t89 31
q36 32 57.5 81.5t21.5 81.5h-34q1 -9 -20 -53t-73 -51z" />
    <glyph glyph-name="kickstarter" unicode="&#xfc43;" arabic-form="isolated" 
d="M192 427l107 156q30 45 80 45q40 0 68.5 -28.5t28.5 -66.5q0 -29 -15 -51l-97 -143l118 -151q18 -22 18 -52q0 -41 -28.5 -69.5t-68.5 -28.5q-43 0 -66 29l-145 182v-100q0 -43 -16 -68q-27 -43 -79 -43q-47 0 -72 31t-25 78v373q0 46 25 77t69.5 31t73.5 -31
q16 -18 21 -37q3 -11 3 -40v-93z" />
    <glyph glyph-name="netflix" unicode="&#xfc44;" arabic-form="isolated" 
d="M0 787h182l135 -401l1 401h182v-908q-85 15 -186 20l-132 389l-2 -392q-98 -4 -180 -17v908z" />
    <glyph glyph-name="onenote" unicode="&#xfc45;" arabic-form="isolated" 
d="M0 515l301 42v-48h174q11 0 18 -7t7 -18v-99q0 -11 -7 -18t-18 -8h-24v-199h-150v-51l-301 45v361zM226 216v212l-50 -6v-106l-51 99l-49 -6v-174l37 -8v139l63 -144zM301 284h99v26h-99v-26zM301 359h99v26h-99v-26zM301 434h99v25h-99v-25zM301 235v-26h99v26h-99z" />
    <glyph glyph-name="periscope" unicode="&#xfc46;" arabic-form="isolated" 
d="M250 489q0 -26 -18.5 -44t-44.5 -18t-43.5 18t-17.5 44q-31 -41 -32 -93q1 -67 45.5 -111t110.5 -46q66 2 110.5 46t45.5 111q-1 66 -45.5 109.5t-110.5 45.5q-20 0 -38 -5q17 -7 27.5 -22.5t10.5 -34.5zM250 644q107 -1 177 -72t73 -176q0 -50 -17 -92
q-43 -109 -116 -193.5t-117 -88.5q-44 4 -117 88.5t-116 193.5q-17 42 -17 92q3 105 73 176t177 72z" />
    <glyph glyph-name="uber" unicode="&#xfc47;" arabic-form="isolated" 
d="M250 583q107 -2 177.5 -72.5t72.5 -177.5q-2 -107 -72.5 -177.5t-177.5 -72.5q-103 2 -173 69t-77 168h175v-50q1 -12 13 -12h124q13 1 13 12v126q-1 12 -13 12h-124q-13 -1 -13 -12v-50h-175q7 101 77 168t173 69z" />
    <glyph glyph-name="vector-radius" unicode="&#xfc48;" arabic-form="isolated" 
d="M0 534h49v49h151v-49q106 -4 176.5 -74.5t74.5 -176.5h49v-151h-49v-49h-51v49h-50v151h50q-2 85 -58.5 141.5t-141.5 58.5v-50h-151v50h-49v51zM400 233v-50h51v50h-51zM100 534v-51h50v51h-50z" />
    <glyph glyph-name="xbox-controller-battery-alert" unicode="&#xfc49;" arabic-form="isolated" 
d="M454 175v272h-136v-272h136zM469 491q12 0 21 -8t10 -22v-302q-1 -13 -9.5 -21.5t-21.5 -8.5h-165q-13 0 -21.5 8.5t-10.5 21.5v67h-119q-32 -3 -53.5 -29t-53.5 -46q-37 -1 -45 58.5t57 202.5h5l10 19q3 3 36 15t58 -5h105v20q2 13 10 21.5t22 8.5h37v46h91v-46h37z
M228 423q-10 0 -16 -6t-6 -16t6 -16t16 -6t16 6t6 16t-6 16t-16 6zM364 401h45v-114h-45v114zM364 265h45v-46h-45v46z" />
    <glyph glyph-name="xbox-controller-battery-empty" unicode="&#xfc4a;" arabic-form="isolated" 
d="M454 175v272h-136v-272h136zM469 491q12 0 21 -8t10 -22v-302q-1 -13 -9.5 -21.5t-21.5 -8.5h-165q-13 0 -21.5 8.5t-10.5 21.5v67h-119q-32 -3 -53.5 -29t-53.5 -46q-37 -1 -45 58.5t57 202.5h5l10 19q3 3 36 15t58 -5h105v20q2 13 10 21.5t22 8.5h37v46h91v-46h37z
M228 423q-10 0 -16 -6t-6 -16t6 -16t16 -6t16 6t6 16t-6 16t-16 6z" />
    <glyph glyph-name="xbox-controller-battery-full" unicode="&#xfc4b;" arabic-form="isolated" 
d="M469 491q12 0 21 -8t10 -22v-302q-1 -13 -9.5 -21.5t-21.5 -8.5h-165q-13 0 -21.5 8.5t-10.5 21.5v67h-119q-32 -3 -53.5 -29t-53.5 -46q-37 -1 -45 58.5t57 202.5h5l10 19q3 3 36 15t58 -5h105v20q2 13 10 21.5t22 8.5h37v46h91v-46h37zM228 423q-10 0 -16 -6t-6 -16
t6 -16t16 -6t16 6t6 16t-6 16t-16 6z" />
    <glyph glyph-name="xbox-controller-battery-low" unicode="&#xfc4c;" arabic-form="isolated" 
d="M454 243v204h-136v-204h136zM469 491q12 0 21 -8t10 -22v-302q-1 -13 -9.5 -21.5t-21.5 -8.5h-165q-13 0 -21.5 8.5t-10.5 21.5v67h-119q-32 -3 -53.5 -29t-53.5 -46q-37 -1 -45 58.5t57 202.5h5l10 19q3 3 36 15t58 -5h105v20q2 13 10 21.5t22 8.5h37v46h91v-46h37z
M228 423q-10 0 -16 -6t-6 -16t6 -16t16 -6t16 6t6 16t-6 16t-16 6z" />
    <glyph glyph-name="xbox-controller-battery-medium" unicode="&#xfc4d;" arabic-form="isolated" 
d="M454 333v114h-136v-114h136zM469 491q12 0 21 -8t10 -22v-302q-1 -13 -9.5 -21.5t-21.5 -8.5h-165q-13 0 -21.5 8.5t-10.5 21.5v67h-119q-32 -3 -53.5 -29t-53.5 -46q-37 -1 -45 58.5t57 202.5h5l10 19q3 3 36 15t58 -5h105v20q2 13 10 21.5t22 8.5h37v46h91v-46h37z
M228 423q-10 0 -16 -6t-6 -16t6 -16t16 -6t16 6t6 16t-6 16t-16 6z" />
    <glyph glyph-name="xbox-controller-battery-unknown" unicode="&#xfc4e;" arabic-form="isolated" 
d="M469 491q12 0 21 -8t10 -22v-302q-1 -13 -9.5 -21.5t-21.5 -8.5h-165q-13 0 -21.5 8.5t-10.5 21.5v67h-119q-32 -3 -53.5 -29t-53.5 -46q-37 -1 -45 58.5t57 202.5h5l10 19q3 3 36 15t58 -5h105v20q2 13 10 21.5t22 8.5h37v46h91v-46h37zM228 423q-10 0 -16 -6t-6 -16
t6 -16t16 -6t16 6t6 16t-6 16t-16 6zM391 423q-30 0 -48 -13t-17 -40v-1h43q0 11 6.5 16t16 5t16 -6t6.5 -17t-5.5 -18.5t-13.5 -13.5q-18 -11 -24.5 -20.5t-6.5 -27.5h45q0 11 3 17.5t11 11.5q15 9 25.5 21.5t10.5 29.5q0 26 -18 41t-50 15zM364 265v-46h45v46h-45z" />
    <glyph glyph-name="clipboard-plus" unicode="&#xfc4f;" arabic-form="isolated" 
d="M167 528q1 36 24.5 59t58.5 23t58.5 -23t24.5 -59h111q23 -1 39.5 -16.5t16.5 -39.5v-360q0 -24 -16.5 -40t-39.5 -16h-388q-23 0 -39.5 16t-16.5 40v360q0 24 16.5 39.5t39.5 16.5h111zM250 556q-12 0 -19.5 -8t-7.5 -20t7.5 -19.5t19.5 -7.5t19.5 7.5t7.5 19.5t-7.5 20
t-19.5 8zM277 306v83h-54v-83h-84v-56h84v-84h54v84h84v56h-84z" />
    <glyph glyph-name="file-plus" unicode="&#xfc50;" arabic-form="isolated" 
d="M281 427h172l-172 171v-171zM63 644h250l187 -187v-374q-1 -26 -19 -43.5t-44 -17.5h-374q-26 0 -44 17.5t-19 43.5v500q1 26 19 43.5t44 17.5zM219 239v94h-63v-94h-93v-62h93v-94h63v94h94v62h-94z" />
    <glyph glyph-name="format-align-bottom" unicode="&#xfc51;" arabic-form="isolated" 
d="M277 416l70 70l40 -40l-137 -136l-137 136l40 40l70 -70v167h54v-167zM0 250h500v-56h-500v56zM0 139h277v-56h-277v56z" />
    <glyph glyph-name="format-align-middle" unicode="&#xfc52;" arabic-form="isolated" 
d="M277 500l56 56l40 -41l-123 -122l-123 122l40 41l56 -56v110h54v-110zM0 360h500v-54h-500v54zM277 166v-110h-54v110l-56 -56l-40 41l123 122l123 -122l-40 -41z" />
    <glyph glyph-name="format-align-top" unicode="&#xfc53;" arabic-form="isolated" 
d="M277 250l70 -70l40 40l-137 136l-137 -136l40 -40l70 70v-167h54v167zM0 583h500v-56h-500v56zM0 472h277v-56h-277v56z" />
    <glyph glyph-name="format-list-checks" unicode="&#xfc54;" arabic-form="isolated" 
d="M39 525h153v-154h-153v154zM90 475v-52h51v52h-51zM244 475h256v-52h-256v52zM244 269h256v-51h-256v51zM90 141l-90 90l36 36l54 -53l118 117l36 -36z" />
    <glyph glyph-name="format-quote-open" unicode="&#xfc55;" arabic-form="isolated" 
d="M178 513l-71 -145h108v-215h-215v215l70 145h108zM465 513l-72 -145h107v-215h-215v215l72 145h108z" />
    <glyph glyph-name="grid-large" unicode="&#xfc56;" arabic-form="isolated" 
d="M49 583h402q21 0 35 -14t14 -35v-402q0 -21 -14 -35t-35 -14h-402q-20 0 -34.5 14t-14.5 35v402q0 21 14 35t35 14zM49 534v-176h176v176h-176zM49 132h176v176h-176v-176zM451 132v176h-176v-176h176zM451 534h-176v-176h176v176z" />
    <glyph glyph-name="heart-off" unicode="&#xfc57;" arabic-form="isolated" 
d="M0 529l31 30l422 -422l-30 -30l-85 85l-76 -70l-35 32q-92 82 -146.5 145t-55.5 129q0 34 14 62zM155 559q31 0 59 -13.5t48 -35.5q20 22 48 36q29 13 60 13q56 -1 92.5 -38t37.5 -93q0 -46 -26.5 -88.5t-72.5 -89.5l-299 298q24 11 53 11z" />
    <glyph glyph-name="music" unicode="&#xfc58;" arabic-form="isolated" 
d="M500 569v-329q-1 -38 -27 -65t-65 -27t-65.5 27t-26.5 65.5t26.5 64.5t65.5 27q22 0 39 -8v154l-263 -55v-235q-1 -40 -27 -65.5t-65 -25.5t-65.5 25.5t-26.5 64.5t26.5 65.5t65.5 26.5q22 0 39 -9v220z" />
    <glyph glyph-name="music-off" unicode="&#xfc59;" arabic-form="isolated" 
d="M0 524l34 33l440 -440l-33 -34l-257 255v-137q-1 -39 -27 -65t-65 -26t-65.5 26t-26.5 65t26.5 65.5t65.5 26.5q22 0 39 -9v107zM500 583v-329q-1 -41 -30 -67l-129 129q26 29 67 30q22 0 39 -9v154l-232 -49l-67 66z" />
    <glyph glyph-name="tab-plus" unicode="&#xfc5a;" arabic-form="isolated" 
d="M444 139v277h-194v111h-194v-388h388zM444 583q23 0 39.5 -16.5t16.5 -39.5v-388q0 -23 -16.5 -39.5t-39.5 -16.5h-388q-23 0 -39.5 16.5t-16.5 39.5v388q0 25 16.5 40.5t39.5 15.5h388zM111 306h83v83h56v-83h83v-56h-83v-84h-56v84h-83v56z" />
    <glyph glyph-name="volume-plus" unicode="&#xfc5b;" arabic-form="isolated" 
d="M0 412h105l132 132v-422l-132 132h-105v158zM290 359h79v79h52v-79h79v-52h-79v-79h-52v79h-79v52z" />
    <glyph glyph-name="volume-minus" unicode="&#xfc5c;" arabic-form="isolated" 
d="M0 412h105l132 132v-422l-132 132h-105v158zM290 359h210v-52h-210v52z" />
    <glyph glyph-name="volume-mute" unicode="&#xfc5d;" arabic-form="isolated" 
d="M0 412h105l132 132v-422l-132 132h-105v158zM358 333l-68 68l37 37l68 -68l68 68l37 -37l-68 -68l68 -68l-37 -37l-68 68l-68 -68l-37 37z" />
    <glyph glyph-name="unfold-less-vertical" unicode="&#xfc5e;" arabic-form="isolated" 
d="M44 476l143 -143l-143 -143l-44 43l100 100l-100 100zM456 190l-143 143l143 143l44 -43l-100 -100l100 -100z" />
    <glyph glyph-name="unfold-more-vertical" unicode="&#xfc5f;" arabic-form="isolated" 
d="M422 333l-89 89l40 38l127 -127l-127 -127l-40 38zM78 333l89 -89l-40 -38l-127 127l127 127l40 -38z" />
    <glyph glyph-name="taco" unicode="&#xfc60;" arabic-form="isolated" 
d="M408 197h-316q-40 1 -65.5 26.5t-26.5 63.5q2 78 53 129t129 53q36 0 68 -12q32 12 68 12q78 -2 129 -53t53 -129q-1 -38 -26.5 -63.5t-65.5 -26.5zM46 287q0 -19 13 -31.5t32.5 -12.5t32 12.5t12.5 31.5q1 42 17 76.5t44 58.5l-15 1q-57 -1 -96 -39t-40 -97zM408 243
q20 0 33 12.5t13 31.5q-1 59 -40 97t-96 39q-57 -1 -96 -39t-40 -97q0 -24 -13 -44h239z" />
    <glyph glyph-name="square-outline" unicode="&#xfc61;" arabic-form="isolated" 
d="M0 583h500v-500h-500v500zM56 527v-388h388v388h-388z" />
    <glyph glyph-name="square" unicode="&#xfc62;" arabic-form="isolated" 
d="M0 583v-500h500v500h-500z" />
    <glyph glyph-name="circle" unicode="&#xfc63;" arabic-form="isolated" 
d="M250 583q-107 -2 -177.5 -72.5t-72.5 -177.5q2 -107 72.5 -177.5t177.5 -72.5q107 2 177.5 72.5t72.5 177.5q-2 107 -72.5 177.5t-177.5 72.5z" />
    <glyph glyph-name="circle-outline" unicode="&#xfc64;" arabic-form="final" 
d="M250 132q-86 3 -142 59t-59 142q3 86 59 142t142 59q86 -3 142 -59t59 -142q-3 -86 -59 -142t-142 -59zM250 583q-107 -2 -177.5 -72.5t-72.5 -177.5q2 -107 72.5 -177.5t177.5 -72.5q107 2 177.5 72.5t72.5 177.5q-2 107 -72.5 177.5t-177.5 72.5z" />
    <glyph glyph-name="alert-octagram" unicode="&#xfc65;" arabic-form="final" 
d="M0 229l43 104l-43 104l104 42l42 104l104 -43l104 43l42 -104l104 -42l-43 -104l43 -104l-104 -42l-42 -104l-104 43l-104 -43l-42 104zM275 205v51h-50v-51h50zM275 308v153h-50v-153h50z" />
    <glyph glyph-name="atom" unicode="&#xfc66;" arabic-form="final" 
d="M250 362q13 0 21 -8t8 -21t-8 -21t-21 -8t-21 8t-8 21t8 21t21 8zM22 561q33 30 94 19t134 -59q73 48 134 59t92.5 -20.5t20.5 -92.5t-59 -134q48 -73 59 -134t-20.5 -92.5t-92.5 -20.5t-134 59q-73 -48 -134 -59t-92.5 20.5t-20.5 92.5t59 134q-48 73 -59 134t19 94z
M354 437q26 -27 50 -56q30 48 39 84.5t-7.5 53t-53 7.5t-84.5 -39q29 -24 56 -50zM146 229q-26 27 -50 56q-30 -48 -39 -84.5t7.5 -53t53 -7.5t84.5 39q-29 24 -56 50zM63 520q-15 -18 -6 -54.5t39 -84.5q23 29 50 56t56 50q-48 30 -84.5 39t-54.5 -6zM188 271
q30 -32 62 -56q32 24 63 55t55 63q-24 32 -55 62.5t-63 55.5q-32 -25 -62.5 -55.5t-55.5 -62.5q25 -32 56 -62zM437 146q15 17 6 54t-39 85q-23 -29 -50 -56t-56 -50q48 -30 85 -39t54 6z" />
    <glyph glyph-name="ceiling-light" unicode="&#xfc67;" arabic-form="final" 
d="M126 426h93v156h62v-156h93l126 -250h-500zM313 145q-2 -26 -19.5 -43.5t-43.5 -17.5t-43.5 17.5t-19.5 43.5h126z" />
    <glyph glyph-name="chart-bar-stacked" unicode="&#xfc68;" arabic-form="final" 
d="M500 108h-500v450h49v-400h51v49h100v-49h50v75h100v-75h50v49h100v-99zM400 283h100v-50h-100v50zM250 483h100v-75h-100v75zM350 258h-100v125h100v-125zM100 383h100v-50h-100v50zM200 233h-100v75h100v-75z" />
    <glyph glyph-name="chart-line-stacked" unicode="&#xfc69;" arabic-form="final" 
d="M386 253l114 210v-355h-500v450h49v-400h65l110 189zM500 558v-12l-124 -188l-176 125l-100 -150v225h400z" />
    <glyph glyph-name="decagram" unicode="&#xfc6a;" arabic-form="final" 
d="M500 333l-56 63l8 84l-82 18l-42 72l-78 -33l-78 33l-42 -72l-82 -18l8 -83l-56 -64l56 -63l-8 -84l82 -19l42 -71l78 33l78 -33l42 72l82 18l-8 84z" />
    <glyph glyph-name="decagram-outline" unicode="&#xfc6b;" arabic-form="final" 
d="M500 333l-56 -63l8 -84l-82 -18l-42 -72l-78 33l-78 -33l-42 71l-82 19l8 84l-56 63l56 64l-8 83l82 18l42 72l78 -33l78 33l42 -72l82 -18l-8 -84zM440 333l-42 48l5 64l-63 13l-32 55l-58 -26l-58 26l-32 -55l-63 -13l5 -64l-42 -48l42 -48l-5 -64l63 -13l32 -55l58 26
l58 -26l32 55l63 14l-5 63z" />
    <glyph glyph-name="dice-multiple" unicode="&#xfc6c;" arabic-form="final" 
d="M466 583h-238q-14 0 -23.5 -9.5t-10.5 -24.5v-105h167v-167h105q14 1 24 10t10 24v238q0 14 -10 24t-24 10zM262 482q-14 0 -24 9.5t-10 24t9.5 24t24.5 9.5t24 -9.5t9 -24t-9 -24t-24 -9.5zM432 311q-14 0 -23.5 9.5t-9.5 24.5t9 24t24 10t24.5 -9t9.5 -25t-10 -24
t-24 -10zM432 482q-14 0 -23.5 9.5t-9.5 24t9 24t24 9.5t24.5 -9.5t9.5 -24t-10 -24t-24 -9.5zM34 389h238q14 -1 23.5 -10t10.5 -24v-238q-1 -14 -10 -24t-24 -10h-238q-14 0 -24 9.5t-10 24.5v238q0 14 10 23.5t24 10.5zM153 269q-14 0 -23.5 -9.5t-9.5 -24t9 -23.5
t23.5 -9t24 9t9.5 23.5t-9.5 24t-23.5 9.5zM68 355q-14 -1 -24 -10t-10 -23.5t9.5 -24t24 -9.5t24 9.5t9.5 24t-9.5 23.5t-23.5 10zM237 184q-14 0 -23 -9.5t-9 -24t9 -23.5t23 -9t24 9t10 23.5t-9 24t-24 9.5h-1z" />
    <glyph glyph-name="dice-d10" unicode="&#xfc6d;" arabic-form="final" 
d="M489 364q11 -14 11 -30.5t-11 -31.5l-207 -207q-14 -13 -30.5 -13t-31.5 13l-207 207q-13 14 -13 30.5t13 31.5l207 207q14 13 30.5 13t31.5 -13zM459 333l-208 208l-208 -208l208 -208zM210 238h-38v146l-44 -14v30l79 28h3v-190zM299 433q27 0 45.5 -18.5t19.5 -44.5
v-68q-1 -27 -19.5 -45t-45.5 -18t-45 18t-19 45v68q1 27 19 45t45 18zM299 397q-12 -1 -19 -8q-7 -6 -8 -18v-70q1 -12 8.5 -19t19 -7t19 7.5t7.5 18.5v70q0 12 -7.5 18.5t-19.5 7.5z" />
    <glyph glyph-name="folder-open" unicode="&#xfc6e;" arabic-form="final" 
d="M400 144h-354q-19 1 -32.5 14.5t-13.5 32.5v284q0 19 13.5 32.5t32.5 14.5h142l48 -47h164q20 0 34 -14t14 -34h-402v-236l51 190h403l-53 -201q-5 -16 -17.5 -25.5t-29.5 -10.5z" />
    <glyph glyph-name="guitar-acoustic" unicode="&#xfc6f;" arabic-form="final" 
d="M437 570h63v-53h-42l-111 -111q-15 22 -37 37zM237 438q44 -1 74 -31t31 -74q0 -37 -21.5 -64.5t-57.5 -37.5v-3q-1 -57 -38 -94t-93 -38q-57 1 -94 38t-38 94q1 56 38 93t94 38h3q10 36 37.5 57.5t64.5 21.5zM237 373q-17 0 -28 -11.5t-11 -28.5t11 -28.5t28 -11.5
t28 11.5t11 28.5t-11 28.5t-28 11.5zM104 274l-19 -19l74 -74l19 19z" />
    <glyph glyph-name="loading" unicode="&#xfc70;" arabic-form="final" 
d="M500 484v99q-214 -5 -354.5 -145.5t-145.5 -354.5h99q4 172 116.5 284.5t284.5 116.5z" />
    <glyph glyph-name="lock-reset" unicode="&#xfc71;" arabic-form="final" 
d="M278 554q95 -3 157.5 -65.5t64.5 -155.5q-2 -93 -64.5 -155.5t-157.5 -65.5q-57 0 -105.5 27.5t-78.5 73.5l35 28q24 -38 63 -61t87 -24q75 2 124.5 51.5t51.5 125.5q-2 76 -51.5 125.5t-124.5 51.5q-69 -2 -117 -45t-59 -110h62l-82 -82l-83 82h59q10 86 71 141t148 58z
M345 372q8 -1 14 -6.5t6 -13.5v-102q0 -9 -6 -14.5t-15 -5.5h-122q-9 0 -14.5 5.5t-5.5 14.5v102q0 8 5.5 13.5t14.5 6.5v22q1 26 18 43.5t43 17.5t43.5 -17.5t18.5 -43.5v-22zM283 424q-13 0 -21.5 -8t-8.5 -22v-22h61v22q-1 13 -9.5 21.5t-21.5 8.5z" />
    <glyph glyph-name="ninja" unicode="&#xfc72;" arabic-form="final" 
d="M143 308q0 13 11 23q28 -6 53 -23q-1 -13 -10 -21.5t-22 -9t-22 8.5t-10 22zM293 308q25 17 53 23q11 -10 10.5 -23t-9.5 -22t-22 -9t-22 9t-10 22zM250 408q-106 1 -198 -50l-3 -25q0 -47 21 -89q89 14 179.5 14t180.5 -14q21 42 21 89l-3 25q-92 51 -198 50zM250 583
q107 -2 177.5 -72.5t72.5 -177.5q-2 -107 -72.5 -177.5t-177.5 -72.5q-107 2 -177.5 72.5t-72.5 177.5q2 107 72.5 177.5t177.5 72.5z" />
    <glyph glyph-name="octagram-outline" unicode="&#xfc73;" arabic-form="final" 
d="M0 229l43 104l-43 104l104 42l42 104l104 -43l104 43l42 -104l104 -42l-43 -104l43 -104l-104 -42l-42 -104l-104 43l-104 -43l-42 104zM67 410l31 -77l-31 -77l75 -31l31 -75l77 31l77 -31l31 75l75 31l-31 77l31 77l-75 31l-31 75l-77 -31l-77 31l-31 -75z" />
    <glyph glyph-name="pencil-circle-outline" unicode="&#xfc74;" arabic-form="final" 
d="M124 259l153 153l52 -52l-153 -153h-52v52zM250 132q86 3 142 59t59 142q-3 86 -59 142t-142 59q-86 -3 -142 -59t-59 -142q3 -86 59 -142t142 -59zM367 400l-24 -26l-52 52l26 24q9 9 19 0l31 -31q9 -10 0 -19zM250 583q107 -2 177.5 -72.5t72.5 -177.5
q-2 -107 -72.5 -177.5t-177.5 -72.5q-107 2 -177.5 72.5t-72.5 177.5q2 107 72.5 177.5t177.5 72.5z" />
    <glyph glyph-name="selection-off" unicode="&#xfc75;" arabic-form="final" 
d="M0 543l30 29l459 -459l-29 -30l-35 35h-41v40l-309 309h-40v41zM81 583h70v-46h-28l-45 46h3zM500 537v-70h-46v70h-70v46h70q20 0 33 -13t13 -33zM454 234h46v-73l-46 45v28zM35 164v70h46v-70h70v-46h-70q-20 0 -33 13t-13 33zM221 583h94v-46h-94v46zM221 164h94v-46
h-94v46zM454 398h46v-94h-46v94zM35 398h46v-94h-46v94z" />
    <glyph glyph-name="set-all" unicode="&#xfc76;" arabic-form="final" 
d="M175 508q40 0 75 -16q35 16 75 16q75 -1 124.5 -50.5t50.5 -124.5q-1 -75 -50.5 -124.5t-124.5 -50.5q-40 0 -75 16q-35 -16 -75 -16q-75 1 -124.5 50.5t-50.5 124.5q1 75 50.5 124.5t124.5 50.5zM162 333q1 -35 14.5 -65.5t36.5 -52.5l26 10q-24 20 -37.5 47.5
t-13.5 60.5t13.5 60.5t37.5 47.5l-26 10q-23 -22 -36.5 -52.5t-14.5 -65.5zM338 333q-1 35 -14.5 65.5t-36.5 52.5l-26 -10q24 -20 37.5 -47.5t13.5 -60.5t-13.5 -60.5t-37.5 -47.5l26 -10q23 22 36.5 52.5t14.5 65.5z" />
    <glyph glyph-name="set-center" unicode="&#xfc77;" arabic-form="final" 
d="M175 508q-75 -1 -124.5 -50.5t-50.5 -124.5q1 -75 50.5 -124.5t124.5 -50.5q40 0 75 16q35 -16 75 -16q75 1 124.5 50.5t50.5 124.5q-1 75 -50.5 124.5t-124.5 50.5q-40 0 -75 -16q-35 16 -75 16zM175 459q13 0 25 -3q-24 -26 -37 -57t-13 -66t13 -66t37 -56
q-12 -4 -25 -4q-53 2 -89 37.5t-37 88.5q1 53 37 88.5t89 37.5zM325 459q53 -2 89 -37.5t37 -88.5q-1 -53 -37 -88.5t-89 -37.5q-13 0 -25 3q24 26 37 57t13 66t-13 66t-37 56q12 4 25 4z" />
    <glyph glyph-name="set-center-right" unicode="&#xfc78;" arabic-form="final" 
d="M325 158q-40 0 -75 16q-35 -16 -75 -16q-75 1 -124.5 50.5t-50.5 124.5q1 75 50.5 124.5t124.5 50.5q40 0 75 -16q35 16 75 16q75 -1 124.5 -50.5t50.5 -124.5q-1 -75 -50.5 -124.5t-124.5 -50.5zM175 207l25 4q-24 25 -37 56t-13 66t13 66t37 57l-25 3q-53 -2 -89 -37.5
t-37 -88.5q1 -53 37 -88.5t89 -37.5zM338 333q-1 35 -14.5 65.5t-36.5 52.5l-26 -10q24 -20 37.5 -47.5t13.5 -60.5t-13.5 -60.5t-37.5 -47.5l26 -10q23 22 36.5 52.5t14.5 65.5z" />
    <glyph glyph-name="set-left" unicode="&#xfc79;" arabic-form="final" 
d="M175 508q-75 -1 -124.5 -50.5t-50.5 -124.5q1 -75 50.5 -124.5t124.5 -50.5q40 0 75 16q35 -16 75 -16q75 1 124.5 50.5t50.5 124.5q-1 75 -50.5 124.5t-124.5 50.5q-40 0 -75 -16q-35 16 -75 16zM325 459q53 -2 89 -37.5t37 -88.5q-1 -53 -37 -88.5t-89 -37.5
q-13 0 -25 3q24 26 37 57t13 66t-13 66t-37 56q12 4 25 4zM250 433q23 -18 36.5 -44.5t13.5 -55.5t-13.5 -55.5t-36.5 -44.5q-23 18 -36.5 44.5t-13.5 55.5t13.5 55.5t36.5 44.5z" />
    <glyph glyph-name="set-left-center" unicode="&#xfc7a;" arabic-form="final" 
d="M175 508q40 0 75 -16q35 16 75 16q75 -1 124.5 -50.5t50.5 -124.5q-1 -75 -50.5 -124.5t-124.5 -50.5q-40 0 -75 16q-35 -16 -75 -16q-75 1 -124.5 50.5t-50.5 124.5q1 75 50.5 124.5t124.5 50.5zM325 459l-25 -4q24 -25 37 -56t13 -66t-13 -66t-37 -57l25 -3
q53 2 89 37.5t37 88.5q-1 53 -37 88.5t-89 37.5zM162 333q1 -35 14.5 -65.5t36.5 -52.5l26 10q-24 20 -37.5 47.5t-13.5 60.5t13.5 60.5t37.5 47.5l-26 10q-23 -22 -36.5 -52.5t-14.5 -65.5z" />
    <glyph glyph-name="set-left-right" unicode="&#xfc7b;" arabic-form="final" 
d="M175 508q40 0 75 -16q35 16 75 16q75 -1 124.5 -50.5t50.5 -124.5q-1 -75 -50.5 -124.5t-124.5 -50.5q-40 0 -75 16q-35 -16 -75 -16q-75 1 -124.5 50.5t-50.5 124.5q1 75 50.5 124.5t124.5 50.5zM175 333q0 -42 20.5 -76.5t54.5 -53.5q34 19 54.5 53.5t20.5 76.5
t-20.5 76.5t-54.5 53.5q-34 -19 -54.5 -53.5t-20.5 -76.5z" />
    <glyph glyph-name="set-none" unicode="&#xfc7c;" arabic-form="final" 
d="M175 508q-75 -1 -124.5 -50.5t-50.5 -124.5q1 -75 50.5 -124.5t124.5 -50.5q40 0 75 16q35 -16 75 -16q75 1 124.5 50.5t50.5 124.5q-1 75 -50.5 124.5t-124.5 50.5q-40 0 -75 -16q-35 16 -75 16zM175 459q13 0 25 -3q-24 -26 -37 -57t-13 -66t13 -66t37 -56
q-12 -4 -25 -4q-53 2 -89 37.5t-37 88.5q1 53 37 88.5t89 37.5zM325 459q53 -2 89 -37.5t37 -88.5q-1 -53 -37 -88.5t-89 -37.5q-13 0 -25 3q24 26 37 57t13 66t-13 66t-37 56q12 4 25 4zM250 433q23 -18 36.5 -44.5t13.5 -55.5t-13.5 -55.5t-36.5 -44.5q-23 18 -36.5 44.5
t-13.5 55.5t13.5 55.5t36.5 44.5z" />
    <glyph glyph-name="set-right" unicode="&#xfc7d;" arabic-form="final" 
d="M325 158q-40 0 -75 16q-35 -16 -75 -16q-75 1 -124.5 50.5t-50.5 124.5q1 75 50.5 124.5t124.5 50.5q40 0 75 -16q35 16 75 16q75 -1 124.5 -50.5t50.5 -124.5q-1 -75 -50.5 -124.5t-124.5 -50.5zM175 207l25 4q-24 25 -37 56t-13 66t13 66t37 57l-25 3q-53 -2 -89 -37.5
t-37 -88.5q1 -53 37 -88.5t89 -37.5zM250 233q23 18 36.5 44.5t13.5 55.5t-13.5 55.5t-36.5 44.5q-23 -18 -36.5 -44.5t-13.5 -55.5t13.5 -55.5t36.5 -44.5z" />
    <glyph glyph-name="shield-half-full" unicode="&#xfc7e;" arabic-form="final" 
d="M500 360q-3 -118 -72 -210.5t-178 -122.5q-109 30 -178 122.5t-72 210.5v167l250 112l250 -112v-167zM250 83q81 23 137 101t57 171v137l-194 86v-495z" />
    <glyph glyph-name="sign-direction" unicode="&#xfc7f;" arabic-form="final" 
d="M221 333h-221l73 73l-73 75h221v117l29 29l29 -29v-117h148l73 -75l-73 -73h-148v-236q25 0 42 -16.5t17 -41.5h-176q0 25 17 41.5t42 16.5v236z" />
    <glyph glyph-name="sign-text" unicode="&#xfc80;" arabic-form="final" 
d="M223 583l27 27l27 -27v-56h196q12 0 19.5 -7.5t7.5 -19.5v-278q0 -12 -7.5 -19.5t-19.5 -8.5h-196v-84q24 0 40 -15.5t16 -38.5h-166q0 23 16 38.5t40 15.5v84h-196q-12 1 -19.5 8.5t-7.5 19.5v278q0 12 7.5 19.5t19.5 7.5h196v56zM83 444v-55h334v55h-334zM83 333v-56
h194v56h-194z" />
    <glyph glyph-name="signal-off" unicode="&#xfc81;" arabic-form="final" 
d="M417 611v-366l83 -83v449h-83zM35 555l-35 -35l215 -215h-76v-194h84v187l54 -56v-131h84v48l104 -104l35 37zM277 444v-61l84 -83v144h-84zM0 194v-83h83v83h-83z" />
    <glyph glyph-name="square-root" unicode="&#xfc82;" arabic-form="final" 
d="M244 225l70 70l-70 71l35 36l71 -72l71 72l36 -36l-72 -71l72 -70l-36 -36l-71 70l-71 -70zM0 370h75l58 -135l67 261h300v-51h-262l-72 -275h-60l-64 151h-42v49z" />
    <glyph glyph-name="sticker-emoji" unicode="&#xfc83;" arabic-form="final" 
d="M87 583q-37 0 -62 -25t-25 -62v-326q0 -37 25 -62t62 -25h263l150 150v263q0 37 -25 62t-62 25h-326zM94 534h312q19 -1 31.5 -13.5t13.5 -31.5v-231h-38q-37 -1 -62 -26t-26 -62v-38h-231q-19 1 -31.5 13.5t-13.5 31.5v312q1 19 13.5 31.5t31.5 13.5zM311 465
q-6 0 -12 -3q-17 -5 -26 -20t-4 -34q1 -6 4 -11l82 22q0 7 -2 13q-4 13 -15.5 22t-26.5 11zM154 421q-6 0 -12 -1q-18 -6 -26.5 -21.5t-3.5 -32.5q1 -6 5 -12l80 22q0 6 -1 12q-4 15 -15.5 24t-26.5 9zM368 352l-229 -63q26 -29 61.5 -40t73 -1t62.5 37.5t32 66.5z" />
    <glyph glyph-name="summit" unicode="&#xfc84;" arabic-form="final" 
d="M325 558h51l124 -50l-124 -49v-80l124 -271h-500l150 200l87 -118l88 189v179z" />
    <glyph glyph-name="sword-cross" unicode="&#xfc85;" arabic-form="final" 
d="M114 559l279 -279l50 49l32 -32l-56 -58l75 -75q6 -8 6 -17t-6 -16l-19 -18q-6 -6 -15.5 -6t-16.5 6l-75 75l-58 -58l-32 33l49 51l-279 279v66h66zM341 382l111 111v66h-66l-111 -111zM225 264l-66 67l-52 -51l-50 49l-32 -32l56 -58l-75 -76q-6 -7 -6 -16t6 -17l19 -17
q6 -6 15.5 -6t16.5 6l75 75l58 -58l32 33l-49 51z" />
    <glyph glyph-name="truck-fast" unicode="&#xfc86;" arabic-form="final" 
d="M58 301l-16 31h111l-13 32h-103l-15 32h163l-12 31h-154l-19 32h79q1 17 13 29t29 13h253v-85h63l63 -84v-105h-42q0 -27 -18 -44.5t-45 -17.5t-45 17.5t-19 44.5h-84q-1 -27 -18.5 -44.5t-44 -17.5t-44.5 17.5t-19 44.5h-42v74h-21zM394 196q14 1 23 9.5t9 22t-9 22.5
t-22 9t-22 -9t-9 -22.5t9 -22t21 -9.5zM426 385h-52v-53h94zM184 196q14 1 23 9.5t9 22t-9 22.5t-22.5 9t-22.5 -9t-9 -22.5t9 -22t22 -9.5z" />
    <glyph glyph-name="yammer" unicode="&#xfc87;" arabic-form="final" 
d="M277 507l-122 -316q0 -7 -24.5 -37.5t-87.5 -33.5q-12 0 -20.5 8t-8.5 19.5t8.5 20t20.5 8.5q32 2 45.5 17t13.5 18l10 28l-110 268q-4 12 0.5 22.5t16 14.5t22 0t14.5 -16l87 -212l82 212q6 12 15.5 16t21.5 0t16 -14.5t0 -22.5zM418 494q-8 0 -15.5 -5t-58 -43.5
t-53.5 -50.5q12 -2 70 23.5t66 29.5q14 6 15 23q0 9 -6.5 16t-17.5 7zM439 199q-4 7 -12 11t-66.5 29t-69.5 23q3 -12 53.5 -50.5t58.5 -42.5q13 -11 27 -3q9 6 12 15t-3 18zM487 351q-7 6 -16 4.5t-72 -9.5t-72 -17q9 -8 72.5 -14.5t73.5 -6.5q14 -3 23 12q6 8 3 17t-12 14
z" />
    <glyph glyph-name="cast-off" unicode="&#xfc88;" arabic-form="final" 
d="M29 562l-29 -32l25 -22q-8 -11 -9 -26v-64h43v59l324 -293h-89v-43h136l41 -37l29 32zM134 525l47 -43h262v-237l43 -39v276q-1 19 -13 31t-30 12h-309zM16 376v-43q82 -2 136 -56t56 -136h43q-3 100 -69 166t-166 69zM16 290v-42q46 -1 76 -31.5t31 -75.5h43
q-2 64 -44 106t-106 43zM16 205v-64h64q0 27 -18 45t-46 19z" />
    <glyph glyph-name="help-box" unicode="&#xfc89;" arabic-form="final" 
d="M223 166h54v56h-54v-56zM250 500q-47 -2 -78 -33t-33 -78h55q1 23 17 39t39 16t39 -16t17 -39q-5 -37 -41.5 -57t-41.5 -82h54q6 42 42 66.5t42 72.5q-2 47 -33 78t-78 33zM56 583h388q23 0 39.5 -16.5t16.5 -39.5v-388q0 -23 -16.5 -39.5t-39.5 -16.5h-388
q-23 0 -39.5 16.5t-16.5 39.5v388q0 23 16.5 39.5t39.5 16.5z" />
    <glyph glyph-name="timer-sand-full" unicode="&#xfc8a;" arabic-form="final" 
d="M0 749v-250l166 -166l-166 -166v-250h500v250l-166 166l166 166v250h-500z" />
    <glyph glyph-name="waves" unicode="&#xfc8b;" arabic-form="final" 
d="M0 195q41 20 82.5 34.5t83.5 16.5q41 -4 83.5 -25.5t84.5 -25.5q42 4 83.5 25.5t82.5 25.5v-76q-41 -3 -82.5 -24.5t-83.5 -25.5q-41 4 -83.5 25.5t-84.5 24.5q-42 -1 -83.5 -15.5t-82.5 -34.5v75zM0 345q41 20 82.5 35t83.5 16q41 -4 83.5 -25.5t84.5 -25.5
q42 4 83.5 25.5t82.5 25.5v-75q-41 -4 -82.5 -25.5t-83.5 -25.5q-41 4 -83.5 25.5t-84.5 25.5q-42 -2 -83.5 -16.5t-82.5 -34.5v75zM0 496q41 19 82.5 34t83.5 16q41 -4 83.5 -25.5t84.5 -24.5q42 3 83.5 24.5t82.5 25.5v-75q-41 -4 -82.5 -25.5t-83.5 -25.5
q-41 4 -83.5 25.5t-84.5 25.5q-42 -1 -83.5 -16t-82.5 -35v76z" />
    <glyph glyph-name="alarm-bell" unicode="&#xfc8c;" arabic-form="final" 
d="M325 167v-84h-250v84q59 -35 125 -35t125 35zM500 534q0 21 -14 35t-35 14q-12 0 -23.5 -5.5t-17.5 -15.5q-12 -17 -9 -37t20 -32q13 -10 30 -10h6q32 -86 10 -169.5t-91 -143.5l-26 -18v-44h26v31q58 44 91 107.5t33 136.5q0 57 -20 110q20 15 20 41zM400 383
q-2 -85 -58.5 -141.5t-141.5 -58.5q-85 2 -142 58.5t-58 141.5q1 85 58 142t142 58q85 -1 141.5 -58t58.5 -142z" />
    <glyph glyph-name="alarm-light" unicode="&#xfc8d;" arabic-form="final" 
d="M107 442l-50 51l34 33l50 -51zM273 583v-72h-46v72h46zM443 493l-50 -51l-34 33l50 51zM72 357v-48h-72v48h72zM428 357h72v-48h-72v48zM107 130h286q20 0 33 -13.5t15 -33.5h-382q2 20 15 33.5t33 13.5zM250 487q60 -1 101 -41.5t42 -101.5v-189h-286v189q1 61 42 101.5
t101 41.5z" />
    <glyph glyph-name="android-head" unicode="&#xfc8e;" arabic-form="final" 
d="M150 326q-14 -1 -23 -9.5t-9 -21.5t9 -22t22.5 -9t22.5 9t9 22t-9 21.5t-22 9.5zM350 326q-13 -1 -22 -9.5t-9 -21.5t9 -22t22.5 -9t22.5 9t9 22t-9 21.5t-23 9.5zM250 439q56 -1 105 -23l54 54q8 8 18 8t17.5 -7.5t7.5 -17.5t-8 -19l-45 -44q47 -36 74 -87.5t27 -114.5
h-500q0 63 27 114.5t74 87.5l-45 44q-8 9 -8 19t7.5 17.5t18 7.5t17.5 -8l54 -54q49 22 105 23z" />
    <glyph glyph-name="approval" unicode="&#xfc8f;" arabic-form="final" 
d="M500 333l-56 63l8 84l-82 18l-42 72l-78 -33l-78 33l-42 -72l-82 -18l8 -83l-56 -64l56 -63l-8 -84l82 -19l42 -71l78 33l78 -33l42 72l82 18l-8 84zM204 219l-90 92l32 32l58 -59l150 149l32 -32z" />
    <glyph glyph-name="arrow-collapse-down" unicode="&#xfc90;" arabic-form="final" 
d="M448 331l-198 -199l-198 199l35 35l138 -138v355h50v-355l138 139zM250 132h-250v-49h500v49h-250z" />
    <glyph glyph-name="arrow-collapse-left" unicode="&#xfc91;" arabic-form="final" 
d="M248 135l-199 198l199 198l35 -35l-138 -138h355v-50h-355l139 -138zM49 333v250h-49v-500h49v250z" />
    <glyph glyph-name="arrow-collapse-right" unicode="&#xfc92;" arabic-form="final" 
d="M252 531l199 -198l-199 -198l-35 35l138 138h-355v50h355l-138 138zM451 333v-250h49v500h-49v-250z" />
    <glyph glyph-name="arrow-collapse-up" unicode="&#xfc93;" arabic-form="final" 
d="M52 335l198 199l198 -199l-35 -35l-138 138v-355h-50v355l-138 -138zM250 534h250v49h-500v-49h250z" />
    <glyph glyph-name="arrow-expand-down" unicode="&#xfc94;" arabic-form="final" 
d="M500 534v49h-500v-49h225v-356l-138 139l-35 -36l198 -198l198 198l-35 36l-138 -139v356h225z" />
    <glyph glyph-name="arrow-expand-left" unicode="&#xfc95;" arabic-form="final" 
d="M451 83h49v500h-49v-225h-356l139 138l-36 35l-198 -198l198 -198l36 35l-139 138h356v-225z" />
    <glyph glyph-name="arrow-expand-right" unicode="&#xfc96;" arabic-form="final" 
d="M49 583h-49v-500h49v225h356l-139 -138l36 -35l198 198l-198 198l-36 -35l139 -138h-356v225z" />
    <glyph glyph-name="arrow-expand-up" unicode="&#xfc97;" arabic-form="initial" 
d="M0 132v-49h500v49h-225v356l138 -139l35 36l-198 198l-198 -198l35 -36l138 139v-356h-225z" />
    <glyph glyph-name="book-secure" unicode="&#xfc98;" arabic-form="initial" 
d="M437 644h-187v-217l-78 46l-78 -46v217h-31q-26 0 -44 -17.5t-19 -43.5v-500q1 -26 19 -43.5t44 -17.5h374q26 0 44 17.5t19 43.5v500q-1 26 -19 43.5t-44 17.5zM437 83h-250v126h32v30q0 40 26.5 66.5t67 26.5t66.5 -26.5t27 -66.5v-30h31v-126zM344 239v-30h-63v30
q1 14 9.5 22.5t22 8.5t22.5 -8.5t9 -22.5z" />
    <glyph glyph-name="book-unsecure" unicode="&#xfc99;" arabic-form="initial" 
d="M437 644h-187v-217l-78 46l-78 -46v217h-31q-26 0 -44 -17.5t-19 -43.5v-500q1 -26 19 -43.5t44 -17.5h374q26 0 44 17.5t19 43.5v500q-1 26 -19 43.5t-44 17.5zM437 83h-250v126h32v61q0 41 26.5 67.5t67 26.5t66.5 -26.5t27 -67.5h-62q0 14 -9 22.5t-22.5 8.5t-22 -8.5
t-9.5 -22.5v-61h156v-126z" />
    <glyph glyph-name="bus-articulated-end" unicode="&#xfc9a;" arabic-form="initial" 
d="M500 490l-39 -40l39 -39l-39 -39l39 -40l-39 -39l39 -40h-237q-1 -33 -23 -55t-56 -22t-56.5 22t-22.5 55h-105v184q1 24 15.5 38.5t37.5 14.5h447zM421 450h-92v-65h92v65zM289 450h-105v-65h105v65zM145 450h-106v-65h106v65zM184 293q-17 0 -28 -11.5t-11 -28.5
t11 -28t28 -11t28 11t11 28t-11.5 28.5t-27.5 11.5z" />
    <glyph glyph-name="bus-articulated-front" unicode="&#xfc9b;" arabic-form="initial" 
d="M0 469l34 -35l-34 -33l34 -34l-34 -35l34 -34l-34 -34h46q1 -28 20 -47.5t48 -19.5t48 19.5t20 47.5h136q1 -28 20 -47.5t48 -19.5t48 19.5t20 47.5h46v159q-1 20 -14 33t-32 13h-454zM68 434h57v-56h-57v56zM160 434h90v-56h-90v56zM284 434h91v-56h-91v56zM408 434h58
v-124l-58 45v79zM114 298q15 0 24.5 -9.5t9.5 -24t-9.5 -24t-24.5 -9.5t-24.5 9.5t-9.5 24t9.5 24t24.5 9.5zM386 298q15 0 24.5 -9.5t9.5 -24t-9.5 -24t-24.5 -9.5t-24.5 9.5t-9.5 24t9.5 24t24.5 9.5z" />
    <glyph glyph-name="bus-double-decker" unicode="&#xfc9c;" arabic-form="initial" 
d="M46 514q-19 -1 -32 -13.5t-14 -31.5v-250h46q1 -29 20 -48t48 -19t48 19t20 48h136q1 -29 20 -48t48 -19t48 19t20 48h46v68q-1 20 -14 32.5t-32 12.5h-46v57h92v80q-1 19 -14 31.5t-32 13.5h-408zM34 480h91v-57h-91v57zM160 480h90v-57h-90v57zM284 480h91v-57h-91v57z
M408 480h58v-57h-58v57zM284 389h91v-57h-91v57zM34 389h91v-57h-91v57zM160 389h90v-57h-90v57zM114 253q15 0 24.5 -10t9.5 -24t-9.5 -24t-24.5 -10t-24.5 10t-9.5 24t9.5 24t24.5 10zM386 253q15 0 24.5 -10t9.5 -24t-9.5 -24t-24.5 -10t-24.5 10t-9.5 24t9.5 24t24.5 10
z" />
    <glyph glyph-name="bus-school" unicode="&#xfc9d;" arabic-form="initial" 
d="M46 469q-19 0 -32 -13t-14 -33v-159h46q1 -28 20 -47.5t48 -19.5t48 19.5t20 47.5h136q1 -28 20 -47.5t48 -19.5t48 19.5t20 47.5h46v68q-1 20 -14 32.5t-32 13.5h-46v45q0 20 -12.5 33t-31.5 13h-318zM284 434h91v-56h-91v56zM34 434h91v-56h-91v56zM160 434h90v-56h-90
v56zM114 298q15 0 24.5 -9.5t9.5 -24t-9.5 -24t-24.5 -9.5t-24.5 9.5t-9.5 24t9.5 24t24.5 9.5zM386 298q15 0 24.5 -9.5t9.5 -24t-9.5 -24t-24.5 -9.5t-24.5 9.5t-9.5 24t9.5 24t24.5 9.5z" />
    <glyph glyph-name="bus-side" unicode="&#xfc9e;" arabic-form="initial" 
d="M46 469q-19 0 -32 -13t-14 -33v-159h46q1 -28 20 -47.5t48 -19.5t48 19.5t20 47.5h136q1 -28 20 -47.5t48 -19.5t48 19.5t20 47.5h46v159q-1 20 -14 33t-32 13h-408zM34 434h91v-56h-91v56zM160 434h90v-56h-90v56zM284 434h91v-56h-91v56zM408 434h58v-124l-58 45v79z
M114 298q15 0 24.5 -9.5t9.5 -24t-9.5 -24t-24.5 -9.5t-24.5 9.5t-9.5 24t9.5 24t24.5 9.5zM386 298q15 0 24.5 -9.5t9.5 -24t-9.5 -24t-24.5 -9.5t-24.5 9.5t-9.5 24t9.5 24t24.5 9.5z" />
    <glyph glyph-name="camera-gopro" unicode="&#xfc9f;" arabic-form="initial" 
d="M451 508h-126q-21 0 -35 -14t-15 -35v-126q1 -21 15 -35t35 -15h126q21 1 35 15t14 35v126q0 21 -14 35t-35 14zM388 320q-32 2 -53.5 23t-21.5 53t21.5 53.5t53.5 21.5t53.5 -21.5t21.5 -53.5t-21 -53t-54 -23zM388 358q-15 1 -26 11.5t-11 26.5t10.5 26.5t26.5 10.5
t26.5 -10.5t10.5 -26.5t-10.5 -26.5t-26.5 -11.5zM250 258v250h-201q-21 0 -35 -14t-14 -35v-252q0 -21 14 -35t35 -14h402q21 0 35 14t14 35v51h-250zM200 333h-151v126h151v-126z" />
    <glyph glyph-name="camera-metering-center" unicode="&#xfca0;" arabic-form="initial" 
d="M49 534h402q21 -1 35 -15.5t14 -35.5v-300q0 -21 -14 -35.5t-35 -15.5h-402q-21 1 -35 15.5t-14 35.5v300q0 21 14 35.5t35 15.5zM49 483v-300h402v300h-402zM250 371q16 0 26.5 -11t10.5 -27t-10.5 -27t-26.5 -11t-26.5 11t-10.5 27t10.5 27t26.5 11zM250 445
q41 -1 71 -25t40 -62h-41q-8 22 -26.5 36t-43.5 14t-43.5 -14t-26.5 -36h-41q10 38 40 62t71 25zM250 221q-41 1 -71 25t-40 62h41q8 -22 26.5 -36t43.5 -14t43.5 14t26.5 36h41q-10 -38 -40 -62t-71 -25z" />
    <glyph glyph-name="camera-metering-matrix" unicode="&#xfca1;" arabic-form="initial" 
d="M49 534h402q21 -1 35 -15.5t14 -35.5v-300q0 -21 -14 -35.5t-35 -15.5h-402q-21 1 -35 15.5t-14 35.5v300q0 21 14 35.5t35 15.5zM49 483v-300h402v300h-402zM87 445h138v-42q-16 -6 -27.5 -17.5t-17.5 -27.5h-93v87zM413 445v-87h-93q-6 16 -17.5 27.5t-27.5 17.5v42
h138zM413 221h-138v42q16 6 27.5 17.5t17.5 27.5h93v-87zM87 221v87h93q6 -16 17.5 -27.5t27.5 -17.5v-42h-138zM250 371q16 0 26.5 -11t10.5 -27t-10.5 -27t-26.5 -11t-26.5 11t-10.5 27t10.5 27t26.5 11z" />
    <glyph glyph-name="camera-metering-partial" unicode="&#xfca2;" arabic-form="initial" 
d="M49 534h402q21 -1 35 -15.5t14 -35.5v-300q0 -21 -14 -35.5t-35 -15.5h-402q-21 1 -35 15.5t-14 35.5v300q0 21 14 35.5t35 15.5zM49 483v-300h402v300h-402zM250 445q41 -1 71 -25t40 -62h-41q-8 22 -26.5 36t-43.5 14t-43.5 -14t-26.5 -36h-41q10 38 40 62t71 25z
M250 221q-41 1 -71 25t-40 62h41q8 -22 26.5 -36t43.5 -14t43.5 14t26.5 36h41q-10 -38 -40 -62t-71 -25z" />
    <glyph glyph-name="camera-metering-spot" unicode="&#xfca3;" arabic-form="initial" 
d="M49 534h402q21 -1 35 -15.5t14 -35.5v-300q0 -21 -14 -35.5t-35 -15.5h-402q-21 1 -35 15.5t-14 35.5v300q0 21 14 35.5t35 15.5zM49 483v-300h402v300h-402zM250 371q16 0 26.5 -11t10.5 -27t-10.5 -27t-26.5 -11t-26.5 11t-10.5 27t10.5 27t26.5 11z" />
    <glyph glyph-name="cannabis" unicode="&#xfca4;" arabic-form="initial" 
d="M234 22v144q-10 -19 -36 -39.5t-72 -37.5q0 3 13.5 31.5t46.5 57.5q-31 -7 -77 -2t-109 33q3 3 50.5 20.5t114.5 11.5q-38 20 -80 70.5t-79 142.5q6 2 78 -33.5t132 -122.5q-39 121 -7 230t41 116q54 -127 54.5 -213t-19.5 -132q59 86 131 121.5t78 33.5
q-37 -92 -79 -142.5t-80 -70.5q67 6 114.5 -11.5t50.5 -20.5q-63 -28 -109 -33t-77 2q33 -29 46.5 -57.5t13.5 -31.5q-46 17 -72 37.5t-36 39.5v-144h-32z" />
    <glyph glyph-name="car-convertible" unicode="&#xfca5;" arabic-form="initial" 
d="M340 469l-22 -17l57 -74h-91v34h-34v-34h-204q-19 -1 -32 -13.5t-14 -32.5v-68h46q1 -28 20 -47.5t48 -19.5t48 19.5t20 47.5h136q1 -28 20 -47.5t48 -19.5t48 19.5t20 47.5h46v68q-1 20 -14 32.5t-32 13.5h-46zM114 298q15 0 24.5 -9.5t9.5 -24t-9.5 -24t-24.5 -9.5
t-24.5 9.5t-9.5 24t9.5 24t24.5 9.5zM386 298q15 0 24.5 -9.5t9.5 -24t-9.5 -24t-24.5 -9.5t-24.5 9.5t-9.5 24t9.5 24t24.5 9.5z" />
    <glyph glyph-name="car-estate" unicode="&#xfca6;" arabic-form="initial" 
d="M46 469h294l68 -91h46q19 -1 32 -13.5t14 -32.5v-68h-46q-1 -28 -20 -47.5t-48 -19.5t-48 19.5t-20 47.5h-136q-1 -28 -20 -47.5t-48 -19.5t-48 19.5t-20 47.5h-46v159q1 20 14 33t32 13zM34 434v-56h182v56h-182zM250 434v-56h117l-43 56h-74zM114 298q-15 0 -24.5 -9.5
t-9.5 -24t9.5 -24t24.5 -9.5t24.5 9.5t9.5 24t-9.5 24t-24.5 9.5zM386 298q-15 0 -24.5 -9.5t-9.5 -24t9.5 -24t24.5 -9.5t24.5 9.5t9.5 24t-9.5 24t-24.5 9.5z" />
    <glyph glyph-name="car-hatchback" unicode="&#xfca7;" arabic-form="initial" 
d="M340 469h-226l-114 -137v-68h46q1 -28 20 -47.5t48 -19.5t48 19.5t20 47.5h136q1 -28 20 -47.5t48 -19.5t48 19.5t20 47.5h46v68q-1 20 -14 32.5t-32 13.5h-46zM125 434h91v-56h-136zM250 434h80l44 -56h-124v56zM114 298q15 0 24.5 -9.5t9.5 -24t-9.5 -24t-24.5 -9.5
t-24.5 9.5t-9.5 24t9.5 24t24.5 9.5zM386 298q15 0 24.5 -9.5t9.5 -24t-9.5 -24t-24.5 -9.5t-24.5 9.5t-9.5 24t9.5 24t24.5 9.5z" />
    <glyph glyph-name="car-pickup" unicode="&#xfca8;" arabic-form="initial" 
d="M340 469h-124v-91h-216v-114h46q1 -28 20 -47.5t48 -19.5t48 19.5t20 47.5h136q1 -28 20 -47.5t48 -19.5t48 19.5t20 47.5h46v68q-1 20 -14 32.5t-32 13.5h-46zM250 434h80l44 -56h-124v56zM114 298q15 0 24.5 -9.5t9.5 -24t-9.5 -24t-24.5 -9.5t-24.5 9.5t-9.5 24
t9.5 24t24.5 9.5zM386 298q15 0 24.5 -9.5t9.5 -24t-9.5 -24t-24.5 -9.5t-24.5 9.5t-9.5 24t9.5 24t24.5 9.5z" />
    <glyph glyph-name="car-side" unicode="&#xfca9;" arabic-form="initial" 
d="M340 469l68 -91h46q19 -1 32 -13.5t14 -32.5v-68h-46q-1 -28 -20 -47.5t-48 -19.5t-48 19.5t-20 47.5h-136q-1 -28 -20 -47.5t-48 -19.5t-48 19.5t-20 47.5h-46v68q1 20 14 32.5t32 13.5l68 91h226zM216 434h-85l-43 -56h128v56zM250 434v-56h117l-43 56h-74zM114 298
q-15 0 -24.5 -9.5t-9.5 -24t9.5 -24t24.5 -9.5t24.5 9.5t9.5 24t-9.5 24t-24.5 9.5zM386 298q-15 0 -24.5 -9.5t-9.5 -24t9.5 -24t24.5 -9.5t24.5 9.5t9.5 24t-9.5 24t-24.5 9.5z" />
    <glyph glyph-name="car-sports" unicode="&#xfcaa;" arabic-form="initial" 
d="M250 441h-114l-68 -57h-22q-19 0 -32 -13t-14 -32v-68h50q8 -21 25 -33.5t39 -12.5t39 12.5t25 33.5h144q8 -21 25 -33.5t39 -12.5t39.5 12.5t24.5 33.5h50v22q-1 18 -15 27.5t-31 18.5zM97 361l51 46h91l91 -46h-233zM114 327q15 0 24.5 -9.5t9.5 -24t-9.5 -24.5
t-24.5 -10t-24.5 10t-9.5 24.5t9.5 24t24.5 9.5zM386 327q15 0 24.5 -9.5t9.5 -24t-9.5 -24.5t-24.5 -10t-24.5 10t-9.5 24.5t9.5 24t24.5 9.5z" />
    <glyph glyph-name="caravan" unicode="&#xfcab;" arabic-form="initial" 
d="M49 533q-21 -1 -35 -15t-14 -35v-276h49q1 -32 22.5 -53t53.5 -21t53.5 21t21.5 53h300v50h-75v226q0 21 -14 35t-35 15h-327zM75 408h100v-76h-100v76zM250 408h100v-151h-100v151zM124 233q11 -2 18 -8.5t7 -17.5t-7 -18t-17.5 -7t-17.5 7t-7 18t7 17.5t17 8.5z" />
    <glyph glyph-name="cctv" unicode="&#xfcac;" arabic-form="initial" 
d="M404 522q-14 1 -28 -7l-217 -126q-18 -11 -23.5 -30t5.5 -38l37 -64q11 -19 30.5 -24.5t37.5 5.5l45 26q11 -18 29 -26v-45q0 -21 14.5 -34.5t36.5 -14.5h129v49h-129v45q16 8 26 23.5t11 33t-9 31.5l64 37q18 11 23.5 30.5t-5.5 38.5l-37 64q-14 24 -40 26zM106 315
l-106 -17l87 -152l68 83z" />
    <glyph glyph-name="chart-donut" unicode="&#xfcad;" arabic-form="initial" 
d="M275 582v-75q65 -11 107 -58t43 -115q0 -35 -12 -64l66 -39q21 47 21 103q-2 99 -65 167.5t-160 80.5zM250 159q-75 1 -124.5 50t-50.5 125q1 68 43 115t107 58v75q-97 -12 -160 -80.5t-65 -167.5q2 -107 72.5 -177.5t177.5 -72.5q62 0 114 27.5t88 74.5l-66 38
q-23 -32 -58.5 -48.5t-77.5 -16.5z" />
    <glyph glyph-name="chart-donut-variant" unicode="&#xfcae;" arabic-form="initial" 
d="M275 582q97 -12 160 -80.5t65 -167.5q0 -56 -21 -103l-66 39q12 30 12 64q-1 68 -43 115t-107 58v75zM250 159q42 0 77.5 17t58.5 48l66 -38q-36 -47 -88 -74.5t-114 -27.5q-107 2 -177.5 73t-72.5 177q2 99 65 168t160 80v-75q-65 -11 -107 -58t-43 -115
q1 -76 50.5 -125t124.5 -50zM250 484q63 -1 106 -44t44 -106q-1 -58 -35.5 -98.5t-89.5 -49.5v77q22 9 36 27.5t14 43.5q-1 31 -22 52.5t-53 22.5l-14 -1l-39 66q25 10 53 10zM100 334q0 35 14.5 64t40.5 52l37 -67q-17 -21 -17 -49q0 -25 14 -44t36 -27v-77
q-55 9 -89.5 49.5t-35.5 98.5z" />
    <glyph glyph-name="chart-line-variant" unicode="&#xfcaf;" arabic-form="initial" 
d="M37 170l151 150l99 -99l213 239l-35 36l-178 -201l-99 101l-188 -189z" />
    <glyph glyph-name="chili-hot" unicode="&#xfcb0;" arabic-form="initial" 
d="M430 423l36 23q15 -7 24.5 -21.5t9.5 -32.5v-366q-16 -6 -125 62t-125 272v32q0 16 8 31t23 22l45 -22l48 31zM313 641q37 0 62 -23.5t31 -58.5q24 -7 41.5 -23t27.5 -38l-45 -29l-56 32l-48 -32l-53 27q20 46 69 63q-9 19 -29 20v62zM187 392q6 -181 66.5 -254.5
t120.5 -111.5q-15 -6 -124 62t-124 272v32q0 16 7.5 31t21.5 22l43 -20q-11 -15 -11 -33zM202 469l-53 27q20 46 67 63q-7 19 -29 20v62q38 0 63 -23v-39q22 -1 29 -20q-23 -7 -42 -27.5t-35 -62.5zM63 392q4 -181 65.5 -254.5t121.5 -111.5q-16 -6 -125 62t-125 272v32
q0 16 8.5 31t22.5 22l41 -20q-9 -15 -9 -33zM76 469l-51 27q18 46 67 63q-7 19 -29 20v62q37 0 63 -23v-39q20 -1 29 -20q-23 -7 -42 -27.5t-37 -62.5z" />
    <glyph glyph-name="chili-medium" unicode="&#xfcb1;" arabic-form="initial" 
d="M406 453l51 31q20 -10 31.5 -29.5t11.5 -42.5v-490q-21 -8 -166.5 83t-167.5 364v43q0 21 11.5 41t29.5 29l61 -29l66 41zM250 744q49 0 83 -31t42 -78q31 -10 55.5 -31.5t36.5 -50.5l-61 -38l-72 42l-66 -42l-69 36q25 61 90 84q-10 25 -39 27v82zM84 412
q6 -242 87 -340.5t163 -149.5q-21 -8 -167 83t-167 364v43q0 21 10.5 41t30.5 29l55 -27q-12 -20 -12 -43zM102 515l-71 36q27 61 92 84q-12 25 -39 27v82q49 0 82 -31v-51q29 -2 39 -27q-29 -10 -55.5 -37.5t-47.5 -82.5z" />
    <glyph glyph-name="chili-mild" unicode="&#xfcb2;" arabic-form="initial" 
d="M338 479l62 38q24 -12 38 -36t14 -52v-595q-25 -10 -202 100.5t-202 442.5v52q0 26 13 50.5t35 35.5l76 -36l78 50zM148 833q59 0 102 -37.5t50 -95.5q38 -12 67.5 -38t46.5 -61l-76 -46l-88 51l-78 -51l-86 43q33 75 109 102q-12 31 -47 33v100z" />
    <glyph glyph-name="cloud-braces" unicode="&#xfcb3;" arabic-form="initial" 
d="M125 166q-53 2 -88.5 37t-36.5 88q1 50 32.5 84t79.5 40q20 38 56 61t82 24q58 -1 100 -35.5t54 -89.5q40 -4 67.5 -33.5t28.5 -71.5q-1 -44 -30.5 -73.5t-73.5 -30.5h-271zM386 333h-11q-9 0 -15 5.5t-6 15.5v21q0 17 -12 29t-30 12h-31v-41h31v-21q0 -18 12.5 -30
t29.5 -12q-17 0 -29.5 -12t-12.5 -30v-20h-31v-42h31q18 0 30 12t12 30v20q0 10 6 15.5t15 5.5h11v42zM114 333v-42h11q9 0 15 -5.5t6 -15.5v-20q0 -18 12 -30t30 -12h31v42h-31v20q0 18 -12.5 30t-29.5 12q17 0 29.5 12t12.5 30v21h31v41h-31q-18 0 -30 -12t-12 -29v-21
q0 -10 -6 -15.5t-15 -5.5h-11z" />
    <glyph glyph-name="cloud-tags" unicode="&#xfcb4;" arabic-form="initial" 
d="M125 166q-53 2 -88.5 37t-36.5 88q1 50 32.5 84t79.5 40q20 38 56 61t82 24q58 -1 100 -35.5t54 -89.5q40 -4 67.5 -33.5t28.5 -71.5q-1 -44 -30.5 -73.5t-73.5 -30.5h-271zM190 408l-96 -96l96 -95l29 29l-67 66l67 67zM310 408l-29 -29l67 -67l-67 -66l29 -29l96 95z
" />
    <glyph glyph-name="console-line" unicode="&#xfcb5;" arabic-form="initial" 
d="M283 171v81h217v-81h-217zM162 333l-162 162h113l135 -134q11 -13 11 -29.5t-11 -27.5l-133 -133h-115z" />
    <glyph glyph-name="corn" unicode="&#xfcb6;" arabic-form="initial" 
d="M225 333h-55q31 -19 55 -42v42zM124 358q8 98 42 161t84 64q50 -1 85 -65t41 -163q56 27 124 28q-95 -61 -120 -174t-130 -126q-100 13 -125.5 126t-124.5 174q68 -1 124 -25zM225 358v50h-69l-6 -50h75zM225 433v50h-49q-10 -22 -15 -50h64zM225 508v43q-21 -12 -37 -43
h37zM250 558v-50h25v-25h-25v-50h50v-25h-50v-50h75v-25h-75v-50h50v-25h-44q22 -27 35.5 -54.5t16.5 -51.5q20 32 31 80t11 107q-3 91 -31 154t-69 65z" />
    <glyph glyph-name="currency-chf" unicode="&#xfcb7;" arabic-form="initial" 
d="M76 680h424v-78h-347v-231h309v-76h-309v-115h78v-78h-78v-116h-77v116h-76v78h76v500z" />
    <glyph glyph-name="currency-cny" unicode="&#xfcb8;" arabic-form="initial" 
d="M211 -28v201h-201v79h201v14l-34 67h-167v81h128l-138 280h90l160 -329l160 329h90l-138 -280h128v-81h-167l-34 -67v-14h201v-79h-201v-201h-78z" />
    <glyph glyph-name="currency-eth" unicode="&#xfcb9;" arabic-form="initial" 
d="M250 745l-250 -422l250 -150l250 150zM0 272l250 -351l250 351l-250 -150z" />
    <glyph glyph-name="currency-jpy" unicode="&#xfcba;" arabic-form="initial" 
d="M211 -28v201h-201v79h201v14l-34 67h-167v81h128l-138 280h90l160 -329l160 329h90l-138 -280h128v-81h-167l-34 -67v-14h201v-79h-201v-201h-78z" />
    <glyph glyph-name="currency-krw" unicode="&#xfcbb;" arabic-form="initial" 
d="M0 558h49l35 -150h99l34 150h66l34 -150h99l35 150h49l-33 -150h33v-50h-44l-11 -50h55v-50h-67l-33 -150h-66l-34 150h-100l-34 -150h-66l-33 150h-67v50h55l-11 50h-44v50h33zM278 358h-56l-10 -50h76zM133 183l17 75h-34zM172 358h-78l12 -50h55zM367 183l17 75h-34z
M406 358h-78l11 -50h55zM250 483l-16 -75h32z" />
    <glyph glyph-name="currency-sign" unicode="&#xfcbc;" arabic-form="initial" 
d="M498 332q0 40 -13 77.5t-36 70.5l49 49l-52 53l-48 -50q-69 48 -148 48t-148 -49l-48 49l-54 -51l50 -49q-48 -68 -48 -147.5t49 -147.5l-49 -49l53 -52l50 48q67 -47 147 -47t147 47l50 -48l51 52l-49 49q23 33 35 70.5t12 76.5zM250 159q-74 1 -123 50t-50 123
q1 75 50 123.5t123 50.5q74 -2 123 -50.5t50 -123.5q-1 -74 -50 -123t-123 -50z" />
    <glyph glyph-name="currency-twd" unicode="&#xfcbd;" arabic-form="initial" 
d="M0 360h500v-54h-167v-167h167v-56h-167q-23 0 -38.5 16.5t-17.5 39.5v167h-72l-130 -223l-48 27l114 196h-141v54zM56 583h388v-56h-388v56z" />
    <glyph glyph-name="desktop-classic" unicode="&#xfcbe;" arabic-form="initial" 
d="M100 583q-21 0 -35.5 -14t-15.5 -35v-201q1 -21 15.5 -35t35.5 -15h300q21 1 35.5 15t15.5 35v201q-1 21 -15.5 35t-35.5 14h-300zM100 534h300v-201h-300v201zM49 258q-21 0 -35 -14t-14 -37v-75q0 -21 14 -35t35 -14h402q21 0 35 14t14 35v75q0 23 -14 37t-35 14h-402z
M150 207h301v-75h-301v75zM175 189v-38h100v38h-100zM325 189v-38h100v38h-100z" />
    <glyph glyph-name="dip-switch" unicode="&#xfcbf;" arabic-form="initial" 
d="M25 534h99q11 -1 18 -8t8 -18v-350q-1 -11 -8 -18t-18 -8h-99q-11 1 -18 8t-7 18v350q0 11 7 18t18 8zM200 534h100q11 -1 18 -8t7 -18v-350q0 -11 -7 -18t-18 -8h-100q-11 1 -18 8t-7 18v350q0 11 7 18t18 8zM376 534h99q11 -1 18 -8t7 -18v-350q0 -11 -7 -18t-18 -8
h-99q-11 1 -18 8t-8 18v350q1 11 8 18t18 8zM49 183h51v125h-51v-125zM225 358h50v125h-50v-125zM400 183h51v125h-51v-125z" />
    <glyph glyph-name="donkey" unicode="&#xfcc0;" arabic-form="initial" 
d="M494 382l-1 2l-86 86v26q-1 13 -13 13q-5 0 -10 -4l-96 -87h-169q-28 -2 -44 -25l-70 -69q-6 -9 -4.5 -19.5t10.5 -17.5q15 -10 30 0l27 24v-154h78v104h130v-104h78v135q1 22 16 36l37 37l53 -26q6 -3 12 -3q13 1 20.5 8.5t7.5 18.5t-6 19z" />
    <glyph glyph-name="dots-horizontal-circle" unicode="&#xfcc1;" arabic-form="initial" 
d="M250 583q107 -2 177.5 -72.5t72.5 -177.5q-2 -107 -72.5 -177.5t-177.5 -72.5q-107 2 -177.5 72.5t-72.5 177.5q2 107 72.5 177.5t177.5 72.5zM250 371q-16 0 -26.5 -11t-10.5 -27t10.5 -27t26.5 -11t26.5 11t10.5 27t-10.5 27t-26.5 11zM112 371q-16 0 -26.5 -11
t-10.5 -27t10.5 -27t26.5 -11t26.5 11t10.5 27t-11 27t-26 11zM388 371q-15 0 -26 -11t-11 -27t10.5 -27t26.5 -11t26.5 11t10.5 27t-10.5 27t-26.5 11z" />
    <glyph glyph-name="dots-vertical-circle" unicode="&#xfcc2;" arabic-form="initial" 
d="M0 333q2 107 72.5 177.5t177.5 72.5q107 -2 177.5 -72.5t72.5 -177.5q-2 -107 -72.5 -177.5t-177.5 -72.5q-107 2 -177.5 72.5t-72.5 177.5zM213 333q0 -16 10.5 -27t26.5 -11t26.5 11t10.5 27t-10.5 27t-26.5 11t-26.5 -11t-10.5 -27zM213 195q0 -16 10.5 -26.5
t26.5 -10.5t26.5 10.5t10.5 26.5t-10.5 26.5t-26.5 10.5t-26.5 -11t-10.5 -26zM213 471q0 -15 10.5 -26t26.5 -11t26.5 10.5t10.5 26.5t-10.5 26.5t-26.5 10.5t-26.5 -10.5t-10.5 -26.5z" />
    <glyph glyph-name="ear-hearing" unicode="&#xfcc3;" arabic-form="initial" 
d="M389 99q-13 0 -22 6q-14 6 -25 20.5t-22 45.5t-29 49.5t-37 32.5q-17 13 -33 28.5t-32 41.5q-22 42 -22 82q1 60 40 99t99 39t98.5 -39t39.5 -99h56q-1 84 -56 138.5t-138 55.5q-85 -1 -139 -55.5t-56 -138.5q1 -54 30 -108q19 -34 40 -54t38.5 -33t29.5 -25.5t18 -31.5
q13 -38 30.5 -61.5t46.5 -37.5q21 -9 45 -9q47 1 78.5 32.5t32.5 77.5h-56q0 -23 -15.5 -38.5t-39.5 -17.5zM129 583l-39 38q-41 -41 -65.5 -96.5t-24.5 -119.5t24 -119t66 -97l39 39q-36 34 -54.5 79.5t-18.5 97.5t19.5 98t53.5 80zM236 405q1 -30 20.5 -49.5t49 -19.5
t49 19.5t19.5 49.5t-19.5 50t-49 20t-49 -20t-20.5 -50z" />
    <glyph glyph-name="elephant" unicode="&#xfcc4;" arabic-form="initial" 
d="M438 245q-2 -11 -13 -11t-12 11v176q-3 36 -32.5 61.5t-68.5 25.5h-212q-42 -1 -70.5 -29.5t-29.5 -70.5v-250h100v100h125v-100h100v112q1 11 12.5 11t12.5 -11v-37q1 -33 22 -54t53.5 -21t53.5 21t21 54v50h-62v-38z" />
    <glyph glyph-name="eventbrite" unicode="&#xfcc5;" arabic-form="initial" 
d="M500 478q0 25 -14.5 45.5t-38.5 29.5q-38 7 -192 18t-183 12q-34 -3 -55 -29q-17 -22 -17 -51v-337q0 -20 8 -38t25 -30q21 -16 48 -15.5t167 12.5l173 14q32 3 55.5 24.5t23.5 53.5v291zM391 446q-3 -5 -5 -11q-6 -15 -22 -14h-71q-44 0 -60 1q-6 0 -8 -5
q-4 -26 -10 -53h96h8q11 -2 15 -7t3 -16t-7.5 -21.5t-19.5 -10.5h-102q-5 1 -6 -5l-12 -57v-3h134q15 2 21 -14q4 -13 -2 -24.5t-18 -18.5q-6 -2 -13 -3l-164 -2q-13 -1 -24 6q-12 11 -9 26q5 22 23.5 113t25.5 123q1 16 13 25.5t27 8.5l84 -2l80 -2q30 -1 23 -34z" />
    <glyph glyph-name="food-croissant" unicode="&#xfcc6;" arabic-form="initial" 
d="M500 170l-75 50l75 50v-100zM325 270l100 150l75 -99l-100 -75zM75 220l-75 -50v100zM175 270l-75 -24l-100 75l75 99zM300 496l100 -51l-125 -175h-50l-125 175l100 51h100z" />
    <glyph glyph-name="forklift" unicode="&#xfcc7;" arabic-form="initial" 
d="M100 533v-176h-51q-21 0 -35 -14t-14 -35v-101q0 -32 21 -53t53.5 -21t53.5 21t22 53h50q1 -32 22 -53t53.5 -21t53.5 21t21 53v101l-100 225h-150zM376 507v-349h124v37h-87v312h-37zM137 495h93l82 -187h-175v187zM75 245q15 0 26 -11t11 -26.5t-11 -26.5t-26.5 -11
t-26.5 11t-11 26.5t11 26.5t27 11zM275 245q16 0 26.5 -11t10.5 -26.5t-10.5 -26.5t-26 -11t-26.5 11t-11 26.5t11 26.5t26 11z" />
    <glyph glyph-name="fuel" unicode="&#xfcc8;" arabic-form="initial" 
d="M0 612h88q13 0 21 -9l62 -60l23 22q18 18 42 18h176q22 0 41 -18l29 -29q18 -19 18 -41v-382q-1 -24 -18 -41.5t-41 -17.5h-294q-24 0 -41.5 17.5t-17.5 41.5v323q0 23 18 41l22 23l-53 54h-75v58zM236 524v-58h176v58h-176zM247 347l-58 60h-42v-42l58 -59v-93l-58 -58
v-42h42l58 58h93l59 -58h42v42l-59 58v93l59 59v42h-42l-59 -60h-93zM264 290h60v-60h-60v60z" />
    <glyph glyph-name="gesture" unicode="&#xfcc9;" arabic-form="initial" 
d="M48 474q14 15 27 25.5t20 8.5q10 -6 5 -19t-14 -24.5t-41 -65.5q-33 -55 -37 -108q1 -54 38 -82q15 -12 34 -15t38 3q22 7 42 27t42 49q26 33 56 62.5t56 32.5q33 -1 40.5 -16.5t7.5 -32.5q-76 -16 -112 -63t-35 -84.5t25.5 -61.5t62 -25t78 35.5t52.5 133.5h67v68h-69
q-1 38 -25.5 75.5t-84.5 39.5q-47 -1 -83 -28t-53 -49q-14 -16 -35 -42l-28 -33q-6 -6 -14 -14.5t-17.5 -8.5t-13.5 14.5t4 39t24.5 52.5t26.5 44q16 23 26 43t10 47q-3 44 -26 62t-43 17q-28 -1 -48.5 -14t-27.5 -21q-14 -14 -23 -26zM304 152q-7 0 -13.5 5t-7.5 16
q0 14 18 38t61 38q-7 -56 -25 -76.5t-33 -20.5z" />
    <glyph glyph-name="google-analytics" unicode="&#xfcca;" arabic-form="initial" 
d="M444 583q23 0 39.5 -16.5t16.5 -39.5v-388q0 -23 -16.5 -39.5t-39.5 -16.5h-111v444q0 23 16.5 39.5t39.5 16.5h55zM56 83q-23 0 -39.5 16.5t-16.5 39.5v55q0 23 16.5 39.5t39.5 16.5h111v110q0 24 16 40t40 16h96v-333h-263z" />
    <glyph glyph-name="google-assistant" unicode="&#xfccb;" arabic-form="initial" 
d="M150 571q63 -2 105.5 -44.5t44.5 -106.5q-2 -63 -44.5 -106t-105.5 -44q-64 1 -106.5 44t-43.5 106q1 64 43.5 106.5t106.5 44.5zM475 445q11 0 18 -7t7 -17.5t-7 -17.5t-17.5 -7t-17.5 7t-7 17.5t7 17.5t17 7zM388 396q27 -1 44.5 -19t17.5 -44t-18 -44t-44 -18t-44 18
t-18 44t18 44t44 19zM388 246q33 -2 54 -23t21 -53.5t-21.5 -53.5t-53.5 -21t-53.5 21t-21.5 53.5t21.5 53.5t53.5 23z" />
    <glyph glyph-name="headphones-off" unicode="&#xfccc;" arabic-form="initial" 
d="M231 609q-99 -3 -164 -68.5t-67 -162.5v-180q0 -24 13 -42l141 140v30h-102v52q1 76 51.5 126t127.5 53q38 0 71 -14.5t58 -40.5l37 37q-33 33 -75 50.5t-91 19.5zM467 544l-454 -455l33 -32l63 64h45v44l154 154v-198h76q33 1 54.5 22.5t22.5 54.5v180q0 42 -14 80
l53 53zM406 417q4 -19 4 -39v-52h-95z" />
    <glyph glyph-name="high-definition" unicode="&#xfccd;" arabic-form="initial" 
d="M0 513h70v-145h73v145h72v-360h-72v145h-73v-145h-70v360zM285 513h108q47 -2 77 -32t30 -76v-144q0 -46 -30 -76t-77 -32h-108v360zM393 226q15 0 25 9.5t12 25.5v144q-2 16 -12 25.5t-25 9.5h-36v-214h36z" />
    <glyph glyph-name="home-assistant" unicode="&#xfcce;" arabic-form="initial" 
d="M481 302h-42v-190h-166v79l66 67l17 -4q21 0 34.5 14.5t13.5 35.5t-13.5 35t-35 14t-35 -14t-14.5 -35l2 -16l-35 -37v130q11 7 18.5 18.5t7.5 25.5q-1 21 -15 35t-35 14t-35 -14t-15 -35q0 -14 7.5 -26t19.5 -18v-130l-36 37l2 16q-1 21 -14.5 35t-34.5 14t-35 -14
t-14 -35t14 -35q13 -15 35 -15l17 4l66 -67v-79h-166v190h-41q-8 0 -13.5 0.5t-5.5 4.5t5.5 10.5t14.5 14.5l206 206q6 7 12 11.5t11.5 4.5t11.5 -4.5t12 -11.5l95 -94v23h47v-71l66 -65l14 -15q5 -7 5 -10t-5.5 -3.5t-13.5 -0.5zM143 325q9 0 15 -6t6 -15t-6 -15t-15 -6
t-15 6t-6 15t5.5 15t15.5 6zM356 325q9 0 15 -6t6 -15t-6 -15t-15 -6t-15.5 6t-6.5 15t6.5 15t15.5 6zM249 446q9 0 15 -6t6 -15.5t-6 -15t-15 -5.5t-15 5.5t-6 15t6 15.5t15 6z" />
    <glyph glyph-name="home-automation" unicode="&#xfccf;" arabic-form="initial" 
d="M250 546l-250 -225h75v-201h350v201h75zM250 408q44 -1 82.5 -16.5t67.5 -43.5l-30 -31q-23 24 -54 36.5t-66 12.5t-66 -12.5t-54 -36.5l-30 31q29 28 67.5 43.5t82.5 16.5zM250 325q27 -1 50 -10t40 -27l-30 -30q-23 24 -60 24t-60 -24l-30 30q17 17 40 26.5t50 10.5z
M250 241q17 0 29.5 -12t12.5 -29.5t-12.5 -29.5t-29.5 -12t-29.5 12t-12.5 29.5t12.5 29.5t29.5 12z" />
    <glyph glyph-name="home-circle" unicode="&#xfcd0;" arabic-form="initial" 
d="M426 509q-35 37 -80.5 55.5t-95.5 18.5t-95.5 -19t-81 -54.5t-54.5 -81t-19 -95.5t19 -95.5t54.5 -81t81 -54.5t95.5 -19t95.5 19t81 54.5t54.5 81t19 95.5t-18.5 95.5t-55.5 80.5zM375 333v-150h-88v125h-74v-125h-88v150h-49l174 174l187 -174h-62z" />
    <glyph glyph-name="language-go" unicode="&#xfcd1;" arabic-form="initial" 
d="M292 593q12 0 20 -7.5t8 -19t-8.5 -20t-20 -8.5t-19 8.5t-7.5 20t7.5 19t19.5 7.5zM138 585q11 0 18.5 -8t7.5 -19.5t-7.5 -19t-19 -7.5t-20 7.5t-8.5 19t8.5 19.5t20.5 8zM429 639q19 0 32 -13t13 -32t-10.5 -31.5t-27.5 -16.5l-3 -5q22 -68 21 -130t-2 -67
q19 -12 35.5 -23t11.5 -23q-9 -11 -26.5 -6.5t-19.5 6.5q6 -159 -14.5 -203t-25.5 -39q3 -2 14 -21t2 -33q-15 -9 -33.5 5.5t-21.5 17.5q-3 -1 -49 -15t-91 -15q-43 1 -75 15t-33 15q-19 -17 -37.5 -25t-25.5 2q-3 14 9 33t14 21q-48 36 -45.5 136t6.5 113q-7 -7 -23 -15.5
t-24 8.5q-1 17 21.5 27.5t25.5 10.5q-9 84 -6.5 133t7.5 71q-16 3 -25 15.5t-9 31.5t13 32t31 13q12 0 22 -5q26 19 69.5 31t95.5 13q49 -1 90.5 -11t68.5 -28q10 7 25 7zM320 632q-26 0 -43.5 -18.5t-17.5 -44.5t17.5 -43.5t43.5 -17.5t43.5 17.5t17.5 43.5t-17.5 44.5
t-43.5 18.5zM164 624q-26 -1 -44 -18.5t-18 -44t18 -44t44 -17.5t44 17.5t18 44t-18 44t-44 18.5zM245 476q-15 0 -24.5 -4.5t-9.5 -11.5t15 -12v-19q0 -7 8 -7h23q8 0 8 7v19q15 5 15 12t-9.5 11.5t-25.5 4.5z" />
    <glyph glyph-name="language-r" unicode="&#xfcd2;" arabic-form="initial" 
d="M250 525q-106 -1 -177 -48.5t-73 -118.5q1 -63 58.5 -108t147.5 -56v-53h85v53q32 3 60 11l35 -64h97l-59 97q36 23 56 53.5t20 66.5q-2 71 -73 118.5t-177 48.5zM288 461q80 0 130.5 -28t52.5 -87q0 -33 -16 -55t-44 -37q-4 1 -6 4q-7 3 -16 6l-7 2q4 -1 36.5 12.5
t37.5 67.5q-5 54 -39 66t-39 10h-172v-179q-49 14 -78 41t-29 62q1 48 54.5 81t134.5 34zM292 361h52q1 0 11.5 -3t11.5 -20q-1 -18 -11.5 -22t-11.5 -3h-52v48zM291 251h23q6 0 11 -4.5t10 -12.5q-20 -3 -44 -3v20z" />
    <glyph glyph-name="lava-lamp" unicode="&#xfcd3;" arabic-form="initial" 
d="M138 833l-109 -721h442l-109 721h-224zM222 680q19 0 30 -12t11 -29t-12 -29t-28.5 -12t-28.5 12t-12 29t12 29t28 12zM278 528q24 -3 39.5 -18.5t15.5 -38.5t-15.5 -38.5t-39 -15.5t-39.5 15.5t-16 38.5t15.5 38.5t39.5 18.5zM222 333q36 0 59.5 -23.5t23.5 -60
t-23.5 -60t-59 -23.5t-58.5 23.5t-23 60t24 60t57 23.5zM29 54l109 -109l-109 -112h442l-109 112l109 109h-442z" />
    <glyph glyph-name="led-strip" unicode="&#xfcd4;" arabic-form="initial" 
d="M0 430l326 -328l21 20l38 -39l39 39l-39 37l39 39l37 -39l39 39l-39 38l20 21l-328 326zM76 430l77 77l251 -250l-78 -78zM115 430l38 -40l40 40l-40 38zM174 372l37 -39l39 39l-39 37zM231 314l38 -38l38 38l-38 38zM289 257l37 -39l39 39l-39 37z" />
    <glyph glyph-name="locker" unicode="&#xfcd5;" arabic-form="initial" 
d="M84 749h332q35 0 59.5 -23.5t24.5 -58.5v-668q0 -35 -24.5 -58.5t-59.5 -23.5h-332q-35 0 -59.5 23.5t-24.5 58.5v668q0 35 24.5 58.5t59.5 23.5zM84 667v-668h332v668h-332zM166 292h84v-168h-84v168zM166 583h168v-63h-168v63zM166 458h168v-62h-168v62z" />
    <glyph glyph-name="locker-multiple" unicode="&#xfcd6;" arabic-form="initial" 
d="M46 560h408q19 0 32 -13t14 -32v-364q-1 -19 -14 -32t-32 -13h-408q-19 0 -32 13t-14 32v364q1 19 14 32t32 13zM272 515v-364h182v364h-182zM46 515v-364h182v364h-182zM92 311h44v-92h-44v92zM92 469h90v-34h-90v34zM92 401h90v-34h-90v34zM318 311h46v-92h-46v92z
M318 469h90v-34h-90v34zM318 401h90v-34h-90v34z" />
    <glyph glyph-name="map-marker-outline" unicode="&#xfcd7;" arabic-form="initial" 
d="M250 530q39 0 64 -25.5t25 -64t-25 -64t-64 -25.5t-64 25.5t-25 64t25 64t64 25.5zM250 690q107 -1 177.5 -71.5t72.5 -178.5q-15 -153 -125 -302.5t-125 -161.5q-15 12 -125 161.5t-125 302.5q2 108 72.5 178.5t177.5 71.5zM250 620q-76 -2 -127 -53t-53 -127
q-5 -23 23 -97t157 -250q129 176 157 250t23 97q-2 76 -53 127t-127 53z" />
    <glyph glyph-name="metronome" unicode="&#xfcd8;" arabic-form="initial" 
d="M233 627l-100 -27l-130 -490q-3 -6 -3 -14q1 -25 17.5 -41t41.5 -16h348q25 0 41 16t18 41q0 8 -3 14l-40 148l-44 -45l5 -30h-110l83 83l-41 41l-124 -124h-110l102 379h98l44 -159l46 49l-39 148zM211 532v-283l44 43v240h-44zM459 452l-82 -83l-20 20l-41 -41l81 -82
l42 41l-21 20l82 83z" />
    <glyph glyph-name="metronome-tick" unicode="&#xfcd9;" arabic-form="initial" 
d="M250 649l-107 -29l-142 -531l-1 -10q1 -27 19 -44.5t44 -17.5h374q26 0 44 17.5t19 44.5l-1 10l-142 531zM198 579h104l110 -407h-131v157h-62v-157h-131zM219 546v-124h-32v-63h126v63h-32v124h-62z" />
    <glyph glyph-name="micro-sd" unicode="&#xfcda;" arabic-form="initial" 
d="M126 644q-26 0 -44.5 -17.5t-18.5 -43.5v-219l-63 -62v-219q1 -26 19 -43.5t44 -17.5h374q26 0 44 17.5t19 43.5v500q-1 26 -19 43.5t-44 17.5h-311zM156 583h63v-126h-63v126zM250 583h63v-126h-63v126zM344 583h62v-126h-62v126z" />
    <glyph glyph-name="mixer" unicode="&#xfcdb;" arabic-form="initial" 
d="M91 535l144 -194q6 -7 0 -15l-148 -199q-14 -15 -34.5 -15.5t-36 13.5t-16.5 33.5t11 36.5l103 139l-103 137q-12 16 -11 36t16 35l4 2q17 13 38 10t33 -19zM409 535q12 16 33 19t38 -10l4 -2q15 -14 16 -34t-11 -37l-103 -137l103 -139q12 -17 11 -36.5t-16.5 -33.5
t-36 -13.5t-34.5 15.5l-148 199q-6 8 0 15z" />
    <glyph glyph-name="movie-roll" unicode="&#xfcdc;" arabic-form="initial" 
d="M250 583q107 -2 177.5 -72.5t72.5 -177.5q-2 -107 -72.5 -177.5t-177.5 -72.5q-107 2 -177.5 72.5t-72.5 177.5q2 107 72.5 177.5t177.5 72.5zM250 534q-27 -1 -44.5 -19t-17.5 -44t17.5 -44t44.5 -18t44.5 18t17.5 44t-17.5 44t-44.5 19zM60 396q-8 -26 3.5 -48.5
t37 -31t47.5 3t30.5 37t-3.5 47.5t-37.5 30t-47 -3t-30.5 -35zM440 396q-9 24 -30.5 35t-47 3.5t-37.5 -30t-3.5 -47.5t30.5 -37t47.5 -3.5t37 31t3.5 48.5zM133 171q22 -15 46.5 -11t40 25.5t12 46.5t-25.5 40t-46.5 11.5t-40.5 -25t-11.5 -46.5t25.5 -41zM367 171
q21 16 25.5 41t-11.5 46.5t-40.5 25t-46 -11.5t-25.5 -40t11.5 -46.5t40.5 -25.5t46 11zM250 371q-16 0 -26.5 -11t-10.5 -27t10.5 -27t26.5 -11t26.5 11t10.5 27t-10.5 27t-26.5 11z" />
    <glyph glyph-name="mushroom" unicode="&#xfcdd;" arabic-form="initial" 
d="M250 583q107 -2 177.5 -72.5t72.5 -177.5q0 -21 -14 -35t-35 -15h-402q-21 1 -35 15t-14 35q2 107 72.5 177.5t177.5 72.5zM250 433q21 1 35 15t14 35t-14 35.5t-35 14.5t-35 -14.5t-14 -35.5t14 -35t35 -15zM376 333q21 0 35 14.5t14 36t-14 35.5t-35 14t-36 -14
t-15 -35.5t15 -36t36 -14.5zM124 333q21 0 36 14.5t15 36t-15 35.5t-36 14t-35 -14t-14 -35.5t14 -36t35 -14.5zM325 258l32 -112l2 -14q-1 -21 -15 -35t-35 -14h-118q-21 0 -35 14t-15 35l2 14l32 112h150z" />
    <glyph glyph-name="mushroom-outline" unicode="&#xfcde;" arabic-form="initial" 
d="M49 333h402q-1 72 -43 124t-108 70q-3 -19 -17 -31.5t-33 -12.5t-33 12.5t-17 31.5q-66 -18 -108 -70t-43 -124zM250 583q107 -2 177.5 -72.5t72.5 -177.5q0 -21 -14 -35t-35 -15h-402q-21 1 -35 15t-14 35q2 107 72.5 177.5t177.5 72.5zM287 207h-74l-22 -75h118z
M325 258l25 -88l7 -24l2 -14q-1 -21 -15 -35t-35 -14h-118l-11 1q-21 6 -32 23q-10 16 -5 38l32 113h150zM350 459q21 -2 35.5 -16t14.5 -35t-14.5 -35t-35.5 -14t-35.5 14t-14.5 35t14.5 35t35.5 16zM150 459q21 -2 35.5 -16t14.5 -35t-14.5 -35t-35.5 -14t-35.5 14
t-14.5 35t14.5 35t35.5 16z" />
    <glyph glyph-name="nintendo-switch" unicode="&#xfcdf;" arabic-form="medial" 
d="M201 123h-73q-37 1 -62 26t-26 62v244q1 37 26 62t62 26h73v-420zM128 583q-55 -1 -91 -37t-37 -91v-244q1 -55 37 -91t91 -37h114v500h-114zM78 433q0 -20 13.5 -33t33 -13t33 13t13.5 33t-13.5 33.5t-33 13.5t-33 -13.5t-13.5 -33.5zM391 358q21 0 35 -14.5t14 -36
t-14 -35.5t-36 -14t-36 14t-14 35.5t14 36t37 14.5zM372 83q55 1 91 37t37 91v244q-1 55 -37 91t-91 37h-81v-500h81z" />
    <glyph glyph-name="null" unicode="&#xfce0;" arabic-form="medial" 
d="M250 637q43 0 80.5 -16.5t69.5 -46.5l51 66l49 -37l-61 -77q25 -40 40 -88.5t15 -104.5q-3 -129 -71 -215t-173 -89q-43 0 -80.5 16.5t-69.5 46.5l-51 -66l-49 37l61 77q-25 40 -40 88.5t-15 104.5q3 129 71 215t173 89zM250 577q-77 -3 -129 -71t-54 -173q2 -80 35 -141
l259 334q-47 50 -111 51zM250 89q77 3 129 71t54 173q-2 80 -35 141l-259 -334q47 -50 111 -51z" />
    <glyph glyph-name="passport" unicode="&#xfce1;" arabic-form="medial" 
d="M63 644q-26 0 -44 -17.5t-19 -43.5v-500q1 -26 19 -43.5t44 -17.5h374q26 0 44 17.5t19 43.5v500q-1 26 -19 43.5t-44 17.5h-374zM250 551q66 -2 110.5 -45.5t45.5 -109.5q-1 -67 -45.5 -111t-110.5 -46q-66 2 -110.5 46t-45.5 111q1 66 45.5 109.5t110.5 45.5zM250 520
q-19 -29 -29 -63h58q-9 34 -29 63zM209 513q-44 -15 -68 -56h46q8 29 22 56zM291 513q14 -27 22 -56h46q-24 40 -68 56zM129 427q-3 -15 -3 -31t3 -32h52q-1 15 -1 31t1 32h-52zM213 427q-3 -15 -3 -31t3 -32h74q1 15 1 31.5t-1 31.5h-74zM319 427q1 -16 1 -31.5t-1 -31.5
h52q3 15 3 31.5t-3 31.5h-52zM141 333q24 -40 68 -55q-14 26 -22 55h-46zM221 333q10 -34 29 -63q20 29 29 63h-58zM313 333q-9 -29 -22 -55q44 15 68 55h-46zM94 177h312v-62h-312v62z" />
    <glyph glyph-name="periodic-table-co2" unicode="&#xfce2;" arabic-form="medial" 
d="M58 490q-24 -1 -41 -17t-17 -40v-172q0 -24 17 -40t41 -17h85v57h-85v172h85v57h-85zM229 490q-24 -1 -41 -17t-17 -40v-172q0 -24 17 -40t41 -17h56q24 1 41 17t17 40v172q0 24 -17 40t-41 17h-56zM229 433h56v-172h-56v172zM371 390v-43h86v-43h-43q-17 0 -29.5 -12
t-13.5 -31v-85h129v43h-86v42h43q18 0 31 12q12 12 12 31v43q0 19 -12.5 31t-30.5 12h-86z" />
    <glyph glyph-name="pipe" unicode="&#xfce3;" arabic-form="medial" 
d="M500 283h-49v-50h-151v75h50v50h-50v125q-1 21 -15 35.5t-35 15.5h-201v49h-49v-200h49v50h151v-75h-50v-50h50v-125q1 -21 15 -35.5t35 -15.5h201v-49h49v200z" />
    <glyph glyph-name="pipe-disconnected" unicode="&#xfce4;" arabic-form="medial" 
d="M350 408v-50h-200v50h50v25h-151v-50h-49v200h49v-49h201q21 -1 35 -15.5t15 -35.5v-75h50zM200 258v-75q1 -21 15 -35.5t35 -15.5h201v-49h49v200h-49v-50h-151v25h50v50h-200v-50h50z" />
    <glyph glyph-name="power-socket-eu" unicode="&#xfce5;" arabic-form="medial" 
d="M137 371q16 0 27 -11t11 -27t-10.5 -27t-27 -11t-27 11t-10.5 27t10.5 27t26.5 11zM363 371q16 0 26.5 -11t10.5 -27t-10.5 -27t-27 -11t-27 11t-10.5 27t11 27t27 11zM55 583h390q23 0 39 -16t16 -39v-390q0 -23 -16 -39t-39 -16h-390q-23 0 -39 16t-16 39v390
q0 23 16 39t39 16zM250 534q-86 -3 -142 -59t-59 -142q3 -86 59 -142t142 -59q86 3 142 59t59 142q-3 86 -59 142t-142 59z" />
    <glyph glyph-name="power-socket-uk" unicode="&#xfce6;" arabic-form="medial" 
d="M312 290h88v-57h-88v57zM100 290h88v-57h-88v57zM225 483h50v-100h-50v100zM55 583q-23 0 -39 -16t-16 -39v-390q0 -23 16 -39t39 -16h390q23 0 39 16t16 39v390q0 23 -16 39t-39 16h-390zM250 534q86 -3 142 -59t59 -142q-3 -86 -59 -142t-142 -59q-86 3 -142 59
t-59 142q3 86 59 142t142 59z" />
    <glyph glyph-name="power-socket-us" unicode="&#xfce7;" arabic-form="medial" 
d="M150 459h50v-126h-50v126zM55 583h390q23 0 39 -16t16 -39v-390q0 -23 -16 -39t-39 -16h-390q-23 0 -39 16t-16 39v390q0 23 16 39t39 16zM250 534q-86 -3 -142 -59t-59 -142q3 -86 59 -142t142 -59q86 3 142 59t59 142q-3 86 -59 142t-142 59zM300 445h50v-99h-50v99z
M213 226q0 16 10.5 27t26.5 11t26.5 -10.5t10.5 -27.5v-19h-74v19z" />
    <glyph glyph-name="rice" unicode="&#xfce8;" arabic-form="medial" 
d="M500 351h-58q-6 21 -15 40.5t-22 34.5l85 137l-42 26l-81 -127q-7 6 -14 10t-15 7l23 90l-49 14l-20 -86q-21 5 -42 5q-70 -2 -122.5 -43.5t-69.5 -107.5h-58q1 -77 42.5 -137.5t107.5 -92.5v-44h200v44q66 32 107.5 92.5t42.5 137.5zM250 452q49 -1 86.5 -28.5
t52.5 -72.5h-278q15 45 52.5 72.5t86.5 28.5z" />
    <glyph glyph-name="ring" unicode="&#xfce9;" arabic-form="medial" 
d="M250 396l-124 174l49 74h150l49 -74zM359 495l-37 -53q52 -21 83 -66.5t32 -105.5q-1 -78 -54.5 -131t-132.5 -56q-79 3 -132.5 56t-54.5 131q1 60 32 105.5t83 66.5l-37 53q-63 -30 -101.5 -89.5t-39.5 -135.5q3 -105 73 -176t177 -72q107 1 177 72t73 176
q-1 76 -39.5 135.5t-101.5 89.5z" />
    <glyph glyph-name="sass" unicode="&#xfcea;" arabic-form="medial" 
d="M250 583q107 -2 177.5 -72.5t72.5 -177.5q-2 -107 -72.5 -177.5t-177.5 -72.5q-107 2 -177.5 72.5t-72.5 177.5q2 107 72.5 177.5t177.5 72.5zM200 249q6 -19 0 -37l-2 -5l-1 -2q-5 -10 -11 -17q-12 -12 -25 -16t-19.5 0t-3.5 17.5t17 27.5t28 22.5t15 8.5zM407 476
q-10 34 -55.5 43.5t-99.5 -9.5q-31 -11 -62 -27.5t-56 -40.5q-28 -27 -36.5 -49t-6.5 -31q10 -34 43 -58l55 -41q-9 -4 -36 -21t-41 -41q-9 -22 -2.5 -37t14.5 -18q26 -6 49 4.5t36.5 30.5t14.5 41.5t-6 35.5q15 5 39 2q32 -6 42.5 -20t8.5 -23.5t-6.5 -14t-8 -6.5t-3 -4
t4 -1.5t13 7.5t10.5 23q1 21 -17 38.5t-52 18.5q-28 -1 -40 -6l-1 2q-25 21 -51.5 42t-27.5 50q-2 12 15 38t85 63q60 27 100.5 24.5t49.5 -20.5q11 -27 -21 -61.5t-93 -43.5q-22 -1 -34.5 4t-15.5 9q-5 6 -6 4q-3 -3 -1 -8t9.5 -12t19.5 -11t36.5 -3.5t58.5 12.5
q38 15 60.5 48t14.5 67z" />
    <glyph glyph-name="send-secure" unicode="&#xfceb;" arabic-form="medial" 
d="M478 231v11q-1 24 -17.5 40t-40 16t-39.5 -16t-17 -40v-11q-10 0 -16.5 -6.5t-6.5 -16.5v-91q0 -10 6.5 -16.5t16.5 -6.5h114q9 0 15.5 6.5t6.5 16.5v91q0 10 -6.5 16.5t-15.5 6.5zM454 231h-68v11q1 14 10.5 23.5t24 9.5t24 -9.5t9.5 -23.5v-11zM478 367l-478 -205v159
l341 46l-341 46v159z" />
    <glyph glyph-name="soy-sauce" unicode="&#xfcec;" arabic-form="medial" 
d="M330 518q0 21 4 38l8 25h25l37 104h34v62h-376v-62h34l37 -104h25q12 -21 12 -63q-10 -47 -85 -169.5t-85 -249.5v-84q2 -45 73.5 -70.5t176.5 -25.5t176.5 25.5t73.5 70.5v84q-10 127 -85 249.5t-85 169.5zM250 206q-35 0 -58.5 24.5t-23.5 59.5t23.5 58.5t58.5 23.5
t58.5 -23.5t23.5 -58.5t-23.5 -59.5t-58.5 -24.5z" />
    <glyph glyph-name="standard-definition" unicode="&#xfced;" arabic-form="medial" 
d="M285 513h108q47 -2 77 -32t30 -76v-144q0 -46 -30 -76t-77 -32h-108v360zM393 226q15 0 25 9.5t12 25.5v144q-2 16 -12 25.5t-25 9.5h-36v-214h36zM70 513h145v-73h-145v-72h73q30 0 50 -20t22 -50v-72q-2 -30 -22 -50.5t-50 -22.5h-143v73h143v72h-73q-30 0 -50 20
t-20 50v72q0 30 20 50.5t50 22.5z" />
    <glyph glyph-name="surround-sound-2-0" unicode="&#xfcee;" arabic-form="medial" 
d="M389 472h55q23 -1 39.5 -16.5t16.5 -39.5v-166q0 -24 -16.5 -39.5t-39.5 -16.5h-55q-23 1 -39.5 16.5t-16.5 39.5v166q0 24 16.5 39.5t39.5 16.5zM389 416v-166h55v166h-55zM167 194h-167v56l111 166h-111v56h111q23 -1 39.5 -16.5t16.5 -39.5q0 -18 -10 -31l-90 -135
h100v-56zM250 194q-12 1 -19.5 8.5t-7.5 19.5t7.5 20t19.5 8t19.5 -8t7.5 -20t-7.5 -19.5t-19.5 -8.5z" />
    <glyph glyph-name="surround-sound-3-1" unicode="&#xfcef;" arabic-form="medial" 
d="M281 177q-14 1 -22.5 9.5t-8.5 22t8.5 22t22 8.5t22 -8.5t8.5 -22t-8.5 -22t-21.5 -9.5zM468 489v-250h32v-62h-126v62h32v188h-32l32 62h62zM0 489h126q26 -1 43.5 -18.5t17.5 -43.5v-188q0 -26 -17.5 -43.5t-43.5 -18.5h-126v62h126v63h-94v62h94v63h-126v62z" />
    <glyph glyph-name="surround-sound-5-1" unicode="&#xfcf0;" arabic-form="medial" 
d="M281 177q-14 1 -22.5 9.5t-8.5 22t8.5 22t22 8.5t22 -8.5t8.5 -22t-8.5 -22t-21.5 -9.5zM468 489v-250h32v-62h-126v62h32v188h-32l32 62h62zM63 302q-26 0 -44 17.5t-19 44.5v125h187v-62h-124v-63h63q26 0 43.5 -17.5t17.5 -44.5v-63q0 -26 -17.5 -43.5t-43.5 -18.5
h-126v62h126v63h-63z" />
    <glyph glyph-name="surround-sound-7-1" unicode="&#xfcf1;" arabic-form="medial" 
d="M250 153q-15 2 -25 12t-10 25.5t10 25.5t25 10t25 -10t10 -25.5t-10 -25.5t-25 -12zM465 513v-287h35v-73h-143v73h36v214h-36l36 73h72zM215 513l-108 -360h-72l86 287h-121v73h215z" />
    <glyph glyph-name="television-classic" unicode="&#xfcf2;" arabic-form="medial" 
d="M154 558l-36 -35l65 -64h-134q-21 -2 -35 -16t-14 -35v-250q0 -22 14 -36t35 -14h402q21 0 35 14t14 36v250q0 21 -14 35t-35 16h-134l65 64l-36 35l-96 -96zM49 408h327v-250h-327v250zM438 408q10 0 17.5 -7t7.5 -17.5t-7.5 -17.5t-18 -7t-17.5 7t-7 17.5t7 17.5t18 7z
M438 333q10 0 17.5 -7t7.5 -17.5t-7.5 -17.5t-18 -7t-17.5 7t-7 17.5t7 17.5t18 7z" />
    <glyph glyph-name="textbox-password" unicode="&#xfcf3;" arabic-form="medial" 
d="M376 459h124v-252h-124v-49q0 -11 6.5 -18t17.5 -8h51v-49h-63q-11 0 -24 7t-14 18q-1 -11 -13.5 -18t-24.5 -7h-62v49h50q11 1 18 8t7 18v350q0 11 -7 18t-18 8h-50v49h62q13 0 25 -7t13 -18q1 11 14 18t24 7h63v-49h-51q-11 -1 -17.5 -8t-6.5 -18v-49zM0 459h275v-51
h-226v-150h226v-51h-275v252zM451 258v150h-75v-150h75zM162 333q0 16 -10.5 27t-26.5 11t-26.5 -11t-10.5 -27t10.5 -27t26.5 -11t26.5 11t10.5 27zM275 361q-12 11 -26.5 10t-25.5 -13t-10.5 -26.5t12 -25.5t25.5 -11t25 10v56z" />
    <glyph glyph-name="thought-bubble" unicode="&#xfcf4;" arabic-form="medial" 
d="M37 170q15 -1 26 -11.5t11 -26.5t-10.5 -26.5t-26.5 -10.5t-26.5 10.5t-10.5 26.5t10.5 26.5t26.5 11.5zM162 246q27 -2 44.5 -19.5t17.5 -43.5t-17.5 -44t-44 -18t-44 18t-17.5 44t17.5 43.5t43.5 19.5zM312 270q-22 0 -41.5 9t-33.5 25q-13 -16 -32 -25t-43 -9
q-37 1 -63.5 23.5t-35.5 59.5q-28 10 -45.5 35t-17.5 57q1 43 29.5 71.5t70.5 29.5q9 0 18 -2q29 25 70 27q22 0 41.5 -9t33.5 -26q13 17 32 26t43 9q37 -2 63.5 -24t35.5 -59q28 -10 45.5 -35t17.5 -57q-1 -43 -29.5 -71.5t-70.5 -29.5l-18 2q-29 -26 -70 -27z" />
    <glyph glyph-name="thought-bubble-outline" unicode="&#xfcf5;" arabic-form="isolated" 
d="M37 170q15 -1 26 -11.5t11 -26.5t-10.5 -26.5t-26.5 -10.5t-26.5 10.5t-10.5 26.5t10.5 26.5t26.5 11.5zM162 246q27 -2 44.5 -19.5t17.5 -43.5t-17.5 -44t-44 -18t-44 18t-17.5 44t17.5 43.5t43.5 19.5zM312 270q-22 0 -41.5 9t-33.5 25q-13 -16 -32 -25t-43 -9
q-37 1 -63.5 23.5t-35.5 59.5q-28 10 -45.5 35t-17.5 57q1 43 29.5 71.5t70.5 29.5l18 -2q29 25 70 27q22 0 41.5 -9t33.5 -26q13 17 32 26t43 9q37 -2 63.5 -24t35.5 -59q28 -10 45.5 -35t17.5 -57q-1 -43 -29.5 -71.5t-70.5 -29.5l-18 2q-29 -26 -70 -27zM100 496
q-21 0 -35.5 -15t-14.5 -36t14.5 -35t35.5 -14q12 0 23 5q-11 -13 -11 -31q0 -21 14.5 -35t37 -14t36.5 16l37 43l38 -43q15 -16 37 -16q20 0 33.5 11.5t17.5 30.5q14 -16 37 -18q21 0 35.5 15t14.5 36t-14.5 35t-35.5 14q-12 0 -23 -5q11 13 11 31q0 21 -14.5 35t-37 14
t-36.5 -16l-38 -43l-37 43q-13 16 -37 16q-20 0 -33.5 -11.5t-17.5 -30.5q-14 16 -37 18zM162 208q-11 -2 -18 -8.5t-7 -17t7 -18t17.5 -7.5t18 7.5t7.5 18t-7 17t-18 8.5z" />
    <glyph glyph-name="trackpad" unicode="&#xfcf6;" arabic-form="isolated" 
d="M49 558h402q21 0 35 -14.5t14 -35.5v-350q0 -21 -14 -35.5t-35 -14.5h-402q-21 0 -35 14.5t-14 35.5v350q0 21 14 35.5t35 14.5zM49 508v-200h402v200h-402zM49 158h176v100h-176v-100zM451 158v100h-176v-100h176z" />
    <glyph glyph-name="ultra-high-definition" unicode="&#xfcf7;" arabic-form="isolated" 
d="M182 447h46v-92h44v92h46v-228h-46v92h-44v-92h-46v228zM364 447h68q29 -1 48 -20t20 -48v-92q-1 -29 -20 -48t-48 -20h-68v228zM432 265q10 0 16 6t6 16v92q0 10 -6 16t-16 6h-24v-136h24zM136 287q0 -29 -19 -48t-48.5 -19t-48.5 19t-20 48v160h46v-160q0 -10 6 -16
t16 -6t16 6t8 16v160h44v-160z" />
    <glyph glyph-name="van-passenger" unicode="&#xfcf8;" arabic-form="isolated" 
d="M46 480q-19 -1 -32 -13.5t-14 -31.5v-182h46q1 -29 20 -48t48 -19t48 19t20 48h136q1 -29 20 -48t48 -19t48 19t20 48h46v91q-1 19 -14 32t-32 13l-68 91h-340zM46 446h90v-57h-90v57zM182 446h90v-57h-90v57zM318 446h57l44 -57h-101v57zM114 287q15 0 24.5 -10t9.5 -24
t-9.5 -24t-24.5 -10t-24.5 10t-9.5 24t9.5 24t24.5 10zM386 287q15 0 24.5 -10t9.5 -24t-9.5 -24t-24.5 -10t-24.5 10t-9.5 24t9.5 24t24.5 10z" />
    <glyph glyph-name="van-utility" unicode="&#xfcf9;" arabic-form="isolated" 
d="M46 480q-19 -1 -32 -13.5t-14 -31.5v-182h46q1 -29 20 -48t48 -19t48 19t20 48h136q1 -29 20 -48t48 -19t48 19t20 48h46v91q-1 19 -14 32t-32 13l-68 91h-340zM318 446h57l44 -57h-101v57zM114 287q15 0 24.5 -10t9.5 -24t-9.5 -24t-24.5 -10t-24.5 10t-9.5 24t9.5 24
t24.5 10zM386 287q15 0 24.5 -10t9.5 -24t-9.5 -24t-24.5 -10t-24.5 10t-9.5 24t9.5 24t24.5 10z" />
    <glyph glyph-name="vanish" unicode="&#xfcfa;" arabic-form="isolated" 
d="M361 306v54h139v-54h-139zM328 450l79 80l40 -40l-80 -79zM223 222h54v-139h-54v139zM223 583h54v-139h-54v139zM53 176l80 79l39 -39l-79 -80zM53 490l40 40l79 -80l-39 -39zM139 306h-139v54h139v-54zM447 176l-40 -40l-79 80l39 39z" />
    <glyph glyph-name="video-3d" unicode="&#xfcfb;" arabic-form="isolated" 
d="M0 513h143q30 -2 50 -22.5t22 -50.5v-214q-2 -30 -22 -50.5t-50 -22.5h-143v73h143v72h-108v70h108v72h-143v73zM285 513h108q47 -2 77 -32t30 -76v-144q0 -46 -30 -76t-77 -32h-108v360zM393 226q15 0 25 9.5t12 25.5v144q-2 16 -12 25.5t-25 9.5h-36v-214h36z" />
    <glyph glyph-name="wall" unicode="&#xfcfc;" arabic-form="isolated" 
d="M25 246h225v-126h-225v126zM0 396h150v-126h-150v126zM175 396h150v-126h-150v126zM350 396h150v-126h-150v126zM275 246h200v-126h-200v126zM25 546h200v-126h-200v126zM250 546h225v-126h-225v126z" />
    <glyph glyph-name="xmpp" unicode="&#xfcfd;" arabic-form="isolated" 
d="M250 234q-43 45 -71 107.5t-29 128.5l-150 51q4 -107 68 -188t145 -129q-44 -33 -89 -34v-25q24 0 56.5 9.5t69.5 29.5q37 -20 69.5 -29.5t56.5 -9.5v25q-45 1 -89 34q82 48 145.5 129t67.5 188l-150 -51q0 -66 -28.5 -128.5t-71.5 -107.5z" />
    <glyph glyph-name="account-multiple-plus-outline" unicode="&#xfcfe;" arabic-form="isolated" 
d="M281 478q-31 0 -51.5 -21t-20.5 -51.5t20.5 -51t51.5 -21.5q23 0 42 13q17 -13 41 -13q32 1 52 21.5t20 51t-20 51.5t-52 21q-23 0 -41 -13q-17 13 -42 13zM281 448q17 0 29 -12t12 -30t-11.5 -30t-29 -12t-29.5 12t-12 30t12 30t29 12zM364 448q18 0 30 -12t12 -30
t-12 -30t-30 -12q-10 0 -20 6q10 16 10 36t-10 36q10 6 20 6zM62 416v-62h-62v-42h62v-62h42v62h63v42h-63v62h-42zM281 312q-38 0 -84.5 -17t-50.5 -51v-56h354v56q-4 34 -51 51t-85 17q-17 0 -41 -4q-23 4 -42 4zM281 281q40 -2 71.5 -14.5t33.5 -22.5v-26h-209v26
q2 10 33 22.5t71 14.5zM398 278q30 -6 50 -16t21 -18v-26h-52v26q-1 20 -19 34z" />
    <glyph glyph-name="account-plus-outline" unicode="&#xfcff;" arabic-form="isolated" 
d="M318 515q-38 -1 -63.5 -26.5t-25.5 -64.5t25.5 -64.5t63.5 -25.5t63.5 25.5t25.5 64.5t-25.5 64.5t-63.5 26.5zM318 471q20 0 33.5 -13.5t13.5 -34t-13.5 -33.5t-33.5 -13t-33.5 13t-13.5 33.5t13.5 34t33.5 13.5zM68 447v-68h-68v-46h68v-68h46v68h68v46h-68v68h-46z
M318 311q-51 0 -113 -23t-69 -69v-68h364v68q-7 46 -69 69t-113 23zM318 267q53 -1 94.5 -18t43.5 -30v-24h-276v24q2 13 43.5 30t94.5 18z" />
    <glyph glyph-name="allo" unicode="&#xfd00;" arabic-form="isolated" 
d="M500 333v-225q0 -19 -17 -24t-27 10l-40 52q-70 -63 -166 -63q-103 0 -176.5 73.5t-73.5 177t73.5 176.5t176.5 73t176.5 -73t73.5 -177z" />
    <glyph glyph-name="artist" unicode="&#xfd01;" arabic-form="isolated" 
d="M211 280q39 0 84 -11q-32 -35 -32 -81q0 -36 21 -66h-284v53q0 47 72.5 76t138.5 29zM408 386h92v-53h-52v-145q0 -27 -20 -46.5t-46.5 -19.5t-46 20t-19.5 46.5t19.5 46t46.5 19.5q12 0 26 -6v138zM211 333q-43 0 -74.5 31t-31.5 74t31.5 74.5t74.5 31.5t74 -31.5
t31 -74.5t-31 -74t-74 -31z" />
    <glyph glyph-name="atlassian" unicode="&#xfd02;" arabic-form="isolated" 
d="M148 352q-4 5 -9.5 6t-9 -2t-6.5 -7l-122 -245q-4 -12 6 -19q4 -3 7 -2h172q8 0 12 8q27 61 13 134t-63 127zM238 576q-47 -74 -51.5 -158t32.5 -162l83 -165q4 -8 12 -8h172q12 2 14 14q1 4 -2 7l-115 232l-120 240q-3 4 -8 6t-10 -0.5t-7 -5.5z" />
    <glyph glyph-name="azure" unicode="&#xfd03;" arabic-form="isolated" 
d="M276 528l-162 -346l-114 1l127 219zM293 499l207 -361h-382l233 42l-122 145z" />
    <glyph glyph-name="basketball" unicode="&#xfd04;" arabic-form="isolated" 
d="M8 267q23 9 47 8q51 0 88 -31l-79 -79q-39 46 -56 102zM339 388q74 -55 160 -27q1 -8 1 -28q0 -38 -17.5 -86t-43.5 -77l-158 158zM169 217q40 -58 17 -126q-54 15 -95 48zM255 302l158 -158q-82 -71 -191 -60q8 25 8 54q0 24 -10.5 55t-24.5 51zM170 270q-35 31 -81 40
t-88 -5q-1 8 -1 28q0 38 17.5 86t43.5 77l167 -168zM339 440q-51 62 -23 135q23 -6 53 -23t49 -33zM492 399q-23 -9 -47 -8q-41 0 -79 24l78 77q33 -42 48 -93zM255 355l-168 167q82 71 191 60q-8 -25 -8 -53t12 -62t30 -54z" />
    <glyph glyph-name="battery-charging-wireless" unicode="&#xfd05;" arabic-form="isolated" 
d="M261 524h-47v47h-143v-47h-48q-10 -1 -16.5 -7.5t-6.5 -17.5v-380q0 -11 6.5 -17.5t16.5 -6.5h238q10 0 17 6.5t8 17.5v380q-1 11 -8 17.5t-17 7.5zM430 502l-34 -34q56 -60 56 -135.5t-56 -134.5l34 -34q70 74 70 169t-70 169zM363 434l-34 -34q28 -29 28 -67t-28 -67
l34 -34q41 44 41 101t-41 101z" />
    <glyph glyph-name="battery-charging-wireless-10" unicode="&#xfd06;" arabic-form="isolated" 
d="M430 502l-34 -34q56 -60 56 -135.5t-56 -134.5l34 -34q70 74 70 169t-70 169zM363 434l-34 -34q28 -29 28 -67t-28 -67l34 -34q41 44 41 101t-41 101zM261 524h-47v47h-143v-47h-48q-10 -1 -16.5 -7.5t-6.5 -17.5v-380q0 -11 6.5 -17.5t16.5 -6.5h238q10 0 17 6.5t8 17.5
v380q-1 11 -8 17.5t-17 7.5zM238 178h-191v298h191v-298z" />
    <glyph glyph-name="battery-charging-wireless-20" unicode="&#xfd07;" arabic-form="isolated" 
d="M430 502l-34 -34q56 -60 56 -135.5t-56 -134.5l34 -34q70 74 70 169t-70 169zM363 434l-34 -34q28 -29 28 -67t-28 -67l34 -34q41 44 41 101t-41 101zM261 524h-47v47h-143v-47h-48q-10 -1 -16.5 -7.5t-6.5 -17.5v-380q0 -11 6.5 -17.5t16.5 -6.5h238q10 0 17 6.5t8 17.5
v380q-1 11 -8 17.5t-17 7.5zM238 214h-191v262h191v-262z" />
    <glyph glyph-name="battery-charging-wireless-30" unicode="&#xfd08;" arabic-form="isolated" 
d="M430 502l-34 -34q56 -60 56 -135.5t-56 -134.5l34 -34q70 74 70 169t-70 169zM363 434l-34 -34q28 -29 28 -67t-28 -67l34 -34q41 44 41 101t-41 101zM261 524h-47v47h-143v-47h-48q-10 -1 -16.5 -7.5t-6.5 -17.5v-380q0 -11 6.5 -17.5t16.5 -6.5h238q10 0 17 6.5t8 17.5
v380q-1 11 -8 17.5t-17 7.5zM238 238h-191v238h191v-238z" />
    <glyph glyph-name="battery-charging-wireless-40" unicode="&#xfd09;" arabic-form="isolated" 
d="M430 502l-34 -34q56 -60 56 -135.5t-56 -134.5l34 -34q70 74 70 169t-70 169zM363 434l-34 -34q28 -29 28 -67t-28 -67l34 -34q41 44 41 101t-41 101zM261 524h-47v47h-143v-47h-48q-10 -1 -16.5 -7.5t-6.5 -17.5v-380q0 -11 6.5 -17.5t16.5 -6.5h238q10 0 17 6.5t8 17.5
v380q-1 11 -8 17.5t-17 7.5zM238 274h-191v202h191v-202z" />
    <glyph glyph-name="battery-charging-wireless-50" unicode="&#xfd0a;" arabic-form="isolated" 
d="M430 502l-34 -34q56 -60 56 -135.5t-56 -134.5l34 -34q70 74 70 169t-70 169zM363 434l-34 -34q28 -29 28 -67t-28 -67l34 -34q41 44 41 101t-41 101zM261 524h-47v47h-143v-47h-48q-10 -1 -16.5 -7.5t-6.5 -17.5v-380q0 -11 6.5 -17.5t16.5 -6.5h238q10 0 17 6.5t8 17.5
v380q-1 11 -8 17.5t-17 7.5zM238 310h-191v166h191v-166z" />
    <glyph glyph-name="battery-charging-wireless-60" unicode="&#xfd0b;" arabic-form="isolated" 
d="M430 502l-34 -34q56 -60 56 -135.5t-56 -134.5l34 -34q70 74 70 169t-70 169zM363 434l-34 -34q28 -29 28 -67t-28 -67l34 -34q41 44 41 101t-41 101zM261 524h-47v47h-143v-47h-48q-10 -1 -16.5 -7.5t-6.5 -17.5v-380q0 -11 6.5 -17.5t16.5 -6.5h238q10 0 17 6.5t8 17.5
v380q-1 11 -8 17.5t-17 7.5zM238 343h-191v133h191v-133z" />
    <glyph glyph-name="battery-charging-wireless-70" unicode="&#xfd0c;" arabic-form="isolated" 
d="M430 502l-34 -34q56 -60 56 -135.5t-56 -134.5l34 -34q70 74 70 169t-70 169zM363 434l-34 -34q28 -29 28 -67t-28 -67l34 -34q41 44 41 101t-41 101zM261 524h-47v47h-143v-47h-48q-10 -1 -16.5 -7.5t-6.5 -17.5v-380q0 -11 6.5 -17.5t16.5 -6.5h238q10 0 17 6.5t8 17.5
v380q-1 11 -8 17.5t-17 7.5zM238 381h-191v95h191v-95z" />
    <glyph glyph-name="battery-charging-wireless-80" unicode="&#xfd0d;" arabic-form="isolated" 
d="M430 502l-34 -34q56 -60 56 -135.5t-56 -134.5l34 -34q70 74 70 169t-70 169zM363 434l-34 -34q28 -29 28 -67t-28 -67l34 -34q41 44 41 101t-41 101zM261 524h-47v47h-143v-47h-48q-10 -1 -16.5 -7.5t-6.5 -17.5v-380q0 -11 6.5 -17.5t16.5 -6.5h238q10 0 17 6.5t8 17.5
v380q-1 11 -8 17.5t-17 7.5zM238 404h-191v72h191v-72z" />
    <glyph glyph-name="battery-charging-wireless-90" unicode="&#xfd0e;" arabic-form="isolated" 
d="M430 502l-34 -34q56 -60 56 -135.5t-56 -134.5l34 -34q70 74 70 169t-70 169zM363 434l-34 -34q28 -29 28 -67t-28 -67l34 -34q41 44 41 101t-41 101zM261 524h-47v47h-143v-47h-48q-10 -1 -16.5 -7.5t-6.5 -17.5v-380q0 -11 6.5 -17.5t16.5 -6.5h238q10 0 17 6.5t8 17.5
v380q-1 11 -8 17.5t-17 7.5zM238 440h-191v36h191v-36z" />
    <glyph glyph-name="battery-charging-wireless-alert" unicode="&#xfd0f;" arabic-form="isolated" 
d="M261 524h-47v47h-143v-47h-48q-10 -1 -16.5 -7.5t-6.5 -17.5v-380q0 -11 6.5 -17.5t16.5 -6.5h238q10 0 17 6.5t8 17.5v380q-1 11 -8 17.5t-17 7.5zM166 190h-48v48h48v-48zM166 285h-48v119h48v-119zM430 502l-34 -34q56 -60 56 -135.5t-56 -134.5l34 -34q70 74 70 169
t-70 169zM363 434l-34 -34q28 -29 28 -67t-28 -67l34 -34q41 44 41 101t-41 101z" />
    <glyph glyph-name="battery-charging-wireless-outline" unicode="&#xfd10;" arabic-form="isolated" 
d="M430 502l-34 -34q56 -60 56 -135.5t-56 -134.5l34 -34q70 74 70 169t-70 169zM363 434l-34 -34q28 -29 28 -67t-28 -67l34 -34q41 44 41 101t-41 101zM261 524h-47v47h-143v-47h-48q-10 -1 -16.5 -7.5t-6.5 -17.5v-380q0 -11 6.5 -17.5t16.5 -6.5h238q10 0 17 6.5t8 17.5
v380q-1 11 -8 17.5t-17 7.5zM238 142h-191v334h191v-334z" />
    <glyph glyph-name="bitcoin" unicode="&#xfd11;" arabic-form="final" 
d="M0 573h120v103h68v-103h52v103h68v-103q139 -12 153 -103.5t-67 -110.5q110 -12 106 -130q-5 -119 -192 -136v-103h-68v103h-52v-103h-68v103h-120l17 68h34q15 1 24.5 10.5t9.5 24.5v274q0 15 -9.5 24.5t-24.5 10.5h-51v68zM188 505v-138q10 -2 77.5 6.5t77.5 62.5
q-10 55 -77.5 64t-77.5 5zM188 316v-155q13 -2 95 10t95 67q-13 56 -95 68.5t-95 9.5z" />
    <glyph glyph-name="briefcase-outline" unicode="&#xfd12;" arabic-form="final" 
d="M451 471q21 0 35 -15t14 -36v-274q0 -21 -14 -36t-35 -15h-402q-21 0 -35 15t-14 36v274q0 21 14 36t35 15h101v50q0 21 14 35.5t36 14.5h100q22 0 36 -14.5t14 -35.5v-50h101zM49 420v-274h402v274h-402zM300 471v50h-100v-50h100z" />
    <glyph glyph-name="cellphone-wireless" unicode="&#xfd13;" arabic-form="final" 
d="M434 494q31 -31 48.5 -72.5t17.5 -88.5t-17.5 -88.5t-48.5 -72.5l-32 32q25 26 39 58.5t14 70.5t-14 70.5t-39 58.5zM370 429q18 -18 28.5 -42.5t10.5 -53.5t-10.5 -53.5t-28.5 -42.5l-32 32q26 26 26 64t-26 64zM273 379q19 -1 32.5 -14t13.5 -32t-13.5 -32t-32.5 -13
t-32 13t-13 32t13 32t32 14zM239 584q25 -2 40.5 -18t16.5 -40v-102h-45v91h-205v-341h205v68h45v-102q-1 -25 -17 -40.5t-40 -17.5h-182q-24 2 -40 18t-17 40v386q1 25 17 40.5t40 17.5h182z" />
    <glyph glyph-name="clover" unicode="&#xfd14;" arabic-form="final" 
d="M250 353q62 55 94 91.5t32 71.5q-2 30 -21 48.5t-49 18.5q-34 0 -56 -25q-22 25 -58 25q-29 0 -47.5 -20t-20.5 -48q0 -34 32 -70.5t94 -91.5zM230 333q-55 63 -91.5 94.5t-71.5 31.5q-30 -2 -48.5 -21t-18.5 -49q0 -34 25 -56q-25 -22 -25 -58q0 -29 20 -47.5t48 -20.5
q34 0 70.5 31.5t91.5 94.5zM271 333q54 -63 90.5 -94.5t71.5 -31.5q30 2 48.5 21t18.5 49q0 34 -25 56q25 22 25 58q0 29 -20 47.5t-48 20.5q-34 0 -70.5 -31.5t-90.5 -94.5zM250 313q-62 -55 -94 -91.5t-32 -71.5q2 -30 21 -48.5t49 -18.5q34 0 56 25q22 -25 58 -25
q29 0 47.5 20t20.5 48q0 34 -32 70.5t-94 91.5z" />
    <glyph glyph-name="comment-question" unicode="&#xfd15;" arabic-form="final" 
d="M49 583h402q21 0 35 -14t14 -35v-301q0 -21 -14 -35.5t-35 -14.5h-153l-92 -93q-9 -7 -18 -7h-13q-11 0 -18 7t-7 18v75h-101q-21 0 -35 14.5t-14 35.5v301q0 21 14 35t35 14zM255 496q-33 0 -54 -14t-19 -41h49q0 11 7 16t17.5 5t18 -6.5t7.5 -17t-6 -18.5t-15 -14
q-20 -12 -27.5 -21t-7.5 -27h50q0 10 3.5 16.5t12.5 12.5q17 9 28.5 22t11.5 30q0 26 -20.5 41.5t-55.5 15.5zM225 333v-50h50v50h-50z" />
    <glyph glyph-name="content-save-outline" unicode="&#xfd16;" arabic-form="final" 
d="M333 527v-111h-277v-277h120q-17 15 -27 36t-10 47q2 47 33 78.5t78 31.5t78 -31.5t33 -78.5q0 -26 -10 -47t-27 -36h120v310l-78 78h-33zM56 472h221v55h-221v-55zM389 583l111 -111v-333q0 -23 -16.5 -39.5t-39.5 -16.5h-388q-25 0 -40.5 16.5t-15.5 39.5v388
q0 23 16.5 39.5t39.5 16.5h333zM250 277q-23 0 -39 -15.5t-16 -39t16 -40t39 -16.5t39 16.5t16 40t-16 39t-39 15.5z" />
    <glyph glyph-name="delete-restore" unicode="&#xfd17;" arabic-form="final" 
d="M322 261h71l-143 144l-143 -144h71v-143h144v143zM35 513h430v-430q0 -28 -22 -50t-50 -22h-286q-28 0 -50 22t-22 50v430zM500 620v-72h-500v72h125l36 35h178l36 -35h125z" />
    <glyph glyph-name="door" unicode="&#xfd18;" arabic-form="final" 
d="M84 708q-37 0 -60.5 -23.5t-23.5 -60.5v-666h500v666q0 37 -23.5 60.5t-60.5 23.5h-332zM84 624h332v-582h-332v582zM291 374v-82h84v82h-84z" />
    <glyph glyph-name="door-closed" unicode="&#xfd19;" arabic-form="final" 
d="M350 358h50v-50h-50v50zM250 558h175q22 0 36 -14t14 -36v-350h25v-50h-500v50h200v350q1 22 15 36t35 14zM250 508v-350h175v350h-175z" />
    <glyph glyph-name="door-open" unicode="&#xfd1a;" arabic-form="final" 
d="M250 558q-21 0 -35 -14t-15 -36h-175v-350h-25v-50h500v50h-25v350q0 22 -14 36t-36 14h-175zM250 508h175v-350h-175v350zM75 358h49v-50h-49v50z" />
    <glyph glyph-name="fan-off" unicode="&#xfd1b;" arabic-form="final" 
d="M262 582q-54 -1 -74 -40t-6 -96l142 -142q17 -4 32.5 -13.5t25.5 -25.5q26 -45 69.5 -36t48.5 91q-4 68 -61.5 83t-130.5 -23q-12 15 -30 22q3 19 12.5 36t27.5 26q46 27 36 70.5t-92 47.5zM32 533l-32 -32l61 -61q-23 0 -42 -23t-19 -71q2 -67 60 -82.5t131 22.5
q12 -15 30 -23q-3 -18 -12.5 -34.5t-26.5 -26.5q-46 -27 -36.5 -70.5t91.5 -47.5q43 0 64.5 26t21.5 68l95 -94l32 31z" />
    <glyph glyph-name="file-percent" unicode="&#xfd1c;" arabic-form="final" 
d="M313 644l187 -187v-374q-1 -26 -19 -43.5t-44 -17.5h-374q-26 0 -44 17.5t-19 43.5v500q1 26 19 43.5t44 17.5h250zM106 83l238 240l-43 41l-238 -238zM281 427h172l-172 171v-171zM109 364q-20 0 -33 -13.5t-13 -33t13 -32.5t33.5 -13t33.5 13t13 32.5t-13.5 33
t-33.5 13.5zM296 177q-20 0 -33 -13.5t-13 -33t13 -33t33.5 -13.5t34 13.5t13.5 33t-13.5 33t-34.5 13.5z" />
    <glyph glyph-name="finance" unicode="&#xfd1d;" arabic-form="final" 
d="M17 307h107v-269h-107v269zM205 279h108v-241h-108v241zM393 413h107v-375h-107v375zM393 628h107v-108h-26v53l-217 -216l-105 107l-123 -123l-29 29l152 150l105 -105l188 186h-52v27z" />
    <glyph glyph-name="flash-circle" unicode="&#xfd1e;" arabic-form="final" 
d="M237 132l122 244h-84v158l-125 -244h87v-158zM250 583q103 0 176.5 -73.5t73.5 -176.5t-73.5 -176.5t-176.5 -73.5t-176.5 73.5t-73.5 176.5t73.5 176.5t176.5 73.5z" />
    <glyph glyph-name="floor-plan" unicode="&#xfd1f;" arabic-form="final" 
d="M194 527v-138h-27v138h-111v-221h111v27h27v-139h-27v83h-111v-138h194v55h27v-55h167v55h56v-111h-500v500h500v-333h-56v139h-167v-139h-27v166h194v111h-250z" />
    <glyph glyph-name="forum-outline" unicode="&#xfd20;" arabic-form="final" 
d="M49 583q-21 0 -35 -14t-14 -35v-327l100 101h225q21 0 35 14.5t16 35.5v176q-2 21 -16 35t-35 14h-276zM49 534h276v-176h-225l-51 -50v226zM425 483v-50h26v-250l-51 50h-250v25h-50v-25q0 -21 14.5 -35.5t35.5 -14.5h250l100 -100v350q0 21 -14 35.5t-35 14.5h-26z" />
    <glyph glyph-name="golf" unicode="&#xfd21;" arabic-form="final" 
d="M456 157q19 0 31.5 -12.5t12.5 -32t-12.5 -31.5t-31.5 -12t-31.5 12t-12.5 31.5t12.5 32t31.5 12.5zM383 512l-176 -91v-266q63 -4 103.5 -19t42.5 -39q-2 -24 -51.5 -40.5t-124.5 -16.5t-124.5 16.5t-52.5 40.5q1 17 24.5 31t63.5 20v-51h59v529z" />
    <glyph glyph-name="google-home" unicode="&#xfd22;" arabic-form="final" 
d="M101 491q-32 0 -37 5l-17 -230q30 -19 78.5 -30t139 -5.5t188.5 38.5l-31 357q-50 -50 -147 -92q-88 -38 -150 -43h-24zM97 583q-39 -34 -32.5 -46t55.5 -7q62 6 141 39q54 23 92.5 50t53 44.5t11 25t-35.5 7.5q-64 0 -160 -40q-82 -36 -125 -73zM453 702q3 -7 3 -16
l44 -545q0 -97 -67.5 -153t-182 -56t-182.5 57t-68 156l26 395q0 15 12.5 32.5t23.5 28.5l13 11q55 46 132 79q54 23 104.5 34.5t90.5 7t51 -30.5z" />
    <glyph glyph-name="guy-fawkes-mask" unicode="&#xfd23;" arabic-form="final" 
d="M500 306q-3 -107 -73 -177.5t-177 -72.5q-107 2 -177 72.5t-73 177.5l1 236q55 33 118 50.5t131.5 17.5t131.5 -17t118 -48v-239zM277 113q73 12 119.5 64.5t47.5 128.5v206q-89 42 -193 44q-106 -2 -198 -47l3 -203q1 -76 47.5 -129t119.5 -64v53h54v-53zM223 222h-84
l-56 84l84 -29h27l29 29h54l29 -29h27l84 29l-56 -84h-84l-27 28zM83 415q28 27 69.5 27t70.5 -27q-29 -26 -70.5 -26t-69.5 26zM277 415q28 27 69.5 27t70.5 -27q-29 -26 -70.5 -26t-69.5 26z" />
    <glyph glyph-name="home-account" unicode="&#xfd24;" arabic-form="final" 
d="M250 546l-250 -225h75v-201h350v201h75zM250 402q23 0 39 -16t16 -40t-16 -40t-39 -16t-39 16t-16 40t16 40t39 16zM250 246q32 0 70.5 -14.5t42.5 -42.5v-19h-226v19q4 28 42.5 42.5t70.5 14.5z" />
    <glyph glyph-name="home-heart" unicode="&#xfd25;" arabic-form="final" 
d="M0 321l250 225l250 -225h-75v-201h-350v201h-75zM250 170l17 17q50 43 78.5 76.5t30.5 67.5q-2 30 -21 49t-49 21q-16 0 -30.5 -7.5t-25.5 -19.5q-11 12 -25.5 19.5t-30.5 7.5q-30 -2 -49 -21.5t-21 -48.5q2 -34 30.5 -67t78.5 -77z" />
    <glyph glyph-name="hot-tub" unicode="&#xfd26;" arabic-form="final" 
d="M124 546q21 -1 36 -15t15 -35t-15 -35.5t-36 -14.5t-35 14.5t-14 35.5t14 35t35 15zM229 345h271v-200q0 -21 -14 -35.5t-35 -14.5h-402q-21 0 -35 14.5t-14 35.5v200h75v19q0 25 16 40.5t41 15.5v0q12 0 22.5 -4.5t19.5 -13.5l34 -39q9 -9 21 -18zM124 145v150h-49v-150
h49zM225 145v150h-50v-150h50zM325 145v150h-50v-150h50zM425 145v150h-49v-150h49zM416 499q19 -18 28 -42.5t6 -49.5l-3 -11h-47l3 14q4 30 -17 55l-2 1q-19 20 -28 44t-5 50l2 11h47l-2 -15q-5 -31 16 -56zM317 499q18 -18 27 -42.5t5 -49.5l-2 -11h-47l3 14q5 30 -18 55
l-1 1q-20 20 -28 44t-5 50l1 11h48l-2 -15q-6 -31 16 -56z" />
    <glyph glyph-name="hulu" unicode="&#xfd27;" arabic-form="final" 
d="M500 307v-307h-159v269q-2 18 -14.5 31t-29.5 13h-97q-18 0 -30 -13t-14 -31v-269h-156v666h159v-213q16 7 32 7h159q64 -2 106 -45.5t44 -107.5z" />
    <glyph glyph-name="ice-cream" unicode="&#xfd28;" arabic-form="final" 
d="M250 749q70 -2 117 -49t49 -119q37 -8 60.5 -36t23.5 -66q-2 -45 -31.5 -74t-72.5 -31h-292q-43 2 -72.5 31.5t-31.5 73.5q0 37 23.5 65.5t60.5 38.5q2 70 49 117t117 49zM125 333h250l-84 -416h-82z" />
    <glyph glyph-name="image-off" unicode="&#xfd29;" arabic-form="final" 
d="M33 583l-33 -32l50 -50v-317q0 -21 15 -36t36 -15h317l50 -50l32 33zM96 583l404 -404v354q0 22 -14.5 36t-35.5 14h-354zM188 320l63 -74l24 31l68 -69h-242z" />
    <glyph glyph-name="karate" unicode="&#xfd2a;" arabic-form="final" 
d="M439 605q-20 11 -40 5.5t-32 -25.5t-6 -40t25 -32t39.5 -6t32.5 25.5t6 39.5t-25 33zM500 390l-69 -118l-46 26l46 80l-41 35l-83 -145v-214h-54v228l-253 147l26 46l207 -119l65 110l-171 61l20 50l186 -67q14 -6 30 -14l22 -13q13 -8 26 -19z" />
    <glyph glyph-name="ladybug" unicode="&#xfd2b;" arabic-form="final" 
d="M250 534q35 0 67 -9l51 89q6 10 18.5 14t24 -3t14.5 -19t-4 -24l-47 -81q59 -35 92 -92h-432q33 57 92 92l-47 81q-8 12 -4.5 24t15 19t24 3t18.5 -14l51 -89q32 9 67 9zM500 285q-3 -101 -66 -169.5t-161 -78.5v326h214q13 -36 13 -78zM0 285q0 42 13 78h214v-326
q-98 10 -161 78.5t-66 169.5z" />
    <glyph glyph-name="notebook" unicode="&#xfd2c;" arabic-form="final" 
d="M0 472v55h56v29q0 23 15.5 38.5t39.5 15.5h166v-194l70 42l70 -42v194h27q23 0 39 -16t17 -38v-446q-1 -22 -17 -38t-39 -16h-333q-22 0 -38.5 16t-16.5 38v29h-56v55h56v112h-56v54h56v112h-56zM111 360h-55v-54h55v54zM111 472v55h-55v-55h55zM111 139v55h-55v-55h55z
" />
    <glyph glyph-name="phone-return" unicode="&#xfd2d;" arabic-form="initial" 
d="M500 493v-140h-42v98h-156l68 -68l-30 -30l-117 119l117 118l30 -29l-68 -68h198zM161 421q12 12 7 28q-15 49 -15 100q0 12 -8 19.5t-20 7.5h-98q-12 0 -19.5 -7.5t-7.5 -19.5q5 -201 138.5 -334.5t334.5 -138.5q12 0 19.5 7.5t7.5 19.5v98q0 12 -7.5 20t-19.5 8
q-51 0 -99 15q-17 5 -29 -7l-61 -61q-59 31 -106 77.5t-77 106.5z" />
    <glyph glyph-name="poker-chip" unicode="&#xfd2e;" arabic-form="initial" 
d="M500 333q-3 -106 -73.5 -176.5t-176.5 -73.5q-106 3 -176.5 73.5t-73.5 176.5q3 106 73.5 176.5t176.5 73.5q106 -3 176.5 -73.5t73.5 -176.5zM272 513q37 -5 69 -23t54 -48l39 24q-29 39 -70.5 63.5t-91.5 30.5v-47zM66 466l39 -24q22 30 54 48t69 23v47
q-50 -6 -91.5 -30.5t-70.5 -63.5zM44 240l39 23q-15 34 -15 70t15 70l-39 23q-21 -45 -21 -93t21 -93zM228 153q-37 5 -69 23t-54 48l-39 -24q29 -39 70.5 -63.5t91.5 -30.5v47zM434 200l-39 24q-22 -30 -54 -48t-69 -23v-45q49 5 91 29t71 63zM456 240q21 45 21 93t-21 93
l-39 -23q15 -34 15 -70t-15 -70zM318 333l-68 114l-68 -114l68 -114z" />
    <glyph glyph-name="shape" unicode="&#xfd2f;" arabic-form="initial" 
d="M212 292v-211h-212v211h212zM238 596l145 -238h-290zM383 306q50 -1 83.5 -34t33.5 -84t-33.5 -84.5t-84.5 -33.5t-84 33.5t-33 84.5t33.5 84t84.5 34z" />
    <glyph glyph-name="shape-outline" unicode="&#xfd30;" arabic-form="initial" 
d="M212 292v-211h-212v211h212zM158 240h-105v-106h105v106zM238 596l145 -238h-290zM238 495l-51 -83h101zM383 306q50 -1 83.5 -34t33.5 -84t-33.5 -84.5t-84.5 -33.5t-84 33.5t-33 84.5t33.5 84t84.5 34zM383 253q-27 -1 -46 -20t-19 -46.5t19 -46t46.5 -18.5t46 18.5
t18.5 46t-18.5 46.5t-46.5 20z" />
    <glyph glyph-name="ship-wheel" unicode="&#xfd31;" arabic-form="initial" 
d="M22 355l46 -2q6 40 24.5 72t49.5 55l-25 39q-6 9 -3 18t11 13.5t16.5 2t14.5 -11.5l21 -40q34 14 73 14t73 -14l21 40q6 9 14.5 11.5t16.5 -2t11 -14t-3 -17.5l-25 -39q31 -23 49.5 -55t24.5 -72l46 2q9 0 15.5 -6t6.5 -16t-6.5 -16t-15.5 -6l-46 2q-6 -40 -24.5 -72
t-49.5 -55l25 -39q6 -9 3 -18t-11 -13.5t-16.5 -2t-14.5 11.5l-21 40q-34 -14 -73 -14t-73 14l-21 -40q-6 -9 -14.5 -11.5t-16.5 2t-11 14t3 17.5l25 39q-31 23 -49.5 55t-24.5 72l-46 -2q-9 0 -15.5 6t-6.5 16t6.5 16t15.5 6zM183 348q5 21 21 35l-37 58q-21 -16 -34.5 -39
t-18.5 -51zM250 401q11 0 20 -3l33 61q-25 11 -53 11t-53 -11l33 -61q9 3 20 3zM317 348l69 3q-5 28 -18.5 51t-34.5 39l-37 -58q16 -14 21 -35zM317 318q-5 -21 -21 -35l37 -58q21 16 34.5 39t18.5 51zM250 265q-11 0 -20 3l-33 -61q25 -11 53 -11t53 11l-33 61
q-9 -3 -20 -3zM183 318l-69 -3q5 -28 18.5 -51t34.5 -39l37 58q-16 14 -21 35z" />
    <glyph glyph-name="soccer-field" unicode="&#xfd32;" arabic-form="initial" 
d="M49 534q-21 -1 -35 -15.5t-14 -35.5v-300q0 -21 14 -35.5t35 -15.5h402q21 1 35 15.5t14 35.5v300q0 21 -14 35.5t-35 15.5h-402zM49 483h176v-53q-34 -9 -54.5 -35.5t-20.5 -61.5t20.5 -61.5t54.5 -35.5v-53h-176v50h75v200h-75v50zM275 483h176v-50h-75v-200h75v-50
h-176v53q34 9 54.5 35.5t20.5 61.5t-20.5 61.5t-54.5 35.5v53zM49 383h26v-100h-26v100zM425 383h26v-100h-26v100zM275 376q12 -7 18.5 -18t6.5 -25t-6.5 -25.5t-18.5 -17.5v86zM225 376v-86q-12 7 -18.5 18t-6.5 25t6.5 25t18.5 18z" />
    <glyph glyph-name="table-column" unicode="&#xfd33;" arabic-form="initial" 
d="M84 749h332q35 0 59.5 -23.5t24.5 -58.5v-668q0 -35 -24.5 -58.5t-59.5 -23.5h-332q-35 0 -59.5 23.5t-24.5 58.5v668q0 35 24.5 58.5t59.5 23.5zM84 417v-168h332v168h-332zM84 167v-168h332v168h-332zM84 667v-168h332v168h-332z" />
    <glyph glyph-name="table-of-contents" unicode="&#xfd34;" arabic-form="medial" 
d="M0 416h389v56h-389v-56zM0 306h389v54h-389v-54zM0 194h389v56h-389v-56zM444 194h56v56h-56v-56zM444 472v-56h56v56h-56zM444 306h56v54h-56v-54z" />
    <glyph glyph-name="table-row" unicode="&#xfd35;" arabic-form="medial" 
d="M500 283q0 -22 -14 -36t-35 -14h-402q-21 0 -35 14t-14 36v100q0 22 14 36t35 14h402q21 0 35 -14t14 -36v-100zM49 283h101v100h-101v-100zM200 283h100v100h-100v-100zM350 283h101v100h-101v-100z" />
    <glyph glyph-name="table-settings" unicode="&#xfd36;" arabic-form="medial" 
d="M111 111h56v-56h-56v56zM223 111h54v-56h-54v56zM333 111h56v-56h-56v56zM56 611h388q23 -1 39.5 -17t16.5 -39v-333q0 -24 -16.5 -39.5t-39.5 -16.5h-388q-23 1 -39.5 16.5t-16.5 39.5v333q0 23 16.5 39t39.5 17zM56 499v-111h167v111h-167zM277 499v-111h167v111h-167z
M56 332v-110h167v110h-167zM277 332v-110h167v110h-167z" />
    <glyph glyph-name="television-box" unicode="&#xfd37;" arabic-form="medial" 
d="M56 583h388q23 0 39.5 -16.5t16.5 -39.5v-388q0 -23 -16.5 -39.5t-39.5 -16.5h-388q-23 0 -39.5 16.5t-16.5 39.5v388q0 23 16.5 39.5t39.5 16.5zM361 222l83 222h-69l-42 -125l-42 125h-235v-55h83v-167h55v167h49l63 -167h55z" />
    <glyph glyph-name="television-classic-off" unicode="&#xfd38;" arabic-form="medial" 
d="M0 527l32 32l443 -444l-31 -33l-51 51h-344q-21 0 -35 14t-14 36v250q0 19 12.5 33t30.5 18zM154 584l96 -97l96 97l36 -36l-65 -64h134q21 -1 35 -15.5t14 -35.5v-250q0 -12 -6 -23l-118 118v155h-155l-51 51h13l-65 64zM49 433v-250h295l-251 250h-44zM438 433
q-11 0 -18 -6.5t-7 -17.5t7 -18t17.5 -7t18 7t7.5 18t-7.5 17.5t-17.5 6.5zM438 358q-11 0 -18 -7t-7 -17.5t7 -17.5t17.5 -7t18 7t7.5 17.5t-7.5 17.5t-17.5 7z" />
    <glyph glyph-name="television-off" unicode="&#xfd39;" arabic-form="medial" 
d="M0 533l28 27l427 -426l-28 -28l-67 66h-16v-44h-177v44h-112q-18 0 -30.5 12.5t-13.5 31.5v267q1 16 10 28zM455 216v267h-292l-45 44h337q19 0 31.5 -13t13.5 -31v-267q-1 -13 -9 -24.5t-20 -17.5l-42 42h26zM55 216h261l-261 261v-261z" />
    <glyph glyph-name="towing" unicode="&#xfd3a;" arabic-form="medial" 
d="M318 379h123l-76 90h-47v-90zM375 185q13 0 23 10.5t10 24t-10 23.5t-23.5 10t-24 -10t-10.5 -23.5t10.5 -24t24.5 -10.5zM114 185q15 0 24.5 10.5t9.5 24t-9.5 23.5t-24.5 10t-24.5 -10t-9.5 -23.5t9.5 -24t24.5 -10.5zM386 515l114 -136v-160h-57q0 -28 -20.5 -48
t-48 -20t-47.5 20t-20 48h-125q0 -28 -20 -48t-48 -20t-48 20t-20 48h-46v92h186l-140 110v-66h-46v136h23l249 -137v161h114z" />
    <glyph glyph-name="upload-multiple" unicode="&#xfd3b;" arabic-form="medial" 
d="M143 242v215h-143l250 252l250 -252h-143v-215h-214zM0 100v72h500v-72h-500zM500 28h-500v-71h500v71z" />
    <glyph glyph-name="video-4k-box" unicode="&#xfd3c;" arabic-form="final" 
d="M56 583h388q23 0 39.5 -16.5t16.5 -39.5v-388q0 -23 -16.5 -39.5t-39.5 -16.5h-388q-23 0 -39.5 16.5t-16.5 39.5v388q0 23 16.5 39.5t39.5 16.5zM419 250l-56 83l56 83h-48l-54 -83v83h-42v-166h42v83l54 -83h48zM246 291v42h-27v83h-42v-83h-42v83h-41v-125h83v-41h42
v41h27z" />
    <glyph glyph-name="video-input-antenna" unicode="&#xfd3d;" arabic-form="isolated" 
d="M250 485q-68 -1 -112.5 -46t-45.5 -113h44q1 48 33.5 80.5t80.5 33.5q48 -1 80.5 -33.5t33.5 -80.5h44q-1 68 -45.5 113t-112.5 46zM272 274q16 8 25.5 21t9.5 31q0 25 -16 41t-41 16t-41 -16t-16 -41q0 -17 9.5 -30.5t25.5 -21.5v-74l-78 -78l32 -32l68 68l68 -68l32 32
l-78 78v74zM250 576q-106 -3 -176.5 -73.5t-73.5 -176.5h46q2 87 59.5 144.5t144.5 59.5q87 -2 144.5 -59.5t59.5 -144.5h46q-3 106 -73.5 176.5t-176.5 73.5z" />
    <glyph glyph-name=".notdef" 
d="M33 0v666h265v-666h-265zM66 33h199v600h-199v-600z" />
    <glyph glyph-name=".null" 
 />
    <glyph glyph-name="nonmarkingreturn" 
 />
    <glyph glyph-name="char0" 
d="M375 83v94h63v-157h-126v63h63zM62 20v157h63v-94h63v-63h-126zM375 270v126h63v-126h-63zM62 270v126h63v-126h-63zM312 583v63h126v-157h-63v94h-63zM62 489v157h126v-63h-63v-94h-63z" />
    <glyph glyph-name="char0" 
d="M375 83v94h63v-157h-126v63h63zM62 20v157h63v-94h63v-63h-126zM375 270v126h63v-126h-63zM62 270v126h63v-126h-63zM312 583v63h126v-157h-63v94h-63zM62 489v157h126v-63h-63v-94h-63z" />
    <glyph glyph-name="space" unicode=" " 
 />
    <glyph glyph-name="exclam" unicode="!" 
d="M219 20v126h62v-126h-62zM219 239v407h62v-407h-62z" />
    <glyph glyph-name="quotedbl" unicode="&#x22;" 
d="M312 520v188h63v-188h-63zM125 520v188h63v-188h-63z" />
    <glyph glyph-name="numbersign" unicode="#" 
d="M125 496v150h63v-157h124v157h63v-150l78 -38l-78 -38v-174l78 -38l-78 -38v-150h-63v157h-124v-157h-63v150l-78 38l78 38v174l-78 38zM312 239v188h-124v-188h124z" />
    <glyph glyph-name="dollar" unicode="$" 
d="M219 630v78h62v-94h88l78 -94l-41 -43l-75 75h-50v-172l141 -63v-218l-141 -63v-78h-62v94h-88l-78 94l41 43l75 -75h50v172l-141 63v218zM219 364v188h-66l-34 -94l34 -94h66zM359 136v144l-78 28v-200z" />
    <glyph glyph-name="glyph9" unicode="%" 
d="M212 114l38 97l141 -19v-156l-141 -19zM344 83v63h-63v-63h63zM59 46l300 600h47v-32l-287 -578l-25 -25zM56 552l38 97l140 -19v-156l-140 -19zM188 520v63h-63v-63h63z" />
    <glyph glyph-name="ampersand" unicode="&#x26;" 
d="M62 570l76 76h131l75 -76v-137l-94 -78l72 -85l84 72l35 -34l-82 -131l82 -131l-35 -35l-87 75l-41 -66h-172l-75 76v153l107 115l-76 75v131zM288 489l-35 94h-100l-37 -100l93 -91zM322 177l-113 125h-47l-74 -91l21 -112l132 -19z" />
    <glyph glyph-name="quotesingle" unicode="'" 
d="M219 520v188h62v-188h-62z" />
    <glyph glyph-name="parenleft" unicode="(" 
d="M156 480l128 166h60v-38l-125 -159v-232l131 -168l-44 -44l-150 175v300z" />
    <glyph glyph-name="parenright" unicode=")" 
d="M156 608v38h60l128 -166v-300l-150 -175l-44 44l131 168v232z" />
    <glyph glyph-name="glyph14" unicode="*" 
d="M197 364l-144 156h81l107 -96l78 96h97l-144 -156h166v-62h-166l144 -156h-97l-78 96l-107 -96h-81l144 156h-166v62h166z" />
    <glyph glyph-name="glyph15" unicode="+" 
d="M219 364v156h62v-156h157v-62h-157v-156h-62v156h-157v62h157z" />
    <glyph glyph-name="comma" unicode="," 
d="M162 -42l69 188h50v-113l-75 -75h-44z" />
    <glyph glyph-name="hyphen" unicode="-" 
d="M62 302v62h376v-62h-376z" />
    <glyph glyph-name="period" unicode="." 
d="M219 20v126h62v-126h-62z" />
    <glyph glyph-name="glyph19" unicode="/" 
d="M59 46l300 600h47v-32l-287 -578l-25 -25z" />
    <glyph glyph-name="zero" unicode="0" 
d="M62 570l76 76h224l76 -76v-474l-76 -76h-224l-76 76v474zM384 514l-43 69h-175l-41 -41v-287zM347 83l31 87l-19 229l-240 -247l40 -69h188z" />
    <glyph glyph-name="one" unicode="1" 
d="M125 530l103 116h53v-563h94v-63h-250v63h94v434l-94 -34v47z" />
    <glyph glyph-name="two" unicode="2" 
d="M62 570l76 76h224l76 -76v-187l-294 -300h294v-63h-376v82l316 309l-19 156h-218l-19 -140h-60v143z" />
    <glyph glyph-name="three" unicode="3" 
d="M62 570l76 76h231l62 -79l3 -481l-87 -69l-231 19l-66 106l44 47l81 -112l184 22v187l-203 19v56l203 19v187l-203 19l-37 -97h-57v81z" />
    <glyph glyph-name="four" unicode="4" 
d="M62 314l326 332h50v-626h-63v157h-313v137zM375 520h-19l-231 -237v-44h250v281z" />
    <glyph glyph-name="five" unicode="5" 
d="M62 336v310h376v-63h-313v-187h237l76 -76v-224l-76 -76h-231l-78 94l41 44l75 -75h209l-19 234z" />
    <glyph glyph-name="six" unicode="6" 
d="M62 570l76 76h268v-60l-265 -19l-19 -171h240l76 -76v-224l-76 -76h-224l-76 76v474zM359 99v218l-237 19l19 -237h218z" />
    <glyph glyph-name="seven" unicode="7" 
d="M62 458v188h376v-129l-157 -306v-191h-62v191l156 306v66h-250v-125h-63z" />
    <glyph glyph-name="eight" unicode="8" 
d="M69 567l62 79h238l62 -79v-468l-62 -79h-238l-62 79v468zM359 380v187l-203 19l-37 -94l22 -112h218zM359 99v187l-203 19l-37 -94l22 -112h218z" />
    <glyph glyph-name="nine" unicode="9" 
d="M62 570l76 76h224l76 -76v-474l-76 -76h-268v60l265 19l19 171h-240l-76 76v224zM378 330l-19 237l-203 19l-37 -94l22 -143z" />
    <glyph glyph-name="colon" unicode=":" 
d="M219 20v126h62v-126h-62zM219 333v125h62v-125h-62z" />
    <glyph glyph-name="semicolon" unicode=";" 
d="M162 -42l69 188h50v-113l-75 -75h-44zM219 333v125h62v-125h-62z" />
    <glyph glyph-name="less" unicode="&#x3c;" 
d="M50 333l306 313h94l-306 -313l306 -313h-94z" />
    <glyph glyph-name="glyph33" unicode="=" 
d="M62 208v62h376v-62h-376zM62 396v62h376v-62h-376z" />
    <glyph glyph-name="greater" unicode="&#x3e;" 
d="M356 333l-306 313h94l306 -313l-306 -313h-94z" />
    <glyph glyph-name="glyph35" unicode="?" 
d="M219 20v126h62v-126h-62zM62 570l76 76h224l76 -76l-4 -159l-184 -203h-31v84l159 147l-19 128h-218l-19 -140h-60v143z" />
    <glyph glyph-name="glyph36" unicode="@" 
d="M31 570l75 76h256l76 -76v-415l-200 -6l-82 65v232l75 74h157l-66 66l-213 -19v-468l329 -19v-60h-332l-75 76v474zM359 224l19 234h-131l-35 -91l22 -143h125z" />
    <glyph glyph-name="A" unicode="A" 
d="M62 570l76 76h224l76 -76v-550h-63v250h-250v-250h-63v550zM378 333l-19 234l-190 19l-44 -44v-209h253z" />
    <glyph glyph-name="B" unicode="B" 
d="M62 20v626h300l76 -76v-131l-76 -75l76 -75v-193l-76 -76h-300zM359 411v156l-234 19v-194zM381 242l-75 91h-181v-253l234 19z" />
    <glyph glyph-name="C" unicode="C" 
d="M62 570l79 79l243 -19l66 -106l-44 -47l-81 112l-184 -22v-468l184 -22l81 112l44 -47l-66 -106l-231 -19l-91 72v481z" />
    <glyph glyph-name="D" unicode="D" 
d="M62 20v626h250l126 -126v-374l-126 -126h-250zM375 508l-75 75h-175v-500h175l75 75v350z" />
    <glyph glyph-name="E" unicode="E" 
d="M62 20v626h376v-63h-313v-219h219v-62h-219v-219h313v-63h-376z" />
    <glyph glyph-name="F" unicode="F" 
d="M62 20v626h376v-63h-313v-219h219v-62h-219v-282h-63z" />
    <glyph glyph-name="G" unicode="G" 
d="M62 570l79 79l243 -19l66 -106l-44 -47l-81 112l-184 -22v-468h218l19 203h-128v62h188v-268l-76 -76h-224l-76 76v474z" />
    <glyph glyph-name="H" unicode="H" 
d="M62 20v626h63v-282h250v282h63v-626h-63v282h-250v-282h-63z" />
    <glyph glyph-name="I" unicode="I" 
d="M156 583v63h188v-63h-63v-500h63v-63h-188v63h63v500h-63z" />
    <glyph glyph-name="J" unicode="J" 
d="M281 583v63h188v-63h-63v-487l-75 -76h-193l-76 76v112h57l34 -128l175 19l19 484h-66z" />
    <glyph glyph-name="K" unicode="K" 
d="M62 20v626h63v-263l281 275l44 -44l-275 -281l275 -281l-44 -44l-281 275v-263h-63z" />
    <glyph glyph-name="L" unicode="L" 
d="M62 20v626h63v-563h313v-63h-376z" />
    <glyph glyph-name="M" unicode="M" 
d="M31 20v626h47l125 -188h63l125 188h47v-626h-63v516l-116 -178h-50l-115 178v-516h-63z" />
    <glyph glyph-name="N" unicode="N" 
d="M62 20v626h63v-144l250 -244v388h63v-626h-63v144l-250 244v-388h-63z" />
    <glyph glyph-name="O" unicode="O" 
d="M62 570l76 76h224l76 -76v-474l-76 -76h-224l-76 76v474zM359 99v468l-203 19l-34 -87l19 -400h218z" />
    <glyph glyph-name="P" unicode="P" 
d="M62 20v626h300l76 -76v-224l-76 -76h-237v-250h-63zM359 349v218l-234 19v-256z" />
    <glyph glyph-name="Q" unicode="Q" 
d="M62 570l76 76h231l75 -91l-19 -519l47 -78h-94l-37 62h-203l-76 76v474zM378 111l-19 456l-203 19l-34 -87l19 -400l115 -22l-47 78z" />
    <glyph glyph-name="R" unicode="R" 
d="M62 20v626h300l76 -76v-224l-76 -76h-124l212 -218l-44 -44l-281 275v-263h-63zM359 349v218l-234 19v-256z" />
    <glyph glyph-name="S" unicode="S" 
d="M62 570l79 79l243 -19l66 -106l-44 -47l-81 112l-184 -22v-187l218 -22l79 -62v-207l-91 -72l-231 19l-66 106l44 47l81 -112l184 22v187l-218 22l-79 62v200z" />
    <glyph glyph-name="T" unicode="T" 
d="M62 583v63h376v-63h-157v-563h-62v563h-157z" />
    <glyph glyph-name="U" unicode="U" 
d="M62 96v550h60l19 -547h218l19 547h60v-550l-76 -76h-224z" />
    <glyph glyph-name="V" unicode="V" 
d="M97 380l-44 266h56l107 -507l34 -34l34 34l107 507h56l-44 -266l-100 -360h-106z" />
    <glyph glyph-name="W" unicode="W" 
d="M31 20v626h63v-516l115 178h50l116 -178v516h63v-626h-47l-125 188h-63l-125 -188h-47z" />
    <glyph glyph-name="X" unicode="X" 
d="M62 617v29h54l112 -250h44l112 250h54v-29l-138 -284l138 -284v-29h-54l-112 250h-44l-112 -250h-54v29l138 284z" />
    <glyph glyph-name="Y" unicode="Y" 
d="M62 580v66h47l116 -282h50l116 282h47v-66l-157 -306v-254h-62v254z" />
    <glyph glyph-name="Z" unicode="Z" 
d="M62 583v63h376v-176l-313 -306v-81h313v-63h-376v176l313 306v81h-313z" />
    <glyph glyph-name="bracketleft" unicode="[" 
d="M125 20v626h219v-63h-156v-500h156v-63h-219z" />
    <glyph glyph-name="backslash" unicode="\" 
d="M62 614v32h47l300 -600l-34 -35l-25 25z" />
    <glyph glyph-name="bracketright" unicode="]" 
d="M125 583v63h219v-626h-219v63h156v500h-156z" />
    <glyph glyph-name="asciicircum" unicode="^" 
d="M50 520l181 188h38l181 -188h-84l-116 104l-116 -104h-84z" />
    <glyph glyph-name="underscore" unicode="_" 
d="M62 -73v62h376v-62h-376z" />
    <glyph glyph-name="grave" unicode="`" 
d="M228 677l-112 125h93l113 -125h-94z" />
    <glyph glyph-name="a" unicode="a" 
d="M94 399v59h268l76 -75v-363h-300l-76 76v131l76 75h243l-28 78zM375 83v156h-222l-34 -90l40 -66h216z" />
    <glyph glyph-name="b" unicode="b" 
d="M62 20v626h63v-188h237l76 -75v-287l-76 -76h-300zM359 99v281l-234 19v-319z" />
    <glyph glyph-name="c" unicode="c" 
d="M62 383l76 75h231l78 -94l-41 -40l-90 75l-175 -19v-281l175 -19l90 75l41 -41l-78 -94h-231l-76 76v287z" />
    <glyph glyph-name="d" unicode="d" 
d="M375 458v188h63v-626h-300l-76 76v287l76 75h237zM375 80v316h-222l-31 -88l19 -209z" />
    <glyph glyph-name="e" unicode="e" 
d="M62 383l76 75h224l76 -75v-175h-316l22 -109l294 3l-22 -66l-263 -19l-91 72v294zM378 270l-19 110l-190 19l-44 -44v-85h253z" />
    <glyph glyph-name="f" unicode="f" 
d="M219 570l75 76h175v-60l-172 -19l-19 -109h128v-62h-125v-376h-62v376h-125v62h125v112z" />
    <glyph glyph-name="g" unicode="g" 
d="M62 383l76 75h300v-519l-76 -75h-268v60l259 18l28 78h-243l-76 76v287zM375 80v316h-222l-31 -88l19 -209z" />
    <glyph glyph-name="h" unicode="h" 
d="M62 20v626h63v-188h237l76 -75v-363h-60l-19 360l-234 19v-379h-63z" />
    <glyph glyph-name="i" unicode="i" 
d="M156 396v62h125v-375h63v-63h-188v63h63v313h-63zM219 520v126h62v-126h-62z" />
    <glyph glyph-name="j" unicode="j" 
d="M281 396v62h125v-525l-90 -72l-169 19l-66 106l44 47l81 -113l122 22l19 454h-66zM344 520v126h62v-126h-62z" />
    <glyph glyph-name="k" unicode="k" 
d="M94 20v626h62v-388l206 200h88l-212 -219l212 -219h-88l-206 200v-200h-62z" />
    <glyph glyph-name="l" unicode="l" 
d="M156 583v63h125v-563h63v-63h-188v63h63v500h-63z" />
    <glyph glyph-name="m" unicode="m" 
d="M62 20v438h300l76 -75v-363h-60l-19 354l-78 28v-382h-62v376h-94v-376h-63z" />
    <glyph glyph-name="n" unicode="n" 
d="M62 20v438h300l76 -75v-363h-60l-19 360l-234 19v-379h-63z" />
    <glyph glyph-name="o" unicode="o" 
d="M62 383l76 75h224l76 -75v-287l-76 -76h-224l-76 76v287zM359 99v281l-203 19l-34 -91l19 -209h218z" />
    <glyph glyph-name="p" unicode="p" 
d="M62 -136v594h300l76 -75v-287l-76 -76h-237v-156h-63zM359 99v281l-234 19v-319z" />
    <glyph glyph-name="q" unicode="q" 
d="M62 383l76 75h300v-594h-63v156h-237l-76 76v287zM375 80v316h-222l-31 -88l19 -209z" />
    <glyph glyph-name="r" unicode="r" 
d="M62 20v438h63v-75l75 75h238v-62h-197l-116 -104v-272h-63z" />
    <glyph glyph-name="s" unicode="s" 
d="M62 383l76 75h231l72 -88l-300 10v-94l243 -31l69 -109l-69 -110l-250 -19l-75 91l300 -9v93l-218 22l-79 63v106z" />
    <glyph glyph-name="t" unicode="t" 
d="M188 458v188h62v-188h125v-62h-128l19 -297l172 -19v-60h-176l-74 76v300h-126v62h126z" />
    <glyph glyph-name="u" unicode="u" 
d="M62 96v362h60l19 -359l234 -19v378h63v-438h-300z" />
    <glyph glyph-name="v" unicode="v" 
d="M62 411v47h50l110 -344h56l110 344h50v-47l-138 -391h-100z" />
    <glyph glyph-name="w" unicode="w" 
d="M62 96v362h60l19 -353l78 -28v256h62v-256l78 28l19 353h60v-362l-76 -76h-224z" />
    <glyph glyph-name="glyph92" unicode="x" 
d="M62 383v75h35l153 -172l153 172h35v-75l-135 -144l135 -143v-76h-35l-153 172l-153 -172h-35v76l135 143z" />
    <glyph glyph-name="y" unicode="y" 
d="M62 96v362h60l19 -359l234 -19v378h63v-519l-76 -75h-268v60l259 18l28 78h-243z" />
    <glyph glyph-name="z" unicode="z" 
d="M62 396v62h376v-75l-294 -300h294v-63h-376v76l294 300h-294z" />
    <glyph glyph-name="braceleft" unicode="{" 
d="M188 570l74 76h113v-57l-119 -28l-25 -228l25 -228l119 -28v-57h-113l-74 76v206h-94v62h94v206z" />
    <glyph glyph-name="bar" unicode="|" 
d="M219 20v626h62v-626h-62z" />
    <glyph glyph-name="braceright" unicode="}" 
d="M94 589v57h112l75 -76v-206h94v-62h-94v-206l-75 -76h-112v57l118 28l26 228l-26 228z" />
    <glyph glyph-name="asciitilde" unicode="~" 
d="M62 633l76 75h62l147 -138l34 138h60l-19 -134l-106 -66l-163 150l-34 -138h-57v113z" />
    <glyph glyph-name="nbspace" unicode="&#xa0;" 
 />
    <glyph glyph-name="exclamdown" unicode="&#xa1;" 
d="M219 20v438h62v-438h-62zM219 520v126h62v-126h-62z" />
    <glyph glyph-name="cent" unicode="&#xa2;" 
d="M219 474v78h62v-94h88l78 -94l-41 -44l-75 76h-50v-313h50l75 75l41 -44l-78 -94h-88v-93h-62v78l-141 62v344zM219 77v319h-66l-31 -88l19 -203z" />
    <glyph glyph-name="sterling" unicode="&#xa3;" 
d="M125 570l75 76h138l78 -94l-41 -41l-94 78l-93 -34v-191h156v-62h-156v-219h187v63h63v-126h-376v63h63v213l-78 37l78 37v200z" />
    <glyph glyph-name="currency" unicode="&#xa4;" 
d="M106 474l-47 78h66l125 -78l125 78h69l-53 -78l3 -282l47 -78h-66l-125 78l-125 -78h-69l53 78zM328 255v156l-140 19l-38 -97l38 -97z" />
    <glyph glyph-name="yen" unicode="&#xa5;" 
d="M62 611v35h54l112 -250h44l112 250h54v-35l-157 -306v-35h125v-62h-125v-62h125v-63h-118l-38 -78l-38 78h-118v63h125v62h-125v62h125v35z" />
    <glyph glyph-name="brokenbar" unicode="&#xa6;" 
d="M219 20v250h62v-250h-62zM219 396v250h62v-250h-62z" />
    <glyph glyph-name="section" unicode="&#xa7;" 
d="M103 630l59 78h144l78 -94l-40 -40l-94 78l-94 -35v-65l144 -56l72 -88l-6 -341l-60 -78h-144l-78 94l41 41l94 -78l93 34v66l-143 56l-72 87zM312 383l-74 75h-82v-144l75 -75h81v144z" />
    <glyph glyph-name="dieresis" unicode="&#xa8;" 
d="M312 677v125h63v-125h-63zM125 677v125h63v-125h-63z" />
    <glyph glyph-name="glyph108" unicode="&#xa9;" 
d="M122 402l34 90l197 -18l28 -78l-193 40v-203l193 37l-28 -78h-212zM31 508l75 75h288l75 -75v-350l-75 -75h-288l-75 75v350zM391 161v344l-266 19l-34 -91l18 -272h282z" />
    <glyph glyph-name="ordfeminine" unicode="&#xaa;" 
d="M94 302v62h312v-62h-312zM125 708v62h206l75 -74v-269h-244l-81 100l66 103l197 19l-35 59h-184zM344 489v94h-147l-38 -41l32 -53h153z" />
    <glyph glyph-name="guillemotleft" unicode="&#xab;" 
d="M175 239l213 219h93l-212 -219l212 -219h-93zM19 239l212 219h94l-213 -219l213 -219h-94z" />
    <glyph glyph-name="logicalnot" unicode="&#xac;" 
d="M62 396v62h376v-250h-63v188h-313z" />
    <glyph glyph-name="softhyphen" unicode="&#xad;" 
d="M94 302v62h312v-62h-312z" />
    <glyph glyph-name="registered" unicode="&#xae;" 
d="M125 177v312h222l37 -103l-75 -122l72 -87h-78l-115 103v-103h-63zM312 333v94h-124v-94h124zM31 508l75 75h288l75 -75v-350l-75 -75h-288l-75 75v350zM391 161v344l-266 19l-34 -91l18 -272h282z" />
    <glyph glyph-name="macron" unicode="&#xaf;" 
d="M125 708v62h250v-62h-250z" />
    <glyph glyph-name="degree" unicode="&#xb0;" 
d="M119 617l37 94l203 -19v-218h-218zM312 520v126h-124v-126h124z" />
    <glyph glyph-name="plusminus" unicode="&#xb1;" 
d="M62 20v63h376v-63h-376zM219 364v156h62v-156h157v-62h-157v-156h-62v156h-157v62h157z" />
    <glyph glyph-name="twosuperior" unicode="&#xb2;" 
d="M119 642l37 100l203 -18l22 -116l-140 -150h134v-62h-250v50l187 181v50h-118l-28 -78z" />
    <glyph glyph-name="threesuperior" unicode="&#xb3;" 
d="M125 699l44 43l190 -18v-313h-212l-28 78l193 -37v100h-93v62h93v72l-187 -37v50z" />
    <glyph glyph-name="acute" unicode="&#xb4;" 
d="M178 677l113 125h93l-112 -125h-94z" />
    <glyph glyph-name="mu" unicode="&#xb5;" 
d="M62 -136v594h63v-375h134l116 103v272h63v-438h-63v76l-75 -76h-175v-156h-63z" />
    <glyph glyph-name="paragraph" unicode="&#xb6;" 
d="M31 570l75 76h332v-626h-63v563h-94v-563h-62v282h-113l-75 75v193zM219 361v222h-97l-34 -91l21 -112z" />
    <glyph glyph-name="periodcentered" unicode="&#xb7;" 
d="M219 270v126h62v-126h-62z" />
    <glyph glyph-name="cedilla" unicode="&#xb8;" 
d="M156 -136l72 156h53v-81l-75 -75h-50z" />
    <glyph glyph-name="onesuperior" unicode="&#xb9;" 
d="M141 636l84 103h56v-281h63v-62h-188v62h63v150z" />
    <glyph glyph-name="ordmasculine" unicode="&#xba;" 
d="M94 302v62h312v-62h-312zM94 696l75 74h162l75 -74v-194l-75 -75h-162l-75 75v194zM328 505v187l-140 19l-38 -94l22 -112h156z" />
    <glyph glyph-name="guillemotright" unicode="&#xbb;" 
d="M388 239l-213 219h94l212 -219l-212 -219h-94zM231 239l-212 219h93l213 -219l-213 -219h-93z" />
    <glyph glyph-name="onequarter" unicode="&#xbc;" 
d="M219 127l200 206h50v-313h-63v63h-187v44zM406 146v93h-25l-75 -93h100zM19 117l400 403h50v-50l-403 -400zM56 552l75 94h57v-282h-63v188h-69z" />
    <glyph glyph-name="onehalf" unicode="&#xbd;" 
d="M244 205l34 97h163l34 -97l-109 -122h103v-63h-231l168 176v43h-87l-28 -78zM19 180l400 403h50v-50l-403 -400zM25 552l75 94h56v-282h-62v188h-69z" />
    <glyph glyph-name="threequarters" unicode="&#xbe;" 
d="M219 127l200 206h50v-313h-63v63h-187v44zM406 146v93h-25l-75 -93h100zM19 86l400 403h50v-50l-403 -400zM31 605l44 44l191 -19v-250h-213l-28 78l194 -38v69h-94v60l78 25l-172 -19v50z" />
    <glyph glyph-name="questiondown" unicode="&#xbf;" 
d="M219 374v84h62v-84l-159 -147l19 -128h218l19 140h60v-143l-76 -76h-224l-76 76v134zM219 520v126h62v-126h-62z" />
    <glyph glyph-name="Agrave" unicode="&#xc0;" 
d="M62 570l76 76h224l76 -76v-550h-63v250h-250v-250h-63v550zM378 333l-19 234l-190 19l-44 -44v-209h253zM228 677l-112 125h93l113 -125h-94z" />
    <glyph glyph-name="Aacute" unicode="&#xc1;" 
d="M62 570l76 76h224l76 -76v-550h-63v250h-250v-250h-63v550zM378 333l-19 234l-190 19l-44 -44v-209h253zM178 677l113 125h93l-112 -125h-94z" />
    <glyph glyph-name="Acircumflex" unicode="&#xc2;" 
d="M62 570l76 76h224l76 -76v-550h-63v250h-250v-250h-63v550zM378 333l-19 234l-190 19l-44 -44v-209h253zM122 686l106 116h44l106 -116h-256z" />
    <glyph glyph-name="Atilde" unicode="&#xc3;" 
d="M62 570l76 76h224l76 -76v-550h-63v250h-250v-250h-63v550zM378 333l-19 234l-190 19l-44 -44v-209h253zM94 761l40 41h94l116 -103v103h65l-18 -110l-113 -22l-122 110v-103h-62v84z" />
    <glyph glyph-name="Adieresis" unicode="&#xc4;" 
d="M62 570l76 76h224l76 -76v-550h-63v250h-250v-250h-63v550zM378 333l-19 234l-190 19l-44 -44v-209h253zM312 677v125h63v-125h-63zM125 677v125h63v-125h-63z" />
    <glyph glyph-name="Aring" unicode="&#xc5;" 
d="M150 705l38 100l140 -19v-125l110 -81v-560h-63v250h-250v-250h-63v560l126 87zM281 677v93h-62v-93h62zM378 333l-19 234l-190 19l-44 -44v-209h253z" />
    <glyph glyph-name="AE" unicode="&#xc6;" 
d="M31 570l75 76h394v-63h-188v-219h157v-62h-157v-219h188v-63h-250v282h-156v-282h-63v550zM250 364v219h-116l-40 -41v-178h156z" />
    <glyph glyph-name="Ccedilla" unicode="&#xc7;" 
d="M59 558l75 91l250 -19l66 -106l-44 -47l-81 112l-184 -22v-468l184 -22l81 112l38 -40l-38 -103l-112 -29l-60 -134l-84 -25l75 138l-22 9l-125 69z" />
    <glyph glyph-name="Egrave" unicode="&#xc8;" 
d="M62 20v626h376v-63h-313v-219h219v-62h-219v-219h313v-63h-376zM228 677l-112 125h93l113 -125h-94z" />
    <glyph glyph-name="Eacute" unicode="&#xc9;" 
d="M62 20v626h376v-63h-313v-219h219v-62h-219v-219h313v-63h-376zM178 677l113 125h93l-112 -125h-94z" />
    <glyph glyph-name="Ecircumflex" unicode="&#xca;" 
d="M62 20v626h376v-63h-313v-219h219v-62h-219v-219h313v-63h-376zM122 686l106 116h44l106 -116h-256z" />
    <glyph glyph-name="Edieresis" unicode="&#xcb;" 
d="M62 20v626h376v-63h-313v-219h219v-62h-219v-219h313v-63h-376zM312 677v125h63v-125h-63zM125 677v125h63v-125h-63z" />
    <glyph glyph-name="Igrave" unicode="&#xcc;" 
d="M156 583v63h188v-63h-63v-500h63v-63h-188v63h63v500h-63zM228 677l-112 125h93l113 -125h-94z" />
    <glyph glyph-name="Iacute" unicode="&#xcd;" 
d="M156 583v63h188v-63h-63v-500h63v-63h-188v63h63v500h-63zM178 677l113 125h93l-112 -125h-94z" />
    <glyph glyph-name="Icircumflex" unicode="&#xce;" 
d="M156 583v63h188v-63h-63v-500h63v-63h-188v63h63v500h-63zM122 686l106 116h44l106 -116h-256z" />
    <glyph glyph-name="Idieresis" unicode="&#xcf;" 
d="M156 583v63h188v-63h-63v-500h63v-63h-188v63h63v500h-63zM312 677v125h63v-125h-63zM125 677v125h63v-125h-63z" />
    <glyph glyph-name="Eth" unicode="&#xd0;" 
d="M47 333l22 313h243l126 -126v-374l-126 -126h-243zM375 508l-75 75h-175v-219h156v-62h-156v-219h175l75 75v350z" />
    <glyph glyph-name="Ntilde" unicode="&#xd1;" 
d="M62 20v626h63v-144l250 -244v388h63v-626h-63v144l-250 244v-388h-63zM94 761l40 41h94l116 -103v103h65l-18 -110l-113 -22l-122 110v-103h-62v84z" />
    <glyph glyph-name="Ograve" unicode="&#xd2;" 
d="M62 570l76 76h224l76 -76v-474l-76 -76h-224l-76 76v474zM359 99v468l-203 19l-34 -87l19 -400h218zM228 677l-112 125h93l113 -125h-94z" />
    <glyph glyph-name="Oacute" unicode="&#xd3;" 
d="M62 570l76 76h224l76 -76v-474l-76 -76h-224l-76 76v474zM359 99v468l-203 19l-34 -87l19 -400h218zM178 677l113 125h93l-112 -125h-94z" />
    <glyph glyph-name="Ocircumflex" unicode="&#xd4;" 
d="M62 570l76 76h224l76 -76v-474l-76 -76h-224l-76 76v474zM359 99v468l-203 19l-34 -87l19 -400h218zM122 686l106 116h44l106 -116h-256z" />
    <glyph glyph-name="Otilde" unicode="&#xd5;" 
d="M62 570l76 76h224l76 -76v-474l-76 -76h-224l-76 76v474zM359 99v468l-203 19l-34 -87l19 -400h218zM94 761l40 41h94l116 -103v103h65l-18 -110l-113 -22l-122 110v-103h-62v84z" />
    <glyph glyph-name="Odieresis" unicode="&#xd6;" 
d="M62 570l76 76h224l76 -76v-474l-76 -76h-224l-76 76v474zM359 99v468l-203 19l-34 -87l19 -400h218zM312 677v125h63v-125h-63zM125 677v125h63v-125h-63z" />
    <glyph glyph-name="multiply" unicode="&#xd7;" 
d="M188 314l-169 175h87l135 -125l112 125h100l-172 -169l169 -174h-97l-112 124l-135 -124h-90z" />
    <glyph glyph-name="Oslash" unicode="&#xd8;" 
d="M69 567l62 79h238l84 -104l-22 -443l-62 -79h-238l-84 104zM384 514l-43 69h-175l-41 -41v-287zM347 83l31 87l-19 229l-240 -247l40 -69h188z" />
    <glyph glyph-name="Ugrave" unicode="&#xd9;" 
d="M62 96v550h60l19 -547h218l19 547h60v-550l-76 -76h-224zM228 677l-112 125h93l113 -125h-94z" />
    <glyph glyph-name="Uacute" unicode="&#xda;" 
d="M62 96v550h60l19 -547h218l19 547h60v-550l-76 -76h-224zM178 677l113 125h93l-112 -125h-94z" />
    <glyph glyph-name="Ucircumflex" unicode="&#xdb;" 
d="M62 96v550h60l19 -547h218l19 547h60v-550l-76 -76h-224zM122 686l106 116h44l106 -116h-256z" />
    <glyph glyph-name="Udieresis" unicode="&#xdc;" 
d="M62 96v550h60l19 -547h218l19 547h60v-550l-76 -76h-224zM312 677v125h63v-125h-63zM125 677v125h63v-125h-63z" />
    <glyph glyph-name="Yacute" unicode="&#xdd;" 
d="M62 580v66h47l116 -282h50l116 282h47v-66l-157 -306v-254h-62v254zM178 677l113 125h93l-112 -125h-94z" />
    <glyph glyph-name="Thorn" unicode="&#xde;" 
d="M62 20v626h63v-126h237l76 -74v-226l-76 -74h-237v-126h-63zM359 224v218l-234 19v-256z" />
    <glyph glyph-name="germandbls" unicode="&#xdf;" 
d="M62 605l41 41h235l74 -94l-40 -213l66 -40v-203l-76 -76h-162l-75 76v-76h-63v585zM328 411v156l-203 19v-194zM381 242l-75 91h-181v-181l91 -75l143 22z" />
    <glyph glyph-name="agrave" unicode="&#xe0;" 
d="M94 399v59h268l76 -75v-363h-300l-76 76v131l76 75h243l-28 78zM375 83v156h-222l-34 -90l40 -66h216zM228 520l-112 126h93l113 -126h-94z" />
    <glyph glyph-name="aacute" unicode="&#xe1;" 
d="M94 399v59h268l76 -75v-363h-300l-76 76v131l76 75h243l-28 78zM375 83v156h-222l-34 -90l40 -66h216zM178 520l113 126h93l-112 -126h-94z" />
    <glyph glyph-name="acircumflex" unicode="&#xe2;" 
d="M94 399v59h268l76 -75v-363h-300l-76 76v131l76 75h243l-28 78zM375 83v156h-222l-34 -90l40 -66h216zM122 530l106 116h44l106 -116h-256z" />
    <glyph glyph-name="atilde" unicode="&#xe3;" 
d="M94 399v59h268l76 -75v-363h-300l-76 76v131l76 75h243l-28 78zM375 83v156h-222l-34 -90l40 -66h216zM94 605l40 41h94l116 -104v104h65l-18 -110l-113 -22l-122 110v-104h-62v85z" />
    <glyph glyph-name="adieresis" unicode="&#xe4;" 
d="M94 399v59h268l76 -75v-363h-300l-76 76v131l76 75h243l-28 78zM375 83v156h-222l-34 -90l40 -66h216zM312 520v126h63v-126h-63zM125 520v126h63v-126h-63z" />
    <glyph glyph-name="aring" unicode="&#xe5;" 
d="M94 399v59h268l76 -75v-363h-300l-76 76v131l76 75h243l-28 78zM375 83v156h-222l-34 -90l40 -66h216zM147 549l41 100l140 -19v-125l-116 -22zM281 520v94h-62v-94h62z" />
    <glyph glyph-name="ae" unicode="&#xe6;" 
d="M62 396v59l329 -3l78 -63v-181h-191l22 -109l172 12l-25 -75l-335 -12l-81 65v138l75 75h113v94h-157zM409 270l-18 110l-110 19v-129h128zM219 83v156h-97l-34 -90l40 -66h91z" />
    <glyph glyph-name="ccedilla" unicode="&#xe7;" 
d="M59 370l72 88h238l78 -94l-41 -40l-90 75l-175 -19v-281l175 -19l90 75l41 -41l-78 -94h-72l-63 -137l-84 -25l75 138l-22 9l-125 69z" />
    <glyph glyph-name="egrave" unicode="&#xe8;" 
d="M62 383l76 75h224l76 -75v-175h-316l22 -109l294 3l-22 -66l-263 -19l-91 72v294zM378 270l-19 110l-190 19l-44 -44v-85h253zM228 520l-112 126h93l113 -126h-94z" />
    <glyph glyph-name="eacute" unicode="&#xe9;" 
d="M62 383l76 75h224l76 -75v-175h-316l22 -109l294 3l-22 -66l-263 -19l-91 72v294zM378 270l-19 110l-190 19l-44 -44v-85h253zM178 520l113 126h93l-112 -126h-94z" />
    <glyph glyph-name="ecircumflex" unicode="&#xea;" 
d="M62 383l76 75h224l76 -75v-175h-316l22 -109l294 3l-22 -66l-263 -19l-91 72v294zM378 270l-19 110l-190 19l-44 -44v-85h253zM122 530l106 116h44l106 -116h-256z" />
    <glyph glyph-name="edieresis" unicode="&#xeb;" 
d="M62 383l76 75h224l76 -75v-175h-316l22 -109l294 3l-22 -66l-263 -19l-91 72v294zM378 270l-19 110l-190 19l-44 -44v-85h253zM312 520v126h63v-126h-63zM125 520v126h63v-126h-63z" />
    <glyph glyph-name="igrave" unicode="&#xec;" 
d="M156 396v62h125v-375h63v-63h-188v63h63v313h-63zM197 520l-113 126h94l113 -126h-94z" />
    <glyph glyph-name="iacute" unicode="&#xed;" 
d="M156 396v62h125v-375h63v-63h-188v63h63v313h-63zM178 520l113 126h93l-112 -126h-94z" />
    <glyph glyph-name="icircumflex" unicode="&#xee;" 
d="M156 396v62h125v-375h63v-63h-188v63h63v313h-63zM122 530l106 116h44l106 -116h-256z" />
    <glyph glyph-name="idieresis" unicode="&#xef;" 
d="M156 396v62h125v-375h63v-63h-188v63h63v313h-63zM312 520v126h63v-126h-63zM125 520v126h63v-126h-63z" />
    <glyph glyph-name="eth" unicode="&#xf0;" 
d="M125 605l-34 34h225l-66 -78l188 -178v-287l-76 -76h-224l-76 76v287l76 75h118l-72 88l-137 -35zM359 99v281l-203 19l-34 -91l19 -209h218z" />
    <glyph glyph-name="ntilde" unicode="&#xf1;" 
d="M62 20v438h300l76 -75v-363h-60l-19 360l-234 19v-379h-63zM94 605l40 41h94l116 -104v104h65l-18 -110l-113 -22l-122 110v-104h-62v85z" />
    <glyph glyph-name="ograve" unicode="&#xf2;" 
d="M62 383l76 75h224l76 -75v-287l-76 -76h-224l-76 76v287zM359 99v281l-203 19l-34 -91l19 -209h218zM228 520l-112 126h93l113 -126h-94z" />
    <glyph glyph-name="oacute" unicode="&#xf3;" 
d="M62 383l76 75h224l76 -75v-287l-76 -76h-224l-76 76v287zM359 99v281l-203 19l-34 -91l19 -209h218zM178 520l113 126h93l-112 -126h-94z" />
    <glyph glyph-name="ocircumflex" unicode="&#xf4;" 
d="M62 383l76 75h224l76 -75v-287l-76 -76h-224l-76 76v287zM359 99v281l-203 19l-34 -91l19 -209h218zM122 530l106 116h44l106 -116h-256z" />
    <glyph glyph-name="otilde" unicode="&#xf5;" 
d="M62 383l76 75h224l76 -75v-287l-76 -76h-224l-76 76v287zM359 99v281l-203 19l-34 -91l19 -209h218zM94 605l40 41h94l116 -104v104h65l-18 -110l-113 -22l-122 110v-104h-62v85z" />
    <glyph glyph-name="odieresis" unicode="&#xf6;" 
d="M62 383l76 75h224l76 -75v-287l-76 -76h-224l-76 76v287zM359 99v281l-203 19l-34 -91l19 -209h218zM312 520v126h63v-126h-63zM125 520v126h63v-126h-63z" />
    <glyph glyph-name="divide" unicode="&#xf7;" 
d="M219 114v125h62v-125h-62zM62 302v62h376v-62h-376zM219 427v125h62v-125h-62z" />
    <glyph glyph-name="oslash" unicode="&#xf8;" 
d="M62 383l76 75l318 -9l-25 -350l-62 -79l-372 10l65 66v287zM141 174l215 222h-203l-34 -91zM347 83l34 91l-22 131l-215 -222h203z" />
    <glyph glyph-name="ugrave" unicode="&#xf9;" 
d="M62 96v362h60l19 -359l234 -19v378h63v-438h-300zM228 520l-112 126h93l113 -126h-94z" />
    <glyph glyph-name="uacute" unicode="&#xfa;" 
d="M62 96v362h60l19 -359l234 -19v378h63v-438h-300zM178 520l113 126h93l-112 -126h-94z" />
    <glyph glyph-name="ucircumflex" unicode="&#xfb;" 
d="M62 96v362h60l19 -359l234 -19v378h63v-438h-300zM122 530l106 116h44l106 -116h-256z" />
    <glyph glyph-name="udieresis" unicode="&#xfc;" 
d="M62 96v362h60l19 -359l234 -19v378h63v-438h-300zM312 520v126h63v-126h-63zM125 520v126h63v-126h-63z" />
    <glyph glyph-name="yacute" unicode="&#xfd;" 
d="M62 96v362h60l19 -359l234 -19v378h63v-519l-76 -75h-268v60l259 18l28 78h-243zM178 520l113 126h93l-112 -126h-94z" />
    <glyph glyph-name="thorn" unicode="&#xfe;" 
d="M62 -136v782h63v-188h237l76 -75v-287l-76 -76h-237v-156h-63zM359 99v281l-234 19v-319z" />
    <glyph glyph-name="ydieresis" unicode="&#xff;" 
d="M62 96v362h60l19 -359l234 -19v378h63v-519l-76 -75h-268v60l259 18l28 78h-243zM312 520v126h63v-126h-63zM125 520v126h63v-126h-63z" />
    <glyph glyph-name="Amacron" unicode="&#x100;" 
d="M62 570l76 76h224l76 -76v-550h-63v250h-250v-250h-63v550zM378 333l-19 234l-190 19l-44 -44v-209h253zM125 708v62h250v-62h-250z" />
    <glyph glyph-name="amacron" unicode="&#x101;" 
d="M94 399v59h268l76 -75v-363h-300l-76 76v131l76 75h243l-28 78zM375 83v156h-222l-34 -90l40 -66h216zM125 520v63h250v-63h-250z" />
    <glyph glyph-name="Abreve" unicode="&#x102;" 
d="M62 570l76 76h224l76 -76v-550h-63v250h-250v-250h-63v550zM378 333l-19 234l-190 19l-44 -44v-209h253zM125 752v50h63v-63h118l28 78l50 -47l-78 -93h-106z" />
    <glyph glyph-name="abreve" unicode="&#x103;" 
d="M94 399v59h268l76 -75v-363h-300l-76 76v131l76 75h243l-28 78zM375 83v156h-222l-34 -90l40 -66h216zM125 596v50h63v-63h118l28 78l50 -47l-78 -94h-106z" />
    <glyph glyph-name="Aogonek" unicode="&#x104;" 
d="M62 570l76 76h224l76 -76v-559l-110 -81l110 -3v-63h-129l-37 103l103 75v228h-250v-250h-63v550zM378 333l-19 234l-190 19l-44 -44v-209h253z" />
    <glyph glyph-name="aogonek" unicode="&#x105;" 
d="M94 399v59h268l76 -75v-372l-110 -81l110 -3v-66l-141 19l6 140h-165l-76 76v131l76 75h243l-28 78zM375 83v156h-222l-34 -90l40 -66h216z" />
    <glyph glyph-name="Cacute" unicode="&#x106;" 
d="M62 570l79 79l243 -19l66 -106l-44 -47l-81 112l-184 -22v-468l184 -22l81 112l44 -47l-66 -106l-231 -19l-91 72v481zM178 677l113 125h93l-112 -125h-94z" />
    </font>
</defs>
</svg>
